<?xml version="1.0" standalone="no"?>
<!DOCTYPE svg PUBLIC "-//W3C//DTD SVG 1.1//EN" "http://www.w3.org/Graphics/SVG/1.1/DTD/svg11.dtd" >
<svg>
<metadata>
Created by FontForge 20110222 at Mon Mar  7 03:42:16 2011
 By www-data
URW Software, Copyright 1992 by URW 
</metadata>
<defs>
<font id="Candice" horiz-adv-x="559" >
  <font-face 
    font-family="Candice"
    font-weight="400"
    font-stretch="normal"
    units-per-em="1000"
    panose-1="0 0 0 0 0 0 0 0 0 0"
    ascent="800"
    descent="-200"
    x-height="384"
    cap-height="673"
    bbox="-127 -294 1274 864"
    underline-thickness="50"
    underline-position="-55"
    unicode-range="U+0020-25D9"
  />
    <missing-glyph />
    <glyph glyph-name="space" unicode=" " horiz-adv-x="250" 
 />
    <glyph glyph-name="space" unicode="&#xa0;" horiz-adv-x="250" 
 />
    <glyph glyph-name="exclam" unicode="!" horiz-adv-x="273" 
d="M158 167q33 0 55 -20.5t22 -51.5q0 -40 -28 -69t-66 -29q-33 0 -55 21.5t-22 55.5q0 37 28.5 65t65.5 28v0zM122 228l3 128q2 95 32.5 143.5t89.5 48.5q37 0 61.5 -24t24.5 -60v-9t-1 -8q-1 -9 -5.5 -22t-16.5 -43l-63 -164l-2 -6t-3 -5q-6 -15 -14.5 -19.5t-25.5 -4.5
h-51q-14 0 -21.5 7.5t-7.5 20.5v17v0z" />
    <glyph glyph-name="quotedbl" unicode="&#x22;" horiz-adv-x="339" 
d="M69 317l41 190q5 24 11.5 34t19.5 9h3l39 -2q11 -1 18.5 -10t6.5 -23q0 -4 -0.5 -9t-2.5 -10l-47 -190q-4 -18 -12.5 -27.5t-19.5 -9.5h-1.5h-1.5l-5 1l-30 1q-9 1 -15 9t-6 19q0 3 0.5 6t0.5 6q0 1 0.5 3t0.5 3v0zM221 317l41 190q4 24 11 34t19 9h4l39 -2
q11 -1 17.5 -10t6.5 -23q0 -4 -0.5 -9t-1.5 -10l-48 -190q-4 -18 -12 -27.5t-19 -9.5h-1.5h-1.5l-6 1l-30 1q-8 1 -14 9t-6 19v7.5t1 5.5q0 1 0.5 2.5t0.5 2.5v0z" />
    <glyph glyph-name="numbersign" unicode="#" 
d="M123 400h74q7 0 13 3.5t7 8.5l50 128q3 8 6.5 10.5t10.5 2.5h55q4 0 6 -2t3 -4v-3t-2 -4l-49 -128q-1 -2 -1 -3.5v-2.5q1 -2 4 -4t7 -2h68q9 0 13 2.5t6 9.5l50 128q3 8 7 10.5t11 2.5h54q5 0 7.5 -2t2.5 -4l-0.5 -2t-2.5 -5l-49 -128v-1.5v-0.5q-1 -1 -1 -1.5v-0.5v-1v0
q1 -3 4.5 -5t8.5 -2h73q5 0 8 -2t3 -7v-1.5t-1 -2.5l-18 -47q-2 -7 -8 -10t-16 -3h-68q-8 0 -14 -3.5t-9 -10.5l-27 -72q0 -1 -0.5 -1.5l-0.5 -0.5v-1.5v-1.5q1 -4 4.5 -6.5t7.5 -2.5h69q8 0 10.5 -2t3.5 -7v-4l-18 -47q-2 -5 -6.5 -8.5t-10.5 -4.5h-1h-2h-74
q-7 0 -12.5 -3.5t-7.5 -8.5l-50 -129q-3 -7 -6.5 -10t-10.5 -3h-55q-4 0 -6.5 2t-2.5 4q0 1 0.5 3t1.5 4l49 129q1 2 1 3.5v2.5q-1 2 -4 4t-7 2h-68q-9 0 -13 -2.5t-6 -9.5l-50 -129q-3 -7 -6.5 -10t-11.5 -3h-54q-4 0 -7 2t-3 4l1 2t2 5l49 129q1 2 1 2.5v1.5v0.5v0.5v0.5
v0.5q-1 3 -4.5 4.5t-8.5 1.5h-73q-5 0 -8 2.5t-3 6.5v2t1 2l18 47q2 7 8 10t16 3h68q8 0 14 3.5t9 10.5l27 72q0 1 0.5 1.5t0.5 1.5v0.5v1.5q-1 4 -4 6.5t-8 2.5h-69q-7 0 -10 2t-4 7v4l19 47q1 5 6 8.5t10 4.5h1.5h1.5v0zM243 226h68q7 0 10 2t6 7q1 1 1.5 2.5t1.5 3.5
l28 72q1 2 1 2.5v1.5q0 5 -4.5 7.5t-12.5 2.5h-68q-4 0 -8.5 -4t-6.5 -10l-28 -72q-1 -3 -1.5 -5l-0.5 -2q0 -4 4 -6t10 -2v0z" />
    <glyph glyph-name="dollar" unicode="$" 
d="M395 558l-12 -62q58 -13 89 -37.5t31 -59.5q0 -25 -16.5 -42.5t-39.5 -17.5q-4 0 -7 0.5t-6 1.5q-8 2 -17 9t-25 23l-4.5 4.5l-4.5 4.5q-16 14 -31 21.5t-27 7.5q-11 0 -20.5 -8.5t-9.5 -19.5q0 -3 0.5 -5.5t1.5 -5.5q4 -12 16 -23.5t34 -24.5q40 -25 65.5 -44.5
t38.5 -37.5q12 -16 17 -32.5t5 -37.5q0 -5 -0.5 -10t-0.5 -11q-5 -32 -21.5 -63t-43.5 -53q-3 -3 -6 -5.5t-6 -4.5q-22 -16 -46 -23.5t-61 -11.5l-10 -61q-4 -22 -14 -31.5t-32 -9.5l-26 -1q-14 1 -21.5 7.5t-6.5 18.5q0 3 0.5 7t1.5 9l12 59q-61 12 -98 44.5t-37 75.5
q0 32 20.5 54t48.5 22h4.5t4.5 -1q16 -2 32 -13.5t36 -33.5q18 -22 31.5 -33t26.5 -15q4 -2 8.5 -2.5t9.5 -0.5q15 0 25.5 10t10.5 24q0 5 -0.5 9t-2.5 7q-3 9 -18 20t-51 36q-24 16 -38.5 27t-24.5 21q-5 6 -9.5 12t-8.5 13l-0.5 0.5t-0.5 1.5q-10 20 -15.5 40t-5.5 40
q0 56 38.5 94.5t108.5 54.5l13 61q4 22 14 32t27 10h29q13 0 20 -5.5t7 -16.5q0 -4 -0.5 -8.5t-1.5 -9.5v0z" />
    <glyph glyph-name="percent" unicode="%" horiz-adv-x="585" 
d="M474 277q47 0 74 -29t27 -81q0 -73 -44 -123.5t-107 -50.5q-47 0 -76 28.5t-29 75.5q0 74 46 127t109 53v0zM463 207q-17 0 -30 -18.5t-13 -43.5q0 -13 7 -20.5t19 -7.5q17 0 29.5 17.5t12.5 41.5q0 15 -6.5 23t-18.5 8v0zM419 549h54q4 0 6.5 -2t2.5 -5v-2t-1 -2
q0 -1 -0.5 -2t-0.5 -2l-262 -512q-6 -12 -14 -17t-22 -5h-45q-4 0 -7.5 3.5t-4.5 7.5v4l264 511l5 10t4 7q3 4 7.5 5t13.5 1v0zM183 554q47 0 74 -29t27 -81q0 -73 -44 -124t-107 -51q-47 0 -76 29t-29 76q0 74 46 127t109 53v0zM172 484q-17 0 -30 -18.5t-13 -43.5
q0 -13 7 -20.5t19 -7.5q17 0 29.5 17.5t12.5 41.5q0 15 -6.5 23t-18.5 8v0z" />
    <glyph glyph-name="ampersand" unicode="&#x26;" horiz-adv-x="737" 
d="M599 432h-6q-4 -1 -7.5 -1h-5.5q-7 0 -11.5 5.5t-4.5 12.5q0 2 0.5 4t0.5 4q6 19 37 36t67 19h4h4q50 0 80.5 -28.5t30.5 -75.5q0 -56 -43.5 -95t-105.5 -39q-6 0 -12.5 0.5t-13.5 0.5q-3 0 -6.5 0.5t-6.5 0.5l-24 3t-15 1h-8h-9q29 -17 42.5 -38t13.5 -51
q0 -85 -84.5 -146.5t-200.5 -61.5q-109 0 -178.5 55t-69.5 142t65.5 153t166.5 81q-36 11 -51.5 28t-15.5 46q0 65 61.5 110.5t149.5 45.5q66 0 107.5 -25t41.5 -65q0 -32 -25.5 -54.5t-61.5 -22.5q-6 0 -15 1t-19 2q3 2 5 4t4 5q3 4 4.5 8.5t1.5 9.5q0 15 -10 23.5t-27 8.5
q-23 0 -39.5 -13.5t-16.5 -33.5q0 -16 14 -26t35 -10h20q11 0 17.5 -5.5t5.5 -15.5v-2.5v-2.5q-1 -5 -2.5 -11l-5.5 -22q0 -1 -0.5 -1.5t-0.5 -1.5q-6 -22 -15.5 -28.5t-38.5 -10.5q-53 -5 -86.5 -35t-33.5 -71q0 -31 22 -52t55 -21q26 0 46.5 15.5t20.5 34.5q0 11 -6.5 18
t-15.5 7q-4 0 -8 -1t-9 -3t-9 -3t-7 -1q-7 0 -12.5 6t-5.5 13q0 5 1.5 10.5t3.5 10.5q6 14 19 26.5t31 22.5q8 4 16.5 7.5t17.5 6.5q11 4 21 6t19 3l21 2l20 1l21 2q31 3 47.5 15.5t16.5 31.5q0 12 -7.5 18.5t-21.5 6.5v0z" />
    <glyph glyph-name="quotesingle" unicode="'" horiz-adv-x="188" 
d="M69 317l41 190q5 24 11.5 34t19.5 9h3l39 -2q11 -1 18.5 -10t6.5 -23q0 -4 -0.5 -9t-2.5 -10l-47 -190q-4 -18 -12.5 -27.5t-19.5 -9.5h-1.5h-1.5l-5 1l-30 1q-9 1 -15 9t-6 19q0 3 0.5 6t0.5 6q0 1 0.5 3t0.5 3v0z" />
    <glyph glyph-name="parenleft" unicode="(" horiz-adv-x="439" 
d="M467 743l14 -16q7 -7 10 -15t3 -17q0 -2 -0.5 -4.5t-0.5 -4.5q-2 -6 -7 -13t-15 -16q-12 -11 -26 -27.5t-28 -35.5q-11 -14 -21 -28.5t-20 -30.5q-9 -14 -17 -28t-15 -27q-23 -45 -40 -98t-26 -107q-4 -27 -6.5 -54t-2.5 -53q0 -61 11 -113.5t31 -91.5q8 -16 11.5 -23.5
t3.5 -13.5v-0.5v-0.5v-4t-1 -3q-1 -8 -5.5 -14.5t-11.5 -10.5l-32 -19q-7 -4 -13 -6t-11 -2t-10 1.5t-10 4.5q-12 7 -25 25t-29 50q-19 37 -33 72t-23 70q-7 31 -11 63t-4 65q0 133 55.5 253t161.5 217q5 5 11.5 10.5t13.5 11.5q1 1 3 2.5t3 2.5q10 9 20 16.5t17 12.5
q11 8 18.5 12t14.5 5q2 1 3.5 1h3.5q8 0 17 -5t18 -13v0z" />
    <glyph glyph-name="parenright" unicode=")" horiz-adv-x="398" 
d="M38 -115l-15 16q-7 8 -10 15.5t-3 16.5q0 3 0.5 6.5t1.5 6.5q2 5 7 11t14 14q12 11 25 26t27 33q12 15 23.5 32t22.5 34q8 13 15.5 26.5t13.5 25.5q23 44 39.5 95.5t25.5 104.5q5 28 7.5 56t2.5 55q0 62 -11 114.5t-31 91.5q-7 15 -10 22.5t-4 13.5v1.5v1.5v2v3
q1 7 5.5 14.5t11.5 11.5l32 18q7 5 13.5 7t10.5 2q6 0 12 -1.5t11 -5.5q12 -8 24 -25t28 -48q19 -37 32.5 -72.5t22.5 -70.5q7 -31 11 -63t4 -65q0 -133 -55.5 -253t-161.5 -216q-5 -5 -10.5 -9.5t-10.5 -9.5q-2 -2 -4.5 -4t-4.5 -4l-20 -16t-17 -13q-13 -9 -21 -13t-16 -5
h-1.5h-1.5q-4 0 -7.5 1t-7.5 3q-6 2 -11 5.5t-9 8.5v-1z" />
    <glyph glyph-name="asterisk" unicode="*" horiz-adv-x="388" 
d="M253 411l3 59v6v6q-1 4 -2.5 9t-3.5 11q-4 -4 -7 -6.5t-6 -5.5q-1 -1 -2 -2.5t-2 -2.5q-5 -6 -11.5 -18t-21.5 -39q-5 -10 -14.5 -16t-20.5 -6q-18 0 -32.5 14.5t-14.5 32.5t12.5 27.5t45.5 17.5q2 1 4.5 1.5t4.5 0.5q8 2 15 4t13 5q5 2 10 5t11 7l-10 6t-10 5
q-9 3 -18.5 5.5t-23.5 3.5q-30 4 -43 14.5t-13 31.5q0 18 13.5 32.5t29.5 14.5q8 0 13.5 -2t11.5 -6q6 -6 12.5 -15.5t15.5 -24.5q2 -4 4.5 -7.5t4.5 -7.5q5 -6 10 -11.5t10 -10.5q2 -2 4.5 -3.5t4.5 -3.5v2.5v2.5q1 9 1.5 16.5t0.5 12.5v6.5v5.5q0 2 -0.5 4t-0.5 4
q-3 18 -5 30.5t-2 13.5q0 17 12.5 28t31.5 11q20 0 33 -11t13 -28v-1.5v-1.5v-6t-1 -5q-1 -6 -8 -14.5t-26 -29.5l-1.5 -1.5t-0.5 -1.5q-3 -4 -5.5 -7.5t-4.5 -8.5q-3 -5 -6.5 -11.5t-6.5 -15.5h3.5t2.5 1h6.5t4.5 1q8 2 19.5 7t39.5 19q8 4 14.5 5.5t12.5 1.5
q16 0 28 -13.5t12 -30.5q0 -19 -11 -31.5t-28 -12.5h-3.5h-2.5q-6 1 -15.5 4.5t-36.5 14.5q-2 1 -4 1.5t-4 1.5q-8 3 -17 4t-21 1q1 -2 2 -4.5t2 -4.5q3 -5 5.5 -9.5t6.5 -9.5q2 -3 6 -7l8 -8q18 -17 26 -26t10 -17q0 -3 0.5 -5t0.5 -5q0 -19 -14 -32.5t-34 -13.5
q-19 0 -30 12t-10 31v0z" />
    <glyph glyph-name="plus" unicode="+" 
d="M248 312v121q0 15 6 23t19 12l23 6l3 1.5t3 0.5h2.5h2.5q11 0 16 -6t5 -19v-139h145q12 0 17.5 -5t6.5 -16v-2.5v-2.5q0 -2 -0.5 -3t-0.5 -3l-7 -23q-4 -13 -12 -19t-23 -6h-126v-114q0 -22 -4.5 -29.5t-20.5 -12.5l-26 -7q-1 -1 -3 -1h-4q-12 0 -17 6t-5 20v138h-133
q-14 0 -20.5 5.5t-5.5 16.5v2t1 2v1v2l7 26q5 16 12.5 20.5t29.5 4.5h109v0z" />
    <glyph glyph-name="comma" unicode="," horiz-adv-x="288" 
d="M111 2q-20 10 -29.5 25t-9.5 38q0 37 24.5 60t63.5 23q37 0 59.5 -23t22.5 -61q0 -32 -15.5 -58.5t-50.5 -51.5q-7 -6 -15 -10.5t-16 -8.5q-16 -8 -31 -12.5t-28 -4.5q-14 0 -24.5 14t-10.5 33q0 4 0.5 6.5t4.5 5.5q3 2 10.5 5t20.5 8q3 1 5 1.5t3 1.5q1 0 2 0.5l1 0.5
q3 1 5.5 3t7.5 5v0z" />
    <glyph glyph-name="hyphen" unicode="-" horiz-adv-x="232" 
d="M62 252h158q12 0 18 -5t6 -16v-3.5v-3.5q0 -1 -0.5 -2t-0.5 -2l-7 -23q-4 -13 -12 -19t-23 -6h-163q-14 0 -20 5t-6 17v4t1 3l7 26q5 16 12.5 20.5t29.5 4.5v0z" />
    <glyph glyph-name="period" unicode="." horiz-adv-x="270" 
d="M151 148q32 0 53 -19.5t21 -49.5q0 -37 -26.5 -61.5t-65.5 -24.5q-32 0 -51.5 17.5t-19.5 48.5q0 36 26.5 62.5t62.5 26.5v0z" />
    <glyph glyph-name="slash" unicode="/" horiz-adv-x="300" 
d="M390 697l46 -2q5 0 7.5 -2t2.5 -5q0 -1 -0.5 -3t-2.5 -5l-381 -728q-7 -11 -15.5 -16t-22.5 -5l-34 -1q-4 1 -8 4t-4 8v0.5v1.5t0.5 1.5l0.5 0.5l380 726q2 5 4 8.5t4 6.5q5 6 10 8t13 2v0z" />
    <glyph glyph-name="zero" unicode="0" 
d="M344 553q95 0 148.5 -58t53.5 -161q0 -147 -87.5 -248t-215.5 -101q-94 0 -151.5 57t-57.5 150q0 149 91.5 255t218.5 106v0zM322 413q-34 0 -60 -37t-26 -84q0 -27 14 -42.5t38 -15.5q35 0 60 34.5t25 82.5q0 30 -13 46t-38 16v0z" />
    <glyph glyph-name="one" unicode="1" 
d="M158 -33l80 360q1 2 1 3.5t1 3.5v4.5v5.5q0 14 -8 19.5t-32 6.5q-19 2 -28 10t-9 23q0 12 6 22t19 17l164 97q12 7 24 10.5t23 3.5q21 0 35 -12.5t14 -32.5q0 -6 -1.5 -15.5t-4.5 -20.5q-3 -10 -8 -31.5t-11 -52.5q-1 -7 -6.5 -32t-13.5 -61q-4 -22 -10 -50t-14 -63
q-5 -28 -9 -49t-6 -35q-1 -5 -1.5 -10t-1.5 -10q-8 -53 -22 -65.5t-60 -12.5h-52q-13 0 -21.5 -1t-16.5 -5q-6 -3 -13.5 -9.5t-17.5 -16.5v-1z" />
    <glyph glyph-name="two" unicode="2" 
d="M246 157q9 3 15.5 4.5t12.5 2.5q4 1 8 1h9h6h5q9 -1 19.5 -3t28.5 -6q7 -2 13.5 -3t10.5 -1q11 0 21.5 5.5t19.5 16.5q8 10 13 15t9 7q2 1 5 1.5t7 0.5q12 0 19 -9t7 -25q0 -12 -2.5 -26.5t-7.5 -28.5q-6 -17 -13.5 -33t-17.5 -29q-22 -31 -55 -48t-71 -17q-7 0 -13 0.5
t-12 1.5q-15 3 -33.5 11t-50.5 26q-6 3 -12.5 5.5t-13.5 3.5q-3 0 -6.5 0.5t-6.5 0.5h-0.5h-1.5h-7t-6 -1q-5 -2 -12.5 -8.5t-25.5 -21.5q-4 -3 -9.5 -5t-12.5 -2q-16 0 -25 10t-9 31q0 15 3 31.5t8 32.5q8 27 22.5 53t32.5 47q3 3 5 5.5t5 5.5q6 6 12 11.5t13 10.5
q17 13 43 27.5t71 38.5q17 9 30.5 17.5t23.5 16.5q17 15 24.5 30.5t7.5 35.5q0 25 -13 40t-34 15q-3 0 -6 -0.5t-6 -0.5q-6 -2 -12.5 -5t-14.5 -9q5 -7 7.5 -12.5t4.5 -10.5q2 -6 2.5 -11.5t0.5 -12.5q0 -36 -24.5 -59.5t-62.5 -23.5q-32 0 -54 23t-22 57q0 70 67.5 119
t162.5 49q73 0 120 -42.5t47 -107.5q0 -38 -14 -71t-40 -59q-3 -3 -6 -5.5t-6 -5.5q-7 -6 -14.5 -11.5t-17.5 -10.5q-14 -8 -34.5 -17t-52.5 -21q-11 -4 -19.5 -7.5t-15.5 -7.5q-7 -3 -13.5 -6.5t-12.5 -7.5t-11.5 -8.5t-11.5 -9.5v0z" />
    <glyph glyph-name="three" unicode="3" 
d="M410 291q49 -9 71 -33.5t22 -68.5q0 -87 -79 -147t-194 -60q-87 0 -139 38.5t-52 103.5q0 59 46.5 105.5t104.5 46.5q17 0 26.5 -7t9.5 -19v-3.5t-1 -2.5q-1 -3 -4 -6t-11 -9q-6 -4 -10.5 -11t-7.5 -14l-2 -8t-1 -8q0 -21 15.5 -34.5t39.5 -13.5q32 0 55 19.5t23 46.5
q0 12 -6 22.5t-16 15.5q-1 1 -1.5 1t-0.5 1h-1v0q-2 0 -8 1l-24 4q-5 1 -8.5 7t-3.5 15v1.5v0.5q0 2 1 5t3 14q1 4 2 7.5t2 6.5q4 15 11 18.5t28 4.5q29 2 49.5 21.5t20.5 44.5q0 23 -17 39t-40 16q-14 0 -25.5 -3t-21.5 -10q-5 -3 -10 -6.5t-10 -8.5q6 -6 10 -11t7 -9
q3 -5 4 -10t1 -11q0 -27 -22 -46.5t-53 -19.5t-51 21t-20 55q0 65 68 112t161 47q80 0 130 -37.5t50 -98.5q0 -48 -32.5 -81t-88.5 -44v0z" />
    <glyph glyph-name="four" unicode="4" 
d="M259 129h-132q-37 0 -59.5 18.5t-22.5 48.5q0 7 1 14t4 13q4 10 12 21t21 24l242 244q7 7 13 12t12 9q9 6 20 8t26 2h56q18 0 28.5 -10t10.5 -27q0 -4 -0.5 -10t-2.5 -13l-48 -232h26q19 0 29.5 -7t10.5 -21v-4.5t-1 -5.5l-8 -44q-4 -19 -15.5 -29.5t-28.5 -10.5h-37
l-12 -74q-4 -28 -19 -41.5t-42 -13.5h-50q-22 0 -35 -4t-24 -18q-2 -3 -4.5 -6.5t-5.5 -7.5l35 165v0zM286 251l27 119l-118 -119h91v0z" />
    <glyph glyph-name="five" unicode="5" 
d="M286 414l-8 -43q10 1 16.5 2t12.5 1q6 1 11.5 1h13.5q73 0 116 -39t43 -105q0 -97 -81 -169.5t-189 -72.5q-75 0 -123.5 38.5t-48.5 98.5q0 48 29.5 81.5t72.5 33.5q33 0 55 -17t22 -43q0 -22 -11 -39.5t-33 -28.5q6 -4 11.5 -7t10.5 -5q4 -2 9.5 -2.5t11.5 -0.5
q36 0 64.5 29t28.5 66q0 35 -28 56.5t-74 21.5h-32q-23 0 -36.5 14t-13.5 39v8t1 6q0 2 0.5 3.5t0.5 3.5l29 131q9 41 24.5 54.5t51.5 13.5h232q12 0 21.5 -9t9.5 -20v-5v-4t-0.5 -3.5t-0.5 -3.5l-10 -47q-4 -19 -17 -28.5t-37 -9.5h-155v0z" />
    <glyph glyph-name="six" unicode="6" 
d="M396 453h-19q-46 0 -79.5 -31t-54.5 -94q21 10 39.5 16.5t37.5 9.5q10 2 21 3t23 1q68 0 106.5 -36t38.5 -100q0 -101 -74 -172.5t-178 -71.5q-91 0 -144.5 56t-53.5 153q0 14 1 27.5t3 27.5q10 68 43 132.5t80 106.5q32 28 76 47t90 26q11 1 21.5 2t21.5 1
q62 0 100.5 -29t38.5 -76q0 -37 -26.5 -64.5t-63.5 -27.5q-28 0 -45 14.5t-17 39.5q0 6 0.5 10.5t2.5 9.5q1 4 4 8.5l7 10.5v0zM296 266q-28 0 -49 -26.5t-21 -60.5q0 -24 12.5 -39t32.5 -15q30 0 51.5 26t21.5 62q0 24 -13 38.5t-35 14.5v0z" />
    <glyph glyph-name="seven" unicode="7" 
d="M304 332l18 15q8 7 14 12t11 10q1 0 1.5 1t1.5 2q7 6 14.5 13.5t19.5 20.5q-10 -3 -17 -5t-13 -3q-4 -1 -8.5 -1h-9.5h-6.5h-5.5q-6 0 -15 1.5l-33 5.5q-5 1 -10.5 1.5t-11.5 0.5q-22 0 -36 -6.5t-25 -22.5q-7 -9 -11.5 -14t-8.5 -7q-3 -2 -6.5 -2.5t-7.5 -0.5
q-12 0 -19 6.5t-7 18.5q0 11 2 24.5t5 27.5q4 21 11 40.5t14 30.5q18 27 44 39.5t65 12.5q8 0 15 -0.5t14 -0.5q19 -2 40.5 -7t59.5 -16q12 -4 23.5 -6t18.5 -2h2h1h4.5h3.5q4 1 10.5 4.5t24.5 14.5q5 4 10.5 5.5t10.5 1.5q9 0 15 -7.5t6 -21.5q0 -9 -1 -18.5t-2 -19.5
q-4 -23 -11.5 -45t-18.5 -41q-8 -13 -22.5 -30.5t-32.5 -36.5l-16 -16l-16 -17l-16 -17q-22 -22 -36 -45.5t-21 -47.5q0 -3 -0.5 -5.5t-1.5 -5.5q-1 -2 -1.5 -5t-0.5 -6l-2 -24l-3 -24l-3 -25q-5 -47 -33.5 -76t-68.5 -29t-66 27t-26 69q0 36 17 75t51 79q4 5 9 10.5
t10 10.5q5 6 11 12l12 12t12.5 12t12.5 11l18 15l17 15v0z" />
    <glyph glyph-name="eight" unicode="8" 
d="M185 318l-6.5 6.5l-6.5 6.5q-14 17 -20.5 34.5t-6.5 39.5q0 65 56.5 108t139.5 43q76 0 119 -31t43 -87q0 -42 -22 -75t-63 -55q39 -20 56 -46.5t17 -65.5q0 -87 -71 -146t-175 -59q-88 0 -140 42.5t-52 115.5q0 56 33.5 98.5t98.5 70.5v0zM280 256q-23 0 -41.5 -25
t-18.5 -57q0 -20 11.5 -33t30.5 -13q24 0 41 25.5t17 61.5q0 18 -11 29.5t-29 11.5v0zM330 474h-1.5h-1.5q-21 0 -38.5 -24.5t-17.5 -54.5q0 -19 9.5 -30t26.5 -11q23 0 40.5 24t17.5 54q0 19 -9 30t-26 12v0z" />
    <glyph glyph-name="nine" unicode="9" 
d="M351 223q-19 -9 -35.5 -15.5t-33.5 -9.5q-14 -4 -29.5 -5.5t-31.5 -1.5q-61 0 -98 38.5t-37 100.5q0 95 74 163t177 68q86 0 140 -59.5t54 -154.5q0 -149 -98 -255.5t-235 -106.5q-64 0 -102 29.5t-38 79.5q0 39 25.5 65.5t62.5 26.5q31 0 50.5 -16t19.5 -41v-5.5
t-1 -5.5q-1 -5 -2.5 -11t-5.5 -14q54 0 91 33.5t53 96.5v0zM321 463q-28 0 -47.5 -24.5t-19.5 -62.5q0 -27 10.5 -40.5t32.5 -13.5q32 0 51 24t19 63q0 26 -12 40t-34 14v0z" />
    <glyph glyph-name="colon" unicode=":" horiz-adv-x="270" 
d="M151 148q32 0 53 -19.5t21 -49.5q0 -37 -26.5 -61.5t-65.5 -24.5q-32 0 -51.5 17.5t-19.5 48.5q0 36 26.5 62.5t62.5 26.5v0zM191 378q33 0 53.5 -19.5t20.5 -51.5q0 -36 -27 -60.5t-65 -24.5q-32 0 -51.5 18t-19.5 49q0 36 26.5 62.5t62.5 26.5v0z" />
    <glyph glyph-name="semicolon" unicode=";" horiz-adv-x="288" 
d="M105 2q-20 10 -29.5 25t-9.5 38q0 37 24.5 60t63.5 23q37 0 59.5 -23t22.5 -61q0 -32 -15.5 -58.5t-50.5 -51.5q-7 -6 -15 -10.5t-16 -8.5q-16 -8 -31 -12.5t-28 -4.5q-14 0 -24.5 14t-10.5 33q0 4 0.5 6.5t4.5 5.5q3 2 10.5 5t20.5 8q3 1 5 1.5t3 1.5q1 0 2 0.5l1 0.5
q3 1 5.5 3t7.5 5v0zM202 378q33 0 53.5 -19.5t20.5 -51.5q0 -36 -27 -60.5t-65 -24.5q-32 0 -51.5 18t-19.5 49q0 36 26.5 62.5t62.5 26.5v0z" />
    <glyph glyph-name="less" unicode="&#x3c;" horiz-adv-x="500" 
d="M480 577v-80l-348 -160l348 -160v-79l-433 205v69l433 205v0z" />
    <glyph glyph-name="equal" unicode="=" 
d="M139 251h334q12 0 18 -5t6 -16v-3.5v-3.5q0 -1 -0.5 -2t-0.5 -2l-7 -23q-4 -13 -12 -19t-23 -6h-339q-14 0 -20 5t-6 17v4t1 3l7 26q5 16 12.5 20.5t29.5 4.5v0zM139 372h334q12 0 18 -5t6 -16v-3.5v-3.5q0 -1 -0.5 -2t-0.5 -2l-7 -23q-4 -13 -12 -19t-23 -6h-339
q-14 0 -20 5t-6 17v4t1 3l7 26q5 16 12.5 20.5t29.5 4.5v0z" />
    <glyph glyph-name="greater" unicode="&#x3e;" horiz-adv-x="500" 
d="M74 97v80l348 160l-348 160v80l433 -206v-69l-433 -205v0z" />
    <glyph glyph-name="question" unicode="?" horiz-adv-x="441" 
d="M232 167q33 0 55 -20.5t22 -51.5q0 -40 -28 -69t-66 -29q-33 0 -55 21.5t-22 55.5q0 37 28.5 65t65.5 28v0zM274 181h-44q-24 0 -33.5 7t-9.5 25q0 33 22 61.5t68 53.5q32 18 47 36.5t15 40.5q0 24 -15.5 39.5t-40.5 15.5q-9 0 -16 -2t-14 -6q-4 -3 -9 -7t-10 -10
q17 -6 25 -17.5t8 -30.5q0 -28 -26.5 -52t-58.5 -24t-54.5 22t-22.5 53q0 68 70 117t168 49q68 0 112.5 -39t44.5 -98q0 -53 -33.5 -91.5t-105.5 -68.5q-5 -2 -8.5 -3.5t-7.5 -3.5q-9 -5 -14.5 -11t-10.5 -16q0 -2 -0.5 -3l-1.5 -3q-2 -4 -3.5 -7.5t-3.5 -6.5
q-7 -12 -15 -16t-22 -4v0z" />
    <glyph glyph-name="at" unicode="@" horiz-adv-x="761" 
d="M647 451l-29 -130q-1 -10 -2.5 -17t-1.5 -12q0 -10 6.5 -16.5t16.5 -6.5q3 0 6.5 1t6.5 3q18 11 33.5 43t19.5 69q1 6 1.5 12.5t0.5 12.5q0 73 -56.5 117t-149.5 44q-119 0 -201.5 -79t-82.5 -195q0 -79 44 -128t116 -49q35 0 57 9.5t27 28.5q1 4 2 6.5t2 4.5q2 2 3.5 3
t3.5 1t4.5 -0.5t5.5 -0.5q22 -5 41.5 -27t23.5 -48q1 -2 1 -4.5v-5.5q0 -51 -53.5 -87t-129.5 -36q-132 0 -218.5 89t-86.5 225q0 167 125 285t301 118q131 0 214.5 -70t83.5 -181q0 -63 -23.5 -113t-70.5 -85q-13 -9 -27 -17.5t-28 -14.5q-21 -10 -41 -15t-36 -5
q-31 0 -50.5 19t-19.5 48v3v3q0 3 0.5 6t0.5 6l-22.5 -27t-14.5 -15q0 -1 -0.5 -1.5t-1.5 -0.5l-4 -4l-4 -4q-9 -9 -20 -16t-23 -11q-7 -2 -14 -3.5t-14 -1.5q-35 0 -58 29.5t-23 75.5q0 81 54.5 147t121.5 66q23 0 42.5 -9t35.5 -26q21 15 33 22t22 9q4 1 8 1.5t9 0.5
q15 0 25 -8.5t10 -21.5v-5v-4q-1 -2 -1 -3.5t-1 -3.5v0zM481 424q-16 1 -30 -15.5t-14 -36.5q0 -13 7 -21t19 -8q17 0 30 17.5t13 39.5q0 11 -6.5 17t-18.5 7v0z" />
    <glyph glyph-name="A" unicode="A" horiz-adv-x="968" 
d="M707 522q-11 2 -19.5 3.5t-16.5 2.5q-5 1 -10 1h-11q-41 0 -66 -13t-26 -35q-1 -10 7 -16t25 -8q9 -1 14 -5t5 -11v-0.5v-0.5v-0.5v-0.5q0 -3 -0.5 -5.5t-1.5 -4.5q-3 -8 -9 -16t-16 -17q-34 -28 -70 -43t-73 -15q-65 0 -107.5 39.5t-42.5 99.5q0 76 65 133t151 57
q38 0 83.5 -10t105.5 -33q46 -16 69 -23t42 -8q3 -1 6.5 -1h7.5h10.5t9.5 1q5 0 9.5 0.5t10.5 1.5q13 2 23.5 3.5t15.5 1.5q20 0 34 -12.5t14 -30.5v-1.5v-1.5v-3.5v-3.5q-1 -7 -7 -17.5t-24 -43.5q-14 -24 -26 -59.5t-22 -72.5q-7 -31 -11.5 -61t-4.5 -53q0 -34 13.5 -57.5
t32.5 -23.5q4 0 8 1t9 2q5 2 9 3t7 1q8 0 14 -7.5t6 -17.5q0 -57 -45 -104t-99 -49h-1.5h-1.5q-49 0 -75.5 32.5t-26.5 91.5q0 12 2 29.5t5 36.5q0 1 0.5 3t0.5 4q0 3 0.5 5t0.5 4v2.5v2.5q0 11 -8.5 18.5t-20.5 7.5q-14 0 -24 -6.5t-19 -23.5q-5 -7 -9 -17t-9 -23
q-4 -10 -12.5 -29t-19.5 -39q-1 -3 -2.5 -6l-2.5 -5l-2 -4l-2 -4q-47 -94 -129 -146.5t-183 -52.5q-99 0 -163 54.5t-64 137.5q0 68 42 129.5t111 96.5q11 6 23 10.5t25 8.5q20 7 39.5 10.5t35.5 3.5q19 0 31 -7.5t12 -18.5v-0.5v-0.5v-3v-3q-1 -3 -5 -8.5t-15 -20.5
q-4 -5 -6 -11.5t-2 -14.5q0 -21 18.5 -36t44.5 -15q10 0 20 1.5t19 5.5q37 14 77 60.5t100 142.5q20 31 32.5 50t23.5 34q2 3 4.5 5.5t4.5 5.5q7 8 14.5 16.5t17.5 19.5v0zM677 310q8 3 13 4t9 1h1.5h1.5h3.5h3.5q6 -1 11.5 -2.5t13.5 -4.5q5 18 11.5 37.5t14.5 39.5
q12 32 25.5 63.5t27.5 58.5q-31 -29 -58.5 -65t-48.5 -73q-9 -15 -16 -30t-13 -29v0z" />
    <glyph glyph-name="B" unicode="B" horiz-adv-x="941" 
d="M545 397l14 33q2 5 4 9.5t4 8.5q0 1 0.5 2t0.5 2q8 17 17.5 37t26.5 56q-55 -15 -86 -37t-31 -46q0 -8 4.5 -13.5t13.5 -8.5q5 -2 8.5 -3.5t5.5 -2.5q4 -3 5 -6t1 -8q0 -12 -9.5 -26.5t-26.5 -31.5q-24 -22 -50.5 -35.5t-53.5 -17.5q-4 0 -8.5 -0.5t-9.5 -0.5
q-49 0 -82.5 31t-33.5 77q0 67 54 121.5t147 81.5q43 13 92.5 18.5t114.5 5.5q50 68 108.5 102t124.5 34q35 0 58 -16.5t23 -42.5v-1.5v-1.5q-2 -24 -26 -44.5t-52 -21.5h-1.5h-1.5q-8 0 -11 2t-6 9q-1 2 -1.5 4.5t-1.5 5.5q-2 8 -7 11.5t-15 3.5q-7 0 -15 -1.5t-15 -4.5
q-16 -6 -31 -18t-29 -29q82 -13 125.5 -49.5t43.5 -90.5q0 -47 -28.5 -78t-87.5 -48q54 -11 80 -43.5t26 -89.5q0 -98 -67.5 -175t-153.5 -77q-53 0 -85.5 29t-32.5 77v8.5t1 9.5q4 41 22.5 77t39.5 45q3 2 6 2.5t6 0.5q7 0 10 -1t5 -9q0 -3 1 -7t2 -9q2 -7 8.5 -13t13.5 -6
h2.5t2.5 1q15 3 27.5 21.5t13.5 39.5v1.5v1.5q0 34 -23 51t-70 17h-16q-5 -15 -10 -31t-10 -31q-15 -41 -31.5 -81t-34.5 -76q-52 -107 -138.5 -166.5t-190.5 -59.5q-94 0 -157 58t-63 143q0 95 78.5 162.5t187.5 67.5q32 0 46.5 -7t14.5 -23v-4v-4q-1 -4 -5 -9.5t-14 -20.5
q-3 -4 -4.5 -9t-1.5 -12q0 -16 17.5 -29t40.5 -13q6 0 12 1t12 3q20 5 39.5 18.5t33.5 32.5q16 21 29.5 46.5t25.5 53.5l14 33l14 34v0zM661 404h5q44 0 73.5 26t29.5 63q0 22 -13.5 36t-39.5 19q-14 -23 -25.5 -51t-22.5 -66q-2 -7 -3.5 -13.5t-3.5 -13.5v0z" />
    <glyph glyph-name="C" unicode="C" horiz-adv-x="1055" 
d="M611 612l30 -16q2 -1 8.5 -4t16.5 -8q50 21 89.5 33.5t77.5 17.5q17 3 35 4t37 1q92 0 147 -35t55 -94q0 -54 -45.5 -91.5t-110.5 -37.5q-42 0 -93.5 16t-128.5 53q-53 -42 -84 -96.5t-34 -112.5v-4.5v-5.5q0 -51 26.5 -81t71.5 -30q37 0 63 22t26 53q0 20 -15.5 34
t-38.5 14h-5.5t-4.5 -1q-2 0 -4.5 -0.5t-5.5 -0.5q-6 -1 -10.5 -2t-7.5 -1q-10 0 -17 7t-7 17q0 4 1 8.5t4 9.5q13 25 53.5 47.5t86.5 29.5q9 1 17.5 2t17.5 1q71 0 115.5 -42.5t44.5 -110.5q0 -126 -103.5 -218t-244.5 -92q-81 0 -139 26.5t-99 80.5q-28 39 -42.5 84
t-14.5 93q0 87 44 171.5t129 160.5q-23 6 -39.5 9t-32.5 4q-6 1 -12 1h-13q-44 0 -69.5 -15t-25.5 -41v-2v-2q2 -9 8.5 -16.5t13.5 -8.5h1.5h1.5l38 3h1.5h0.5q7 -1 12 -7t5 -14q0 -28 -49 -51.5t-107 -24.5h-1.5h-1.5q-72 0 -117.5 43t-45.5 111q0 82 66.5 140t160.5 58
q14 0 27.5 -1t26.5 -3q26 -4 54 -13.5t63 -25.5q5 -3 7.5 -4t4.5 -2q4 -1 12 -5.5t38 -19.5l31 -15v0zM818 514q42 -17 63.5 -23t39.5 -7h3.5h2.5q16 0 26 7.5t10 18.5q0 13 -12 21t-31 8q-8 0 -15.5 -0.5t-14.5 -1.5q-14 -2 -30 -7t-42 -16v0z" />
    <glyph glyph-name="D" unicode="D" horiz-adv-x="931" 
d="M687 649q24 24 47 43t46 32q32 19 64.5 28t67.5 9q41 0 68.5 -24.5t27.5 -59.5q0 -30 -20.5 -52t-48.5 -22q-17 0 -21.5 5.5t-5.5 26.5q-1 7 -10.5 12.5t-22.5 5.5q-21 0 -46.5 -14t-54.5 -43q67 -55 97.5 -121.5t30.5 -153.5q0 -145 -84.5 -240.5t-211.5 -95.5
q-11 0 -21 0.5t-20 1.5q-22 3 -46.5 10.5t-65.5 23.5q-4 2 -11.5 4.5t-17.5 6.5q-49 -41 -102 -61t-116 -20q-81 0 -131 36.5t-50 95.5q0 52 41 87.5t102 35.5h12.5t12.5 -1q39 -2 86 -14.5t134 -42.5q5 7 9.5 14t8.5 14q4 6 7.5 12t6.5 13q10 20 22 49.5t31 79.5
q13 35 21.5 56t15.5 37q1 3 2.5 6.5t3.5 6.5q3 6 6 12.5t7 13.5q-13 3 -22.5 4.5t-17.5 2.5h-6h-6q-49 0 -83.5 -27t-34.5 -65q0 -19 12.5 -29t35.5 -11q15 -1 21.5 -5.5t6.5 -15.5q0 -3 -0.5 -5.5t-1.5 -4.5q-7 -26 -47.5 -49t-87.5 -28q-6 0 -11.5 -0.5t-10.5 -0.5
q-71 0 -117 45.5t-46 117.5q0 122 108.5 208.5t259.5 86.5q39 0 75.5 -6.5t72.5 -19.5q7 -2 14.5 -5t14.5 -6v0zM347 72q-8 4 -17.5 7.5t-19.5 6.5q-20 6 -38.5 10.5t-27.5 4.5q-14 0 -25 -9t-11 -22q0 -14 14 -24.5t33 -10.5q7 0 13.5 0.5t12.5 2.5q14 3 29 11t37 23v0z
M513 118q16 -5 26.5 -7.5t19.5 -3.5h5.5h5.5q59 0 102.5 55t43.5 129q0 38 -15 70t-45 57q-5 -9 -9 -15.5t-7 -13.5q-1 -1 -2 -2.5t-2 -3.5q-3 -6 -6 -13t-7 -17l-1.5 -3t-0.5 -2v0v0q-1 -2 -5.5 -14t-29.5 -75q-10 -24 -18 -42t-15 -34q-5 -9 -9.5 -17t-9.5 -16l-10 -16
t-11 -16v0z" />
    <glyph glyph-name="E" unicode="E" horiz-adv-x="893" 
d="M422 422l21 1q8 1 13 -3.5t5 -12.5q0 -2 -0.5 -4t-0.5 -4q-8 -25 -53.5 -46.5t-99.5 -25.5q-5 -1 -10 -1h-10q-76 0 -121.5 42.5t-45.5 112.5q0 83 68 140t166 57q21 0 43.5 -3.5t45.5 -10.5q21 -6 41.5 -15t39.5 -20q3 -2 6 -3.5t6 -3.5v0h1q12 -8 26.5 -17t42.5 -27
q29 16 57 27t56 18q18 4 36.5 6t37.5 2q71 0 119.5 -33.5t48.5 -82.5q0 -46 -37.5 -74t-100.5 -28q-12 0 -23.5 0.5t-22.5 2.5q-29 3 -61.5 13.5t-81.5 31.5q-5 -8 -8.5 -15t-5.5 -14q0 -3 -0.5 -6t-0.5 -7v-2.5v-2.5q1 -6 3 -13t6 -17q22 4 37 6t29 3q9 0 18 0.5t20 0.5
q48 0 73 -13t25 -39t-25.5 -41t-70.5 -15h-10.5h-9.5q-12 1 -28 3.5t-49 9.5q-18 -9 -31.5 -16t-23.5 -13q-8 -5 -14.5 -9.5t-12.5 -10.5q-2 -1 -3.5 -2.5l-3.5 -3.5q-13 -13 -23 -28.5t-16 -31.5q-4 -10 -6 -20t-2 -19q0 -28 20.5 -48t51.5 -20q29 0 48 16t19 39
q0 11 -7.5 20t-16.5 11h-1.5h-1.5h-0.5h-0.5h-0.5h-0.5l-29 -4q-1 0 -3.5 1.5t-4.5 4.5q-3 3 -4.5 6.5t-1.5 7.5q0 5 1.5 9.5t5.5 9.5q13 19 46.5 36t71.5 23q8 2 16 2.5t16 0.5q64 0 100.5 -37t36.5 -102q0 -103 -97.5 -172t-240.5 -69q-127 0 -204.5 58.5t-77.5 153.5
q0 68 38 129t102 95q7 4 13.5 7t12.5 7q13 6 26 11t28 10q11 4 24.5 8t28.5 8q-8 23 -11.5 37.5t-4.5 26.5v3v4q0 6 1 12t2 11q3 9 9 19t15 22q-13 4 -22.5 6.5t-18.5 2.5q-4 1 -7.5 1h-7.5q-34 0 -57.5 -16t-23.5 -40q0 -15 10 -25t23 -9v0zM704 519q28 -13 42.5 -18.5
t26.5 -6.5q3 -1 5.5 -1h5.5q14 0 22 5.5t8 15.5q0 11 -10.5 17.5t-28.5 6.5q-14 0 -24.5 -1.5t-19.5 -4.5q-7 -2 -13.5 -5.5t-13.5 -7.5v0z" />
    <glyph glyph-name="F" unicode="F" horiz-adv-x="864" 
d="M638 596l26 -12q1 -1 6.5 -3t12.5 -5q44 42 94 63t105 21q69 0 116.5 -31.5t47.5 -77.5q0 -48 -42.5 -80t-106.5 -32q-21 0 -47.5 3t-53.5 9q-21 4 -41.5 9.5t-38.5 11.5q-9 -16 -16.5 -29.5t-13.5 -26.5l-8 -22t-8 -23q4 -1 7 -1.5t5 -0.5q1 0 2 -0.5t2 -0.5
q6 -1 10.5 -1.5t8.5 -0.5q15 0 22.5 7t13.5 30q0 1 0.5 2.5t0.5 3.5q1 5 5.5 8t10.5 3q17 0 30.5 -24t13.5 -56q0 -42 -26 -71.5t-64 -29.5h-2.5h-2.5q-11 1 -25 4.5t-41 12.5q-5 -23 -9.5 -43t-9.5 -37q-11 -44 -23.5 -74t-29.5 -57q-3 -3 -5 -6.5t-4 -6.5
q-54 -77 -128 -116.5t-167 -39.5q-100 0 -162.5 55.5t-62.5 143.5q0 101 77 167.5t193 66.5q24 0 37 -6.5t13 -19.5v-0.5v-0.5v-2v-1q-1 -3 -4 -7l-12 -16q-3 -4 -6 -9t-4 -9q-2 -5 -3 -10t-1 -9q0 -22 19 -37t47 -15q46 0 80.5 32t56.5 94q-5 1 -9.5 1.5t-8.5 0.5h-2.5
h-3.5q-7 -1 -15 -5t-21 -13q-4 -4 -8.5 -5.5t-7.5 -1.5q-7 0 -11 6t-4 17q0 38 30.5 68.5t69.5 30.5q5 0 13 -0.5t16 -2.5q3 9 6.5 16.5t6.5 15.5q2 6 5 11.5t5 11.5q7 14 14.5 28t17.5 31q-43 14 -62 19.5t-32 6.5h-8h-8q-30 0 -50.5 -13.5t-20.5 -33.5v-1.5v-1.5
q1 -7 5.5 -13t10.5 -8q1 -1 2 -1h2h15q6 0 10.5 -4.5t4.5 -11.5q-1 -11 -11.5 -25.5t-30.5 -30.5q-8 -6 -15.5 -11t-15.5 -10q-23 -13 -47 -19.5t-51 -6.5q-62 0 -102.5 39t-40.5 100q0 81 65.5 136t160.5 55q34 0 70.5 -8.5t78.5 -25.5q5 -2 7 -3t4 -1v0v0q4 -2 11 -5
t34 -16l26 -13v0zM773 539q19 -6 31 -9t23 -4h4.5h4.5q17 0 27.5 6.5t10.5 18.5q0 8 -8.5 13.5t-19.5 5.5q-7 0 -12.5 -0.5t-11.5 -2.5q-11 -3 -22 -9.5t-27 -18.5v0z" />
    <glyph glyph-name="G" unicode="G" horiz-adv-x="1043" 
d="M413 439l26 1q5 0 8.5 -4.5t3.5 -10.5q0 -2 -0.5 -4t-0.5 -4q-7 -23 -44.5 -43t-80.5 -25q-5 0 -10 -0.5t-10 -0.5q-76 0 -122.5 42.5t-46.5 112.5q0 80 64.5 134t158.5 54h6.5h6.5q45 -2 91 -15t100 -39q3 -1 6 -2.5t5 -3.5q14 -7 32.5 -16t56.5 -30q37 22 80 37t88 22
q17 2 34 3.5t34 1.5q91 0 147.5 -35.5t56.5 -91.5q0 -53 -51.5 -94.5t-119.5 -41.5q-25 0 -53 5t-57 14l-28 9l-27 9l-28 9q-4 2 -11.5 4t-16.5 5q-28 -29 -45 -57.5t-24 -56.5q-2 -9 -3 -18.5t-1 -18.5q0 -36 23 -61t55 -25q47 0 85.5 38t72.5 120h156l-52 -234
q-34 -154 -162.5 -256t-287.5 -102q-118 0 -192.5 53.5t-74.5 138.5q0 61 47 107t110 46q27 0 44.5 -8.5t17.5 -22.5v-2.5v-2.5q-1 -3 -4 -8t-13 -20q-3 -4 -4.5 -9t-1.5 -11q0 -34 37 -58.5t89 -24.5q72 0 133.5 45t106.5 133q-32 -27 -58.5 -44t-51.5 -26q-18 -6 -36 -9
t-38 -3q-91 0 -151 60.5t-60 151.5q0 25 6.5 51t18.5 53q17 37 44.5 73t63.5 68q-28 7 -43.5 10t-28.5 4h-9h-9q-42 0 -66.5 -12.5t-24.5 -33.5q0 -13 9.5 -21.5t23.5 -8.5v0zM801 513q6 -2 11 -3.5t8 -3.5q32 -12 53 -17t39 -5q17 0 26.5 8t9.5 21q0 12 -15 20t-38 8
q-20 0 -44 -7t-50 -21v0z" />
    <glyph glyph-name="H" unicode="H" horiz-adv-x="991" 
d="M483 463h19q10 0 14.5 -5t4.5 -15q0 -13 -11.5 -28.5t-34.5 -31.5q-25 -18 -50.5 -29t-51.5 -16q-9 -1 -17.5 -2t-17.5 -1q-59 0 -99.5 43t-40.5 105q0 79 64 134.5t154 55.5q8 0 16 -0.5t15 -0.5q25 -3 55 -12t83 -29q12 -4 22 -8t20 -7q3 -1 5.5 -2t4.5 -2
q11 -3 22.5 -6.5t26.5 -8.5q15 12 33 20.5t36 13.5q11 2 21 3.5t19 1.5q25 0 42 -13t17 -33q0 -22 -16.5 -38.5t-45.5 -24.5q-14 -4 -31 -6.5t-42 -4.5q-3 -5 -6.5 -10.5t-6.5 -10.5q-6 -11 -11 -21.5t-10 -23.5q-6 -15 -12 -33.5t-13 -43.5q23 11 35.5 15.5t22.5 5.5h3.5
h2.5h4h4q8 -1 17 -5t24 -12q62 157 159 252t201 102h6.5h7.5q44 0 70.5 -20t26.5 -53q0 -25 -19 -43t-48 -18q-5 0 -13 1l-16 2q-3 0 -5 0.5t-4 0.5q-16 3 -28 4.5t-20 1.5q-45 0 -84 -33.5t-74 -103.5q-33 -65 -50.5 -124.5t-17.5 -106.5q0 -27 8.5 -43t21.5 -16h4t3 1
q4 0 9 4t17 14q2 2 4.5 2.5t5.5 0.5q11 0 16.5 -7.5t5.5 -21.5q0 -71 -50 -130t-110 -59q-43 0 -69 31t-26 83q0 14 1.5 31t4.5 34q2 17 5.5 32.5t7.5 29.5q3 11 5 21t2 17q0 17 -10.5 26t-30.5 9q-30 0 -50 -23t-35 -76q-6 -19 -11 -36.5t-11 -32.5q-16 -48 -34.5 -81
t-43.5 -62q-48 -56 -114.5 -87t-139.5 -31q-103 0 -166.5 56.5t-63.5 148.5q0 98 79 165.5t192 67.5q24 0 37 -7t13 -21v-0.5v-0.5v-2v-2q-1 -4 -4.5 -10.5t-17.5 -27.5q-2 -3 -3.5 -6t-2.5 -7q0 -2 -0.5 -4.5t-0.5 -4.5q0 -22 17 -37t42 -15q33 0 60 20t52 63
q12 21 22.5 42t18.5 42l11 28l12 29l11 28q3 7 6 13.5t6 13.5q4 8 8 16.5t8 16.5q6 10 13 20.5l15 22.5q-4 1 -7.5 1.5t-7.5 0.5q-22 4 -42.5 6t-32.5 2q-27 0 -43.5 -11t-16.5 -31q0 -9 5.5 -15.5t12.5 -6.5v0z" />
    <glyph glyph-name="I" unicode="I" horiz-adv-x="681" 
d="M640 256l-7 -34q-13 -76 -36.5 -132.5t-56.5 -95.5q-46 -56 -115 -87.5t-144 -31.5q-103 0 -172 59t-69 147q0 97 77.5 163t191.5 66q25 0 38.5 -8t13.5 -22v-5t-1 -3q-1 -4 -4 -7.5t-9 -9.5q-4 -4 -7 -9t-5 -9q-2 -5 -3 -9.5t-1 -9.5q0 -22 16 -36.5t41 -14.5
q27 0 52.5 15t43.5 40q4 5 7 10l6 10q3 4 5.5 9l5.5 11q11 21 24 56t38 107q6 17 10.5 29.5t9.5 22.5q2 6 4 10.5t4 9.5q4 8 8 15.5t9 16.5h-12.5t-9.5 1q-25 2 -41.5 2.5t-18.5 0.5q-24 0 -41.5 -13t-17.5 -31q0 -13 9 -18.5t29 -4.5q9 0 14 -4t5 -11q0 -8 -6.5 -19
t-16.5 -22q-5 -6 -10.5 -11.5t-12.5 -10.5q-17 -13 -37.5 -23.5t-42.5 -16.5q-14 -4 -28 -6.5t-27 -2.5q-59 0 -101.5 43t-42.5 103q0 80 63 134t156 54q12 0 21 -0.5t18 -1.5q19 -2 43.5 -9t75.5 -25l16.5 -5.5t14.5 -4.5q4 -1 8 -2.5t8 -2.5q7 -2 15 -4t17 -4
q18 20 41 30.5t48 10.5q29 0 47.5 -15.5t18.5 -39.5q0 -29 -26.5 -48.5t-73.5 -23.5q-8 -18 -14 -33t-12 -29q-2 -6 -4 -12.5t-5 -13.5q-1 -5 -2.5 -10t-3.5 -10q-8 -28 -14 -51.5t-9 -43.5l-7 -34l-6 -35v0z" />
    <glyph glyph-name="J" unicode="J" horiz-adv-x="715" 
d="M574 413l8 24q6 15 15.5 35t26.5 51h-5t-4 1h-3.5h-2.5q-6 0 -13.5 1l-22.5 3q-2 0 -4 0.5t-4 0.5q-7 0 -13 0.5t-11 0.5q-28 0 -44.5 -13.5t-16.5 -35.5q0 -11 6 -16t19 -5h4.5t3.5 1h5t4 1h3h2q8 0 12.5 -5.5t4.5 -15.5q0 -5 -1.5 -10.5t-4.5 -11.5q-14 -29 -56 -54
t-89 -33q-9 -1 -17.5 -2t-16.5 -1q-64 0 -109 46t-45 110q0 80 64.5 136t157.5 56h12t13 -1q28 -2 59 -10.5t78 -27.5q23 -9 37.5 -14.5t27.5 -9.5q1 -1 2.5 -1.5t2.5 -0.5q6 -2 12.5 -4.5t14.5 -4.5q28 20 52 31t47 15q7 1 14 1.5t14 0.5q33 0 54 -15.5t21 -40.5
q0 -37 -38 -55.5t-120 -21.5q-5 -9 -9 -17l-8 -16q-10 -23 -19 -46t-17 -52t-17 -65t-19 -84q-9 -45 -17 -79.5t-16 -61.5q-9 -34 -19.5 -59t-23.5 -47q-2 -4 -4.5 -8.5t-5.5 -8.5q-40 -68 -112 -107t-155 -39q-110 0 -179 63.5t-69 163.5q0 103 78 173.5t191 70.5
q26 0 41 -7.5t15 -20.5v-1.5v-0.5v-3v-2q-1 -4 -6 -9.5t-21 -20.5q-4 -4 -7 -10.5t-3 -14.5q0 -22 16.5 -36t40.5 -14q28 0 51.5 14t46.5 45q8 11 16 24t16 29q3 6 6.5 13.5t7.5 15.5q2 3 3 6.5t3 6.5l12 28t9 23l9 25l9 24v0z" />
    <glyph glyph-name="K" unicode="K" horiz-adv-x="946" 
d="M502 462l22 1q6 0 10.5 -5t4.5 -12q0 -14 -11 -29.5t-35 -33.5q-30 -24 -62.5 -36t-66.5 -12q-61 0 -105.5 43.5t-44.5 103.5q0 78 60.5 131.5t148.5 53.5q13 0 23.5 -0.5t20.5 -1.5q22 -3 48.5 -11.5t75.5 -26.5q10 -4 18.5 -7t17.5 -6q5 -2 10.5 -4t11.5 -3
q9 -3 18.5 -6t21.5 -6q12 10 23 17t22 11q11 5 22 7t23 2q27 0 43.5 -13t16.5 -36q0 -29 -27 -47t-71 -18h-9q-22 -40 -34.5 -73t-19.5 -65q28 4 47.5 12.5t38.5 23.5q3 3 7 6.5t8 7.5q16 16 28.5 33t21.5 35l39 72q35 66 74.5 97t87.5 31q39 0 64.5 -19t25.5 -49
q0 -22 -16 -39.5t-38 -17.5q-4 0 -10 1t-13 3q-8 3 -14.5 4.5t-10.5 1.5q-7 0 -13.5 -2.5t-12.5 -8.5q-6 -5 -12.5 -14t-13.5 -22q-6 -12 -15 -27t-19 -30q-3 -5 -6 -9l-6 -8q-9 -13 -17.5 -25t-15.5 -21q-1 -1 -1.5 -2t-1.5 -2q-15 -18 -31 -30.5t-39 -24.5q-6 -3 -13 -6
l-14 -6q55 -10 74.5 -37t20.5 -92q0 -16 4.5 -24t12.5 -9h3.5t4.5 1q3 2 5.5 2h4.5q8 0 12.5 -6t4.5 -15q0 -11 -6 -29t-17 -37q-2 -5 -5 -9.5t-6 -9.5q-22 -35 -52 -57.5t-62 -28.5q-5 -1 -10.5 -1.5t-11.5 -0.5q-37 0 -57 24t-20 70v2v2v9v7q1 10 4 25.5t12 57.5
q2 11 3.5 22.5t1.5 21.5q0 29 -12 42.5t-39 14.5h-7q-2 -7 -3.5 -11.5t-1.5 -6.5l-8 -32l-9 -33l-8 -32q-36 -141 -128 -222.5t-214 -81.5q-101 0 -169.5 59.5t-68.5 147.5q0 93 78.5 161.5t185.5 68.5q29 0 45.5 -8.5t16.5 -23.5v-4t-1 -4q-1 -3 -4.5 -7t-11.5 -12
q-7 -7 -11 -15.5t-4 -18.5q0 -22 15 -34t41 -12t51 14t44 40q14 20 26 41t21 43l12 30l11 29l12 29l6 14t5 13q3 6 5.5 12t5.5 11q7 17 16.5 34t23.5 40h-5.5t-4.5 1h-0.5h-0.5q-6 0 -14.5 0.5t-29.5 3.5h-3.5h-3.5q-8 1 -15.5 1.5t-13.5 0.5q-25 0 -41 -11t-16 -29
q0 -8 6 -15t12 -9h1.5h1.5v0z" />
    <glyph glyph-name="L" unicode="L" horiz-adv-x="891" 
d="M465 361q21 56 36.5 93.5t29.5 67.5q5 10 10 19.5t10 18.5q38 67 88.5 108t104.5 47q4 1 8.5 1h8.5q55 0 88.5 -33.5t33.5 -87.5v-6v-6q-6 -107 -103 -201.5t-233 -124.5q-3 -6 -5 -12t-4 -11q-1 -1 -1 -2t-1 -1q-2 -7 -5 -13t-6 -14q-7 -15 -11.5 -23.5t-7.5 -15.5
q-1 -2 -2 -3.5t-2 -3.5q-3 -3 -5.5 -7t-6.5 -9q4 -2 8.5 -4t8.5 -3q25 -10 49 -15.5t43 -5.5q25 0 43.5 16t18.5 37q0 15 -6.5 22t-26.5 12q-7 2 -10.5 7t-3.5 12q0 23 40.5 40.5t92.5 17.5q56 0 95 -38t39 -92q0 -79 -60.5 -130t-152.5 -51q-11 0 -21 0.5t-20 2.5
q-23 4 -48.5 13t-58.5 25q-3 1 -6 2.5t-6 3.5h-0.5h-0.5l-32 16t-53 27q-46 -41 -102 -63t-114 -22q-73 0 -119.5 36.5t-46.5 96.5q0 53 41.5 89t104.5 36q42 0 92 -13t113 -39q7 11 12 20.5t10 19.5q4 9 7 19l6 20q-112 14 -179.5 77.5t-67.5 154.5q0 77 51.5 133.5
t121.5 56.5q60 0 106.5 -45t46.5 -102q0 -15 -6.5 -23.5t-18.5 -8.5h-1h-1h-2.5h-2.5q-3 1 -7.5 5.5t-19.5 17.5q-5 4 -13 6.5t-17 2.5q-25 0 -40 -17t-15 -45q0 -40 24.5 -65t79.5 -44v0zM326 101q-9 4 -19.5 7.5t-20.5 6.5q-19 6 -36.5 10t-26.5 4q-14 0 -25 -9t-11 -22
q0 -14 14 -24t34 -10q7 0 13.5 0.5t13.5 2.5q14 3 28.5 11t35.5 23v0zM585 356l-2 -6q40 10 75.5 35.5t53.5 53.5q6 10 9 19.5t3 18.5q0 13 -9 21.5t-22 8.5q-3 0 -6.5 -0.5t-6.5 -1.5q-10 -3 -19.5 -11t-17.5 -19q-3 -4 -5 -6.5t-4 -5.5q0 -1 -0.5 -2t-1.5 -2
q-5 -8 -12.5 -25.5t-28.5 -65.5l-6 -12v0z" />
    <glyph glyph-name="M" unicode="M" horiz-adv-x="1133" 
d="M511 462l21 2v0h1v0v0q5 0 8 -4t4 -9v-0.5v-1.5q0 -8 -5 -18t-15 -20q-5 -6 -11.5 -12t-13.5 -11q-16 -12 -34.5 -21t-37.5 -16q-17 -6 -33.5 -9t-30.5 -3q-57 0 -98 43.5t-41 103.5q0 77 65.5 135.5t153.5 58.5h8.5h8.5q35 -2 73 -13t88 -33q30 -13 49 -19.5t35 -8.5
q6 0 11.5 -0.5t11.5 -0.5h8.5h7.5q2 1 4.5 1t5.5 1q8 1 14 1.5t10 0.5q14 0 21.5 -8.5t7.5 -23.5v-3.5v-3.5q-1 -4 -3 -11t-9 -28q-3 -9 -5.5 -21t-3.5 -24q-1 -8 -1.5 -15t-0.5 -14q0 -10 1 -25.5t2 -34.5q1 -12 1.5 -21t0.5 -17q1 -8 1 -16v-19q15 29 28.5 53t27.5 45
q20 32 41.5 57.5t46.5 49.5l2 2l2 2q8 8 17 15.5t17 14.5q40 33 78 52t64 19q15 0 24.5 -7.5t9.5 -21.5v-3.5v-3.5q-1 -6 -5 -14.5t-14 -25.5q-6 -10 -13 -24t-14 -30q-3 -7 -6.5 -15t-6.5 -15q-5 -11 -9 -22t-8 -21q-15 -40 -23 -73t-11 -65q0 -8 -0.5 -16t-0.5 -16
q0 -36 10.5 -57.5t28.5 -22.5q3 0 6.5 1t7.5 3q6 2 11 3.5t7 1.5q8 0 13 -7t5 -18q0 -5 -0.5 -10t-1.5 -10q-8 -58 -53.5 -106t-98.5 -56q-4 0 -8 -0.5t-8 -0.5q-43 0 -67.5 35t-24.5 97v6v6q2 70 25.5 142t72.5 158q-6 -5 -11.5 -9.5t-9.5 -9.5q-4 -3 -7.5 -7t-6.5 -8
q-5 -7 -10.5 -15t-12.5 -19q-5 -7 -9 -14.5t-8 -14.5q-3 -3 -5 -7l-4 -8q-9 -15 -18 -33t-20 -41l-17.5 -35l-14.5 -29q-2 -3 -4 -6.5t-4 -7.5q-7 -12 -14.5 -24.5t-17.5 -28.5q-11 -18 -20.5 -29t-18.5 -16q-4 -3 -8.5 -4t-9.5 -1q-14 0 -21 8t-7 24v2.5v2.5q0 6 1 13t3 25
q1 5 2 16t2 26q1 23 1.5 38.5t0.5 21.5q0 12 -0.5 26.5t-2.5 33.5q-1 20 -2 38.5t-1 26.5v11v10q1 8 2 16.5t2 21.5q-3 -5 -5 -10l-4 -10q-2 -4 -3.5 -8t-3.5 -8q-4 -11 -8 -25l-10 -35q-14 -53 -19 -71t-9 -30q-2 -9 -5.5 -23t-12.5 -47q-38 -132 -128.5 -205t-214.5 -73
q-100 0 -164.5 57t-64.5 145q0 99 74.5 166t183.5 67q35 0 55.5 -9t20.5 -26q0 -2 -0.5 -4t-1.5 -4q-1 -3 -4 -6t-9 -7q-6 -5 -11 -12t-8 -15q-1 -2 -1.5 -5t-0.5 -6q0 -20 18.5 -34.5t43.5 -14.5q20 0 36.5 7t32.5 23q20 21 40.5 57.5t46.5 94.5q21 46 32 70.5t20 40.5
q2 4 4 7.5t4 6.5q5 8 11.5 16.5t15.5 20.5q-31 9 -54.5 13.5t-39.5 4.5q-24 0 -40.5 -12.5t-16.5 -30.5q0 -9 5.5 -16.5t12.5 -7.5v0h1v0v0v0z" />
    <glyph glyph-name="N" unicode="N" horiz-adv-x="981" 
d="M847 -37l-144 -87q5 17 8 29.5t4 24.5q2 11 2.5 22t0.5 25q0 17 -2.5 39.5t-7.5 46.5q-1 7 -2.5 13.5t-2.5 12.5q-1 3 -1 4.5v2.5l-0.5 0.5l-0.5 0.5q0 2 -1.5 7.5t-8.5 27.5l-14 46q-1 4 -2 7.5t-2 6.5q-4 13 -8.5 30.5t-11.5 46.5q-4 -12 -7.5 -22t-7.5 -20
q0 -1 -0.5 -3t-1.5 -3l-10.5 -31.5t-12.5 -39.5q-14 -42 -25.5 -74.5t-23.5 -57.5q-14 -33 -30 -57t-36 -46q-44 -49 -109 -76.5t-136 -27.5q-106 0 -168.5 55t-62.5 148q0 56 24 100t73 78q26 18 56.5 31t62.5 20q13 2 26.5 3.5t26.5 1.5q24 0 40.5 -8.5t17.5 -20.5v-0.5
v-0.5v-2v-2q-1 -3 -5 -8.5t-18 -20.5q-4 -5 -6 -12t-2 -16q0 -24 18.5 -39.5t47.5 -15.5q25 0 46.5 11.5t41.5 38.5q14 18 28 44.5t30 62.5q10 23 17 39t14 30q0 2 0.5 3t1.5 2q5 12 11.5 25t14.5 30q6 11 9.5 18.5t7.5 13.5q1 1 1.5 2.5t1.5 2.5l4 6t5 7q-24 10 -40 14.5
t-30 5.5q-3 1 -6.5 1h-6.5q-25 0 -43 -12t-18 -29q0 -10 6.5 -17.5t14.5 -7.5v0h1v0v0l17 1h1v0q6 0 10.5 -5t4.5 -11q0 -13 -11 -27t-34 -31q-30 -22 -62.5 -33.5t-65.5 -11.5q-66 0 -107 38.5t-41 100.5q0 82 65.5 138t160.5 56q11 0 20 -0.5t18 -1.5q23 -3 48.5 -11.5
t66.5 -24.5q44 -17 70.5 -24.5t43.5 -7.5l42 1q17 0 26.5 -8t9.5 -22q0 -4 -2 -12t-5 -16q-10 -25 -14.5 -46.5t-4.5 -41.5v-10.5t1 -9.5q1 -17 8 -40.5t25 -75.5q0 -2 2 -7.5t4 -13.5q9 25 17 47t16 42q19 46 39 84t44 74q40 60 89.5 102t100.5 60q18 7 36 10t35 3
q45 0 74.5 -22.5t29.5 -56.5q0 -30 -22 -52t-52 -22h-6.5h-5.5q-6 1 -15 5t-32 14q-5 2 -11 3t-15 1q-33 0 -73 -36.5t-84 -106.5q-31 -50 -55 -112.5t-38 -128.5q-9 -40 -13.5 -79.5t-4.5 -74.5v-27v0z" />
    <glyph glyph-name="O" unicode="O" horiz-adv-x="726" 
d="M394 380l31 3q2 0 4.5 -1.5t4.5 -3.5q3 -3 4.5 -6.5t1.5 -7.5v-1.5v-1.5q-2 -19 -28.5 -34.5t-57.5 -15.5q-51 0 -88.5 40t-37.5 95q0 74 67 128t158 54q115 0 186 -81t71 -212q0 -181 -117.5 -308t-286.5 -127q-119 0 -192.5 71t-73.5 186q0 48 15 90t44 75
q12 13 24.5 24t24.5 19q15 8 29 13t27 5t21 -6t8 -14q0 -4 -2 -9t-5 -10q-6 -10 -10 -18t-6 -15q-1 -4 -1.5 -9t-0.5 -11q0 -49 34 -80t88 -31q71 0 127.5 60t56.5 135q0 50 -25 81.5t-64 31.5q-28 0 -48.5 -18.5t-20.5 -44.5q0 -12 6.5 -22.5t16.5 -17.5q1 -1 2.5 -1.5
t2.5 -1.5q3 -1 6 -1.5t4 -0.5v0z" />
    <glyph glyph-name="P" unicode="P" horiz-adv-x="909" 
d="M643 655h20q53 71 110 105.5t121 34.5q35 0 56.5 -15.5t21.5 -41.5q0 -27 -25 -49t-57 -22q-8 0 -11 1.5t-6 7.5q-1 3 -2 6.5t-2 8.5q0 1 -0.5 1.5l-0.5 0.5q-2 3 -7 5.5t-10 3.5h-2.5h-2.5h-5.5t-4.5 -1q-21 -2 -41 -16t-36 -37q94 -13 150 -73.5t56 -147.5
q0 -97 -59.5 -169t-141.5 -72q-50 0 -84.5 30.5t-34.5 75.5v4v4q2 32 16 59t30 31h1.5h1.5h1.5h1.5q4 0 7 -2t5 -6q1 -2 2 -4.5t2 -5.5q3 -8 10 -13t15 -5q23 0 42.5 27.5t21.5 60.5v3.5v2.5q0 41 -26 70.5t-70 38.5q-15 -36 -23.5 -56.5t-13.5 -38.5l-2 -6t-2 -5
q-1 -3 -1.5 -5.5t-1.5 -4.5q-6 -19 -12.5 -43.5t-14.5 -54.5l-20 -80l-9 -41q-41 -170 -135.5 -258.5t-233.5 -88.5q-95 0 -160 56t-65 138q0 95 79 166.5t185 71.5q25 0 40.5 -8.5t15.5 -22.5v-0.5v-0.5v-2v-2q-1 -3 -4.5 -8t-13.5 -18q-1 -2 -2.5 -4.5t-1.5 -4.5
q-1 -3 -1.5 -5.5t-0.5 -4.5q0 -19 16 -33t38 -14q9 0 17.5 2t18.5 5q18 7 35.5 19.5t30.5 29.5q6 8 12 17t11 19q9 15 17.5 36t19.5 50q10 26 15.5 42t11.5 28q0 2 1 3.5t1 3.5q7 17 17.5 38.5t30.5 64.5q1 2 3 7.5t6 12.5q-4 -1 -7 -1.5t-7 -1.5q-18 -3 -30 -7t-23 -10
q-3 -2 -5.5 -3t-4.5 -3q-9 -6 -17.5 -14.5t-13.5 -17.5q-4 -7 -6.5 -13.5t-2.5 -11.5q0 -7 2 -11t7 -8q4 -3 9 -5.5t13 -5.5q4 -1 6 -5t2 -9q-1 -10 -7 -23t-19 -28q-28 -32 -62 -49.5t-71 -17.5q-50 0 -85 31t-35 77q0 96 115 165.5t275 69.5v0z" />
    <glyph glyph-name="Q" unicode="Q" horiz-adv-x="839" 
d="M497 -47l-26 26q-1 2 -5.5 6.5t-12.5 11.5q-35 -12 -74.5 -20t-80.5 -12l-32 -2t-32 -1q-96 0 -152.5 36t-56.5 99q0 50 38.5 83t95.5 33q28 0 62 -6.5t70 -18.5q12 -5 24.5 -10t24.5 -10q1 -1 2.5 -1.5t2.5 -1.5q2 0 3 -0.5t2 -1.5q15 -7 33.5 -17t56.5 -31q24 16 41 28
t29 23q10 9 17.5 18.5t15.5 20.5q1 3 3 6l4 6q19 30 28 58t9 55q0 53 -30.5 87t-77.5 34q-35 0 -61.5 -22.5t-26.5 -53.5q0 -24 16 -41t38 -17h1.5h0.5h8t5 1q6 1 13 5.5t22 14.5q2 2 6 3t8 1q11 0 17.5 -7.5t6.5 -18.5v-4t-1 -4q-5 -41 -52.5 -76t-103.5 -39h-5.5h-5.5
q-77 0 -129 52.5t-52 129.5q0 125 94.5 206.5t239.5 81.5q134 0 219.5 -77.5t85.5 -199.5q0 -113 -67 -203t-196 -149l6 -4.5t4 -3.5h0.5h0.5q4 -3 14.5 -11.5t48.5 -37.5q50 -39 83.5 -56t61.5 -17q29 0 47.5 15t18.5 40q0 29 5.5 37.5t23.5 8.5q3 0 6.5 -0.5t6.5 -0.5
q37 -6 69 -43.5t36 -81.5q1 -3 1 -5.5v-5.5q0 -56 -45 -95.5t-110 -39.5q-16 0 -31 2t-30 6q-32 9 -66.5 30t-79.5 59q-25 20 -45 38t-37 35l-26 25l-26 25v0zM345 73q-35 22 -61 32t-48 10q-15 0 -23.5 -6.5t-8.5 -17.5q0 -15 18 -24t49 -9q12 0 21.5 0.5t18.5 2.5
q8 2 16 5t18 7v0z" />
    <glyph glyph-name="R" unicode="R" horiz-adv-x="909" 
d="M636 641h29q35 51 82.5 85.5t98.5 45.5q11 3 23 4.5t23 1.5q39 0 62.5 -16.5t23.5 -43.5q0 -26 -25 -47.5t-55 -21.5q-13 0 -17.5 4.5t-5.5 18.5q0 5 -7.5 9.5t-17.5 4.5q-17 0 -33.5 -7t-32.5 -22q-6 -5 -11.5 -10.5t-10.5 -12.5q82 -12 127 -49t45 -93q0 -38 -20 -71
t-54 -52q-4 -2 -7.5 -4t-7.5 -3q-15 -7 -32 -11t-44 -6q41 -5 57.5 -27t16.5 -72l-1 -30q0 -13 5 -20.5t14 -7.5q2 0 4 0.5t5 1.5q4 1 7.5 1.5t5.5 0.5q7 0 12 -6.5t5 -14.5q0 -10 -6 -28.5t-16 -37.5q-3 -5 -5.5 -10t-5.5 -10q-20 -34 -51 -58t-64 -31q-7 -2 -15 -3t-15 -1
q-31 0 -53 23.5t-22 59.5q0 17 6 51t16 78q4 15 6 29t2 23q0 19 -11.5 31.5t-29.5 12.5h-2h-2h-3.5t-4.5 -1q-4 -9 -6 -15t-3 -8l-10 -33l-10 -34l-11 -33q-44 -143 -140 -223t-224 -80q-91 0 -154.5 58.5t-63.5 141.5q0 92 78.5 161.5t182.5 69.5q31 0 47 -7.5t16 -21.5v-4
t-1 -3q0 -4 -4 -8.5t-13 -17.5q-2 -4 -3.5 -9t-1.5 -13q0 -21 14.5 -33.5t39.5 -12.5q4 0 8 0.5t9 0.5q20 4 40.5 16.5t38.5 32.5q1 1 2 2.5t2 2.5q7 8 13.5 17t12.5 19q11 19 23 45t28 67q6 15 11 26.5t10 22.5q0 1 0.5 2.5t1.5 2.5q9 20 20 44t32 68q-44 -7 -77.5 -27.5
t-40.5 -43.5q-1 -2 -1.5 -4.5t-0.5 -5.5q0 -10 6 -16.5t18 -9.5q9 -2 13 -5.5t4 -9.5q0 -7 -5.5 -19t-15.5 -25q-2 -2 -4 -4.5t-4 -5.5q-19 -22 -48 -37.5t-59 -20.5q-7 -1 -13.5 -1.5t-13.5 -0.5q-47 0 -81 32t-34 75v3.5v2.5q3 53 45 101.5t110 77.5q40 18 93.5 28.5
t109.5 13.5h13.5h12.5v0zM652 389q28 3 43 7t28 12q14 10 24.5 26.5t15.5 34.5q1 5 2 11t1 11q0 23 -14 37.5t-42 18.5q-6 -12 -10 -20.5t-7 -17.5q-1 -2 -2 -4.5t-2 -4.5q-5 -13 -11.5 -32t-17.5 -54q-1 -4 -3 -10.5t-5 -14.5v0z" />
    <glyph glyph-name="S" unicode="S" horiz-adv-x="917" 
d="M572 584q46 32 98 48t106 16q86 0 142 -38t56 -96q0 -52 -45.5 -84t-119.5 -32q-11 0 -21 0.5t-20 1.5q-24 3 -52 13.5t-80 32.5q-1 -5 -1.5 -8.5t-0.5 -6.5q0 -14 10.5 -28.5t31.5 -30.5q2 -1 2.5 -1.5t0.5 -1.5v0v0q1 -1 13.5 -8t78.5 -47q57 -35 83.5 -75.5
t26.5 -92.5q0 -118 -100 -190t-265 -72q-140 0 -225.5 59.5t-85.5 157.5q0 79 63.5 134.5t154.5 55.5h5.5h5.5q51 -3 94.5 -24.5t46.5 -47.5v-1.5v-1.5q0 -4 -0.5 -7t-2.5 -5q-2 -4 -8.5 -8t-19.5 -11q-10 -5 -16 -15t-6 -22q0 -22 20 -38.5t48 -16.5q33 0 55 18t22 46
q0 8 -1.5 15.5t-5.5 14.5q-8 15 -26 31t-51 39q-28 19 -48 36.5t-34 34.5q-17 21 -24.5 42t-7.5 44q0 8 0.5 15t1.5 13q3 14 9 29t17 36q-25 10 -40.5 14t-29.5 4q-23 0 -40 -14.5t-17 -34.5q0 -21 13.5 -34t36.5 -15q14 -1 19 -5.5t6 -13.5q1 -23 -39.5 -40.5t-93.5 -17.5
q-87 0 -139.5 43.5t-52.5 115.5q0 70 56 118t136 48h10t10 -1q29 -2 63 -13t90 -35q19 -8 32 -14t23 -11l4 -2t5 -2q5 -3 10.5 -6t12.5 -7v0zM703 517q34 -13 56.5 -20t35.5 -7q12 0 20.5 6.5t8.5 16.5q0 12 -15 20.5t-38 8.5q-9 0 -16.5 -1t-15.5 -4t-17 -7.5t-19 -12.5v0z
" />
    <glyph glyph-name="T" unicode="T" horiz-adv-x="802" 
d="M760 463l-26 6q-1 0 -7 1.5t-14 2.5q-5 -9 -9 -16.5t-8 -15.5q-5 -11 -9.5 -22.5t-8.5 -25.5q-5 -17 -11 -40.5t-13 -56.5q-17 -75 -28.5 -121.5t-21.5 -76.5q-8 -22 -16.5 -37.5t-18.5 -30.5l-8 -10l-8 -10q-51 -62 -126.5 -97.5t-160.5 -35.5q-100 0 -163 56t-63 145
q0 62 34 115.5t92 82.5q15 7 31 13t33 11q20 6 40 9t36 3q26 0 40 -6.5t14 -20.5v-4t-1 -4q-1 -4 -3.5 -8t-8.5 -11q-5 -7 -9 -13.5t-5 -12.5q-1 -3 -1.5 -6.5t-0.5 -6.5q0 -19 18 -34.5t40 -15.5h3.5h3.5q28 2 54.5 18t43.5 42q6 9 11.5 19t10.5 22q8 17 16.5 40t18.5 55
q5 16 9 27.5t7 21.5q2 5 4 9.5t4 9.5q6 14 15.5 31t26.5 46q-36 10 -55 14.5t-34 5.5q-4 1 -8 1h-8q-28 0 -47 -13t-19 -33q0 -15 7 -19.5t29 -5.5q6 0 9.5 -4t3.5 -11q0 -10 -7 -21t-22 -25q-34 -30 -68.5 -44.5t-73.5 -14.5q-61 0 -102.5 40t-41.5 101q0 77 66 132.5
t157 55.5q9 0 18 -0.5t18 -1.5q30 -3 63.5 -13.5t87.5 -33.5q20 -8 32.5 -14t23.5 -11q1 0 2 -0.5t2 -1.5q6 -3 12.5 -6t14.5 -7q45 41 96.5 62t109.5 21q67 0 114 -31.5t47 -77.5q0 -49 -42.5 -80t-110.5 -31q-22 0 -41 2t-37 6l-26 6l-27 6v0zM769 541q25 -7 40.5 -10
t27.5 -3q17 0 27 7t10 19q0 9 -8 14.5t-22 5.5q-9 0 -16.5 -1t-14.5 -4q-10 -4 -20.5 -10.5t-23.5 -17.5v0z" />
    <glyph glyph-name="U" unicode="U" horiz-adv-x="916" 
d="M803 598l74 -3q5 0 12 1t27 5q-1 -3 -2.5 -6.5t-2.5 -6.5q-3 -7 -5.5 -14t-5.5 -15q-9 -25 -19 -57.5t-24 -80.5q-22 -74 -30.5 -115.5t-8.5 -69.5q0 -25 9.5 -38.5t25.5 -13.5h3.5t3.5 1q3 0 6.5 1.5t7.5 2.5q6 3 11.5 4.5t8.5 1.5q8 0 12.5 -5.5t4.5 -14.5
q0 -11 -8 -30.5t-21 -40.5q-6 -10 -12.5 -19.5t-13.5 -18.5q-20 -25 -43.5 -42.5t-48.5 -24.5q-9 -4 -19 -5.5t-19 -1.5q-37 0 -60.5 26t-23.5 68v2v3q0 10 2 23t7 35q-18 -25 -29.5 -40.5t-21.5 -28.5l-4 -4l-4 -4q-3 -4 -6 -7t-6 -7q-20 -22 -44 -38t-48 -25
q-15 -6 -29.5 -9t-28.5 -3q-45 0 -75 29.5t-30 75.5v9t1 9q2 26 17 62t57 121q20 40 35.5 73.5t25.5 58.5t14.5 40t4.5 29v1.5v1.5q0 23 -13 35.5t-36 12.5q-38 0 -68.5 -33.5t-30.5 -74.5q0 -16 10 -27.5t23 -11.5q4 0 8 1l8 2l10.5 3.5t7.5 1.5q7 0 12.5 -6t5.5 -14
q0 -10 -9 -26t-25 -34q-31 -34 -65 -51t-70 -17q-61 0 -102 41t-41 101q0 122 101 216.5t231 94.5q85 0 138.5 -45t53.5 -116q0 -23 -6 -51.5t-17 -58.5q-2 -6 -4.5 -11.5t-4.5 -10.5l-9 -21l-9 -20l-9 -21q-11 -27 -18 -49.5t-7 -36.5q0 -16 10.5 -26t26.5 -10
q44 0 82.5 70t66.5 198q3 12 5 21t4 16q4 12 8 20t9 15q6 8 13.5 14.5t14.5 9.5q5 2 9.5 3t8.5 1v0z" />
    <glyph glyph-name="V" unicode="V" horiz-adv-x="841" 
d="M746 270l-20 -40q-35 -71 -91.5 -129.5t-117.5 -90.5q-28 -15 -56 -23t-54 -8q-25 0 -42.5 12.5t-17.5 31.5q0 5 3 13.5t10 23.5q0 1 0.5 1h0.5q0 1 3.5 9t27.5 56q11 21 20 44.5t16 47.5q10 34 15.5 66.5t5.5 59.5q0 47 -17.5 75t-47.5 28q-18 0 -31 -12.5t-13 -29.5
q0 -13 7.5 -21.5t20.5 -8.5q2 0 4.5 0.5t5.5 0.5q1 1 2.5 1.5t2.5 0.5t1.5 0.5t1.5 0.5q3 1 5 1.5t3 0.5q5 0 9.5 -5t4.5 -12q0 -5 -1 -10t-4 -10q-11 -27 -47 -50t-77 -31q-7 -1 -13.5 -1.5t-13.5 -0.5q-65 0 -109.5 49t-44.5 122q0 103 87.5 182t202.5 79q103 0 166 -66
t63 -173q0 -12 -0.5 -23.5t-1.5 -23.5q-6 -60 -30.5 -125.5t-72.5 -156.5q9 8 17 15t15 14q8 8 15.5 17t14.5 18q8 11 16 23t17 27q19 30 32.5 55t22.5 46l16 37l17 38l16 38q8 19 16.5 36.5t16.5 33.5q64 127 132 182.5t155 55.5q55 0 87.5 -23.5t32.5 -63.5q0 -31 -22 -55
t-51 -24q-7 0 -16.5 2t-20.5 5q-15 5 -27 8t-18 3q-7 0 -14 -1.5t-13 -3.5q-25 -10 -51 -38t-56 -78q-8 -13 -18.5 -32t-22.5 -40l-4 -8t-4 -7q-8 -15 -15 -29t-13 -27l-20 -40l-19 -39v0z" />
    <glyph glyph-name="W" unicode="W" horiz-adv-x="1096" 
d="M367 94l10 16q14 24 27 57.5t23 68.5q9 34 14.5 65.5t5.5 55.5q0 41 -18 66.5t-47 25.5q-19 0 -33 -12t-14 -29q0 -14 9.5 -23t23.5 -9h4.5t5.5 1q5 2 8 2.5t4 0.5q6 1 10.5 -4.5t4.5 -12.5q0 -4 -1 -8l-2 -8q-10 -27 -46.5 -50.5t-77.5 -30.5q-7 -1 -13.5 -1.5
t-12.5 -0.5q-65 0 -109.5 49t-44.5 121q0 103 86 179.5t201 76.5q104 0 167.5 -64t63.5 -168q0 -17 -1 -33.5t-4 -32.5q-7 -52 -28.5 -107t-59.5 -122q38 28 66.5 62t55.5 81q3 6 6 11t6 11q8 15 14.5 30t12.5 31q13 32 21 63t10 55q1 8 1.5 14.5t0.5 11.5q1 12 2.5 18
t3.5 11q1 1 1.5 2t1.5 2q8 11 17.5 16t22.5 5q47 0 80.5 -70.5t33.5 -167.5q0 -41 -7 -88.5t-21 -97.5q36 34 67 81t52 96q15 37 24 72.5t9 65.5q0 25 -8.5 38.5t-23.5 13.5q-9 0 -15 -5t-10 -16q-2 -5 -3.5 -8.5t-2.5 -5.5q-3 -6 -6.5 -7.5t-8.5 -2.5h-4t-4 1
q-19 5 -35.5 34.5t-19.5 63.5v4.5v5.5q0 59 38.5 96t99.5 37q68 0 108.5 -51t40.5 -137q0 -30 -4.5 -61.5t-13.5 -62.5q-35 -130 -123.5 -245.5t-187.5 -160.5q-24 -9 -47.5 -15t-46.5 -6q-26 0 -44.5 12.5t-18.5 31.5q0 8 4 21t11 29q14 32 25.5 78t17.5 97
q-8 -14 -15.5 -27.5t-15.5 -25.5q-22 -34 -44.5 -62t-51.5 -54l-2.5 -2.5l-2.5 -2.5q-11 -10 -21.5 -18.5t-21.5 -16.5q-41 -31 -80.5 -47t-71.5 -16q-25 0 -42 11t-17 29q0 7 3 16t9 19l10 17l9 17v0z" />
    <glyph glyph-name="X" unicode="X" horiz-adv-x="940" 
d="M645 493q50 104 127 164.5t161 60.5q50 0 80.5 -22.5t30.5 -60.5q0 -32 -20 -52.5t-51 -20.5h-1h-1h-4h-4q-6 1 -15 4.5t-33 14.5q-3 1 -5.5 2t-5.5 2q-5 2 -10.5 2.5t-11.5 0.5q-8 0 -16.5 -2t-16.5 -5q-46 -18 -85.5 -74t-52.5 -119q-2 -11 -3 -21.5t-1 -21.5
q0 -39 19 -63t50 -24q18 0 33.5 9t26.5 27q11 17 17 25t11 12q4 2 7.5 2.5t8.5 0.5q17 0 25 -14.5t8 -45.5q0 -112 -64.5 -197.5t-149.5 -85.5q-53 0 -84.5 35.5t-31.5 96.5q0 9 1 25t3 33q0 3 0.5 5.5t0.5 4.5q-17 -40 -32.5 -71t-29.5 -56q-14 -24 -28 -43.5t-30 -36.5
q-49 -56 -104.5 -84t-117.5 -28q-89 0 -147.5 59t-58.5 149q0 96 85 176t188 80q26 0 42 -8t16 -22v-0.5v-0.5v-2v-2q-1 -3 -4 -7.5t-13 -18.5q-1 -2 -2.5 -4.5t-2.5 -4.5q-1 -3 -1.5 -5.5t-0.5 -4.5q0 -15 13.5 -26t31.5 -11q5 0 10.5 0.5t11.5 2.5q45 12 84 61.5t49 106.5
q1 7 1.5 14.5t0.5 14.5q0 37 -19 60.5t-49 23.5q-21 0 -36.5 -12t-15.5 -29q0 -9 4 -12.5t18 -6.5q1 0 2.5 -0.5t3.5 -0.5q9 -1 13.5 -4.5t4.5 -9.5v-0.5v-0.5v-0.5v-0.5q-1 -25 -35.5 -45t-77.5 -20q-55 0 -88.5 34.5t-33.5 90.5q0 80 67.5 137t160.5 57q86 0 129 -45.5
t48 -141.5v0z" />
    <glyph glyph-name="Y" unicode="Y" horiz-adv-x="837" 
d="M572 397l-16 -34q-12 -25 -17.5 -43t-5.5 -31q0 -16 10 -25t26 -9q44 0 77 54.5t58 167.5q2 10 4.5 19t4.5 17q15 56 36.5 71.5t75.5 16.5q15 0 24.5 1t17.5 1l12 2t13 2q-18 -51 -28.5 -83t-18.5 -59q-2 -7 -3.5 -13t-3.5 -13q-8 -31 -18 -73.5t-26 -115.5
q-22 -100 -48.5 -169.5t-62.5 -124.5q-52 -82 -137 -127.5t-185 -45.5q-103 0 -170.5 53.5t-67.5 136.5q0 64 49 110t117 46q32 0 50 -9t18 -24q0 -4 -2 -10t-6 -12q-9 -14 -13 -20t-4 -11q-1 -2 -1 -4.5v-5.5q0 -27 25 -47t59 -20q67 0 125.5 53.5t104.5 159.5
q-53 -44 -93.5 -66t-78.5 -26q-4 -1 -8.5 -1h-9.5q-45 0 -75 27t-30 68v7.5t1 6.5q1 16 5.5 32.5t13.5 36.5q2 4 4 7.5t4 7.5l9 19l9 18l10 19q1 1 1.5 2t0.5 3q23 46 38 87t15 59q0 21 -14.5 35.5t-36.5 14.5q-3 0 -6 -0.5t-6 -0.5q-26 -5 -48.5 -28t-28.5 -49
q-1 -3 -1.5 -6.5t-0.5 -7.5q0 -15 10.5 -26t23.5 -11q4 0 8 1l8 2q7 3 12 4.5t8 1.5q8 1 13 -6t5 -17q0 -13 -9 -30t-24 -35q-4 -5 -9 -10l-10 -10q-29 -27 -59 -40t-63 -13q-59 0 -100.5 42t-41.5 103q0 121 101 216.5t228 95.5q84 0 138 -44.5t54 -112.5q0 -25 -6 -55
t-18 -64q-1 -3 -1.5 -5t-1.5 -3v0v0q-1 -3 -3 -8t-10 -23v0z" />
    <glyph glyph-name="Z" unicode="Z" horiz-adv-x="689" 
d="M333 328l32 18q17 10 32 19.5t29 18.5q40 26 70.5 53.5t57.5 59.5q-7 -2 -12.5 -3t-9.5 -1q-4 -1 -8.5 -1h-9.5h-13.5t-10.5 1q-10 0 -23 3.5t-44 10.5q-10 2 -19.5 3.5t-18.5 1.5q-23 0 -39.5 -15t-16.5 -37q0 -12 6 -19.5t18 -11.5l10.5 -3.5l7.5 -2.5q6 -3 7.5 -6
t1.5 -9q0 -21 -29.5 -38t-64.5 -18h-1.5h-1.5q-53 0 -90 37.5t-37 91.5q0 80 57.5 135t139.5 55q9 0 17.5 -0.5t16.5 -1.5q25 -3 52 -11t64 -24q55 -24 74.5 -31.5t31.5 -8.5h6h6h9t7 1q6 2 14 8t27 21q4 3 8.5 5t8.5 2q14 0 22 -12t8 -35v-6v-6q-3 -30 -18.5 -61t-46.5 -67
q-15 -18 -30.5 -33.5t-34.5 -30.5q-25 -21 -58 -42.5t-77 -47.5q-55 -32 -90 -59t-55 -53q-5 -6 -9.5 -12.5t-7.5 -13.5q17 15 31 25t28 16q13 6 27 8.5t31 2.5t37.5 -3t44.5 -11q17 -4 31.5 -7t23.5 -3q8 0 14 1t12 5q8 5 17 15.5t22 29.5q3 5 8.5 7.5t12.5 2.5
q15 0 23.5 -12.5t8.5 -33.5q0 -20 -5 -45t-15 -50q-7 -20 -16.5 -39.5t-20.5 -36.5q-34 -53 -77.5 -82t-91.5 -29q-18 0 -44.5 6t-54.5 17q-4 2 -9 4l-10 4q-3 1 -4 1.5t-2 0.5v0v0q-2 1 -13 7.5t-66 40.5q-22 13 -40.5 20t-30.5 7h-7.5t-6.5 -1q-5 -2 -12.5 -8t-22.5 -19
q-5 -5 -12 -7.5t-15 -2.5q-14 0 -22 9.5t-8 27.5q0 19 5 40.5t15 44.5q12 29 31 57.5t42 50.5q11 11 26.5 23t34.5 25q12 8 25 16t27 16l32 18l31 17v0z" />
    <glyph glyph-name="bracketleft" unicode="[" horiz-adv-x="350" 
d="M340 620l-131 -614q0 -2 -0.5 -4t-1.5 -4t-1 -4v-3q0 -5 4 -7.5t11 -2.5l30 -1q8 1 13 -3t5 -8v-1v0q0 -2 -0.5 -4l-1.5 -6l-12 -54l-0.5 -0.5t-0.5 -1.5q-4 -15 -11 -19.5t-26 -4.5l-154 -1q-12 1 -18 7t-6 19q0 3 0.5 7t1.5 9q0 2 0.5 3.5t0.5 3.5l166 779q5 25 16 35
t33 10h149q14 0 19 -2.5t5 -10.5v-5t-1 -6l-13 -57q0 -2 -0.5 -3.5t-1.5 -2.5q-3 -11 -7.5 -14t-16.5 -3h-30q-6 0 -9.5 -2t-6.5 -9q-1 -3 -2 -6.5t-2 -8.5v0z" />
    <glyph glyph-name="backslash" unicode="\" horiz-adv-x="300" 
d="M80 674l202 -728l0.5 -0.5l0.5 -0.5v-2.5v-1.5q0 -5 -3 -7.5t-9 -2.5l-46 -2q-11 1 -16 5.5t-9 20.5l-202 726q1 1 1 1.5v1.5q0 5 4.5 8.5t10.5 3.5h34q14 0 21 -5t11 -17v0z" />
    <glyph glyph-name="bracketright" unicode="]" horiz-adv-x="350" 
d="M144 7l130 613q2 9 2.5 11t0.5 3v1v1q0 5 -3.5 7.5t-11.5 2.5h-30q-7 0 -12 3.5t-5 9.5v5t1 6l13 53q4 17 10.5 22t26.5 5h154q12 0 18 -6t6 -19q0 -6 -0.5 -12t-2.5 -12l-165 -779q-5 -24 -16.5 -34t-32.5 -10l-149 -1q-14 1 -19.5 3.5t-5.5 8.5v0.5v0.5v0.5v0.5
q0 2 0.5 4.5t1.5 6.5l13 56q3 16 8 20t18 4l29 -1q6 1 9 2.5t6 7.5q1 3 2.5 6.5t3.5 9.5v0z" />
    <glyph glyph-name="asciicircum" unicode="^" horiz-adv-x="500" 
d="M142 361h-86l175 308h105l175 -308h-87l-141 245l-141 -245v0z" />
    <glyph glyph-name="underscore" unicode="_" horiz-adv-x="500" 
d="M-63 -63h500v-73h-500v73v0z" />
    <glyph glyph-name="grave" unicode="`" horiz-adv-x="500" 
d="M362 450l-15 -20q-3 -4 -6 -6.5t-7 -4.5q-2 -1 -4.5 -1.5t-4.5 -0.5q-4 0 -7.5 1.5t-7.5 3.5l-103 61q-7 4 -10.5 9.5t-3.5 11.5v2v2q1 2 2 4.5t5 7.5l19 27q2 3 6 5t8 3h2h2h0.5h1.5h2h2t4 -2l9 -6l99 -64q5 -4 8.5 -8.5t3.5 -9.5q0 -1 -0.5 -3t-0.5 -4q-1 -3 -2 -4.5
t-2 -3.5v0z" />
    <glyph glyph-name="a" unicode="a" horiz-adv-x="515" 
d="M477 326l-37 -166q-3 -13 -4.5 -21.5t-1.5 -13.5q-1 -10 8 -18.5t21 -8.5q4 0 7.5 0.5t6.5 1.5q2 0 3.5 0.5t3.5 1.5q8 3 14 4.5t10 1.5q6 0 11 -5.5t5 -12.5q0 -8 -5 -17.5t-15 -18.5l-5.5 -5.5t-5.5 -4.5q-19 -17 -41.5 -29t-45.5 -18q-12 -3 -24.5 -5t-24.5 -2
q-36 0 -59 22.5t-23 57.5v10.5t1 12.5q-18 -22 -27 -33.5t-17 -19.5q-1 -1 -2.5 -2t-2.5 -2q-2 -3 -4 -5t-5 -4q-11 -11 -24 -19t-27 -13q-10 -3 -19 -5t-18 -2q-44 0 -73 36.5t-29 94.5q0 101 68.5 183.5t151.5 82.5q29 0 53.5 -10.5t43.5 -32.5q27 19 42.5 27.5t29.5 11.5
q4 1 9 1.5t10 0.5q20 0 32 -10.5t12 -27.5q0 -3 -0.5 -8t-2.5 -11v0zM274 281q-21 1 -38.5 -19t-17.5 -46q0 -17 8.5 -27t24.5 -10q20 0 36.5 21.5t17.5 46.5v1.5v1.5q0 14 -8 22t-23 9v0z" />
    <glyph glyph-name="b" unicode="b" horiz-adv-x="469" 
d="M280 558l-43 -209q19 12 34 20t29 12q10 3 20.5 4t21.5 1q56 0 90 -35.5t34 -92.5q0 -108 -80.5 -188t-187.5 -80q-71 0 -116 38.5t-45 100.5q0 12 2 28t5 32l66 314q0 2 0.5 3t0.5 3q0 4 0.5 8.5t0.5 11.5q0 16 -4.5 23.5t-18.5 13.5q15 14 33 25.5t36 19.5
q17 7 33.5 11t31.5 4q25 0 42 -13.5t17 -33.5q0 -3 -0.5 -6.5t-0.5 -7.5q0 -2 -0.5 -3.5t-0.5 -3.5v0zM265 283q-22 0 -39 -21t-17 -49q0 -15 9 -25t22 -10q23 0 40.5 20.5t17.5 46.5q0 18 -8.5 28t-24.5 10v0z" />
    <glyph glyph-name="c" unicode="c" horiz-adv-x="423" 
d="M280 316q-37 -13 -55.5 -38t-18.5 -63q0 -42 24 -67t65 -25h11.5t9.5 1q9 1 21 6t40 18l6 2t5 2q5 1 9 1.5t8 0.5q12 0 18.5 -6.5t6.5 -19.5q0 -15 -12.5 -32t-38.5 -40q-26 -22 -53 -37t-54 -23q-16 -5 -32.5 -7.5t-32.5 -2.5q-76 0 -127.5 48.5t-51.5 118.5
q0 94 75.5 165.5t175.5 71.5q60 0 98 -29t38 -75q0 -34 -23 -57t-57 -23q-31 0 -50.5 18.5t-19.5 46.5q0 4 0.5 7.5t0.5 7.5q2 5 5 12t9 18v0z" />
    <glyph glyph-name="d" unicode="d" horiz-adv-x="518" 
d="M327 361l32 145q1 3 1.5 6t0.5 5q0 5 0.5 9t0.5 8q0 8 -1.5 13.5t-5.5 9.5q-3 3 -7 6t-10 7q32 24 55.5 36.5t45.5 16.5q8 2 15 2.5t15 0.5q29 0 45 -14t16 -40v-5v-4q-1 -2 -1 -3.5t-1 -3.5l-88 -398q0 -1 -0.5 -3t-1.5 -3q-1 -6 -1.5 -12t-0.5 -10q0 -13 8 -21.5
t20 -8.5q4 0 6.5 0.5t5.5 0.5q2 0 4 0.5t4 1.5q9 3 15.5 5t9.5 2q6 0 11 -5t5 -12q0 -15 -13 -31.5t-39 -33.5q-13 -9 -28 -16t-29 -12q-15 -4 -29.5 -6.5t-28.5 -2.5q-37 0 -60.5 22t-23.5 56v4.5t1 5.5v6v6q-26 -34 -48 -55.5t-44 -33.5q-14 -5 -27.5 -8.5t-27.5 -3.5
q-46 0 -73 35t-27 95q0 104 67.5 184.5t152.5 80.5q25 0 41 -4t31 -15q2 -1 3.5 -2.5t3.5 -2.5v0zM273 285q-22 2 -40.5 -21t-18.5 -52q0 -15 9.5 -25t22.5 -10q21 0 38.5 21t19.5 46v2.5v2.5q0 16 -8.5 25.5t-22.5 10.5v0z" />
    <glyph glyph-name="e" unicode="e" horiz-adv-x="437" 
d="M202 142v-5q0 -19 14.5 -30.5t36.5 -11.5q12 0 28 3.5t32 10.5q6 2 12 4.5t12 5.5l3 1.5t2 1.5q2 1 8.5 4.5t33.5 20.5q4 2 8 3.5t8 2.5q2 1 4 1h4q10 0 16.5 -6t6.5 -17q0 -16 -14 -35t-40 -40q-44 -34 -89.5 -51.5t-91.5 -17.5q-76 0 -124.5 45t-48.5 118
q0 95 79.5 166t185.5 71q57 0 93.5 -29t36.5 -75q0 -57 -60.5 -96.5t-155.5 -44.5v0zM212 232q41 6 60.5 17t19.5 28q0 10 -6 16.5t-15 6.5q-19 0 -35 -18t-24 -50v0z" />
    <glyph glyph-name="f" unicode="f" horiz-adv-x="352" 
d="M243 279l-66 -298q-7 -31 -25.5 -48.5t-46.5 -17.5l-45 -1q-9 1 -16 0t-14 -4t-15 -9t-17 -15l84 393h-22q-12 0 -19 8t-7 21v1v2l0.5 1l0.5 1l5 26q4 16 11 24t21 11q2 1 4.5 1.5t3.5 0.5q10 3 15.5 7t10.5 14q3 6 6 15.5t8 23.5q27 83 97 136t151 53q58 0 91 -25
t33 -68q0 -35 -24 -60.5t-57 -25.5q-29 0 -48.5 17.5t-19.5 43.5q0 3 0.5 6.5t0.5 6.5q2 5 4.5 11t6.5 14q-34 -7 -48.5 -25t-25.5 -67l-17 -77h78q16 0 24 -6.5t8 -18.5q0 -1 -0.5 -3.5t-0.5 -4.5q0 -1 -0.5 -2t-0.5 -2l-5 -26q-4 -16 -14.5 -25t-25.5 -9h-84v0z" />
    <glyph glyph-name="g" unicode="g" horiz-adv-x="485" 
d="M481 322l-60 -259q-16 -64 -37.5 -106.5t-56.5 -78.5q-31 -33 -70 -54t-80 -29q-10 -2 -21 -3t-21 -1q-63 0 -101 29.5t-38 77.5q0 30 16.5 52t53.5 42q2 -29 21 -46t47 -17q8 0 16 1.5t16 4.5q19 7 37 20.5t30 30.5q1 2 2.5 4t2.5 4q5 7 9.5 15.5t7.5 19.5q4 9 7 20.5
t7 25.5q-31 -34 -54 -53t-45 -26q-9 -4 -19 -5.5t-20 -1.5q-44 0 -72 36.5t-28 95.5q0 100 70 182.5t155 82.5q14 0 26 -2.5t24 -7.5q10 -5 21 -13t23 -19q28 20 47.5 29.5t37.5 10.5h2h2q20 0 32 -12t12 -31q0 -4 -0.5 -7.5t-0.5 -7.5q0 -1 -0.5 -2t-0.5 -2v0zM276 283
q-3 0 -5.5 -0.5t-5.5 -1.5q-16 -5 -30 -23t-17 -38q-1 -3 -1 -5.5v-4.5q0 -15 8.5 -24t22.5 -9q23 0 41.5 22.5t18.5 49.5q0 14 -9 23.5t-23 10.5v0z" />
    <glyph glyph-name="h" unicode="h" horiz-adv-x="522" 
d="M11 -26l115 533q2 10 3.5 18t1.5 12q0 11 -5 18t-18 13q17 16 37 28t41 19q15 5 29.5 8t27.5 3q26 0 41.5 -14t15.5 -39q0 -1 -0.5 -4t-0.5 -6q0 -1 -0.5 -3t-0.5 -3l-50 -226q37 25 58.5 37t39.5 16q9 2 17.5 2.5t18.5 0.5q42 0 67.5 -21t25.5 -56q0 -7 -0.5 -13.5
t-1.5 -12.5q0 -2 -0.5 -4t-1.5 -4l-25 -116q-2 -10 -3.5 -19t-1.5 -14q0 -13 9 -21.5t22 -8.5h4t5 1q2 0 4 0.5t4 1.5q9 4 15.5 6t9.5 2q6 0 10.5 -5t4.5 -12q0 -10 -10 -24t-27 -29q-3 -2 -5.5 -4t-5.5 -4q-20 -15 -41.5 -24t-43.5 -12q-8 -2 -15.5 -2.5t-14.5 -0.5
q-42 0 -69 22.5t-27 59.5q0 5 0.5 10.5t1.5 9.5l24 105q1 6 1.5 11t0.5 9q0 13 -7.5 20.5t-19.5 7.5q-23 0 -36.5 -17t-22.5 -58l-24 -112q-6 -28 -25.5 -43.5t-50.5 -15.5h-34q-10 0 -18.5 -1t-17.5 -4q-7 -3 -14.5 -8t-16.5 -12v-1z" />
    <glyph glyph-name="i" unicode="i" horiz-adv-x="283" 
d="M36 99l35 163q2 10 3 17.5t1 14.5q0 11 -5.5 19.5t-16.5 14.5q35 29 68.5 43.5t64.5 14.5q26 0 41 -12.5t16 -34.5v-10.5t-2 -10.5l-34 -159q0 -2 -0.5 -4t-1.5 -4q-1 -5 -1.5 -10t-0.5 -8q0 -16 8 -25.5t22 -9.5h3.5h2.5q3 1 6.5 2t5.5 2q9 4 15.5 6t10.5 2
q5 0 9.5 -4.5t4.5 -12.5q0 -9 -6 -20t-16 -22q-6 -5 -12 -10.5t-14 -10.5q-11 -7 -22.5 -13t-22.5 -11q-19 -7 -37 -11t-34 -4q-41 0 -67.5 22.5t-26.5 58.5q0 4 0.5 8.5t0.5 9.5q1 2 1.5 4.5t0.5 4.5v0zM203 574q35 0 56 -18.5t21 -48.5q0 -34 -34 -61t-79 -27
q-31 0 -50.5 18t-19.5 46q0 37 31.5 64t74.5 27v0z" />
    <glyph glyph-name="j" unicode="j" horiz-adv-x="271" 
d="M249 314l-65 -314q-1 -3 -2 -7l-2 -8q-11 -47 -23 -75.5t-31 -50.5q-25 -31 -62 -47.5t-77 -16.5q-50 0 -82 26t-32 67v1.5v1.5v4.5t1 5.5q16 -7 26 -10.5t19 -4.5h4h4q3 0 6 0.5t6 0.5q17 3 32.5 12.5t26.5 23.5q2 3 3 5t3 5q4 6 6.5 13t5.5 18q2 7 4 16t4 20l54 262
q2 11 3.5 20.5t1.5 13.5q0 3 -0.5 5.5t-1.5 5.5q-2 4 -7 8t-15 11q30 24 55 37t49 18q8 2 15 2.5t15 0.5q27 0 43 -13t16 -35q0 -3 -0.5 -7.5t-1.5 -9.5q0 -1 -0.5 -2.5t-0.5 -2.5v0zM210 574q35 0 56 -18.5t21 -48.5q0 -34 -34 -61t-79 -27q-31 0 -50.5 18t-19.5 46
q0 37 31.5 64t74.5 27v0z" />
    <glyph glyph-name="k" unicode="k" horiz-adv-x="512" 
d="M297 558l-63 -281q51 54 97.5 82t86.5 28t66 -24t26 -59q0 -34 -23 -58t-56 -24q-24 0 -42 15.5t-18 34.5q0 5 1.5 10.5t3.5 12.5q-3 -2 -5.5 -3.5t-5.5 -2.5q-7 -4 -13 -8.5t-11 -9.5q-6 -5 -11.5 -11t-11.5 -14q10 -27 24 -52t33 -50q10 -12 19 -21t17 -15
q12 -9 24 -12.5t26 -3.5h6.5t7.5 1q5 1 8.5 1.5t6.5 0.5q7 0 12 -5t5 -12q-1 -12 -11.5 -24.5t-32.5 -25.5q-31 -19 -59 -28.5t-52 -9.5q-22 0 -40 8t-35 29q-6 8 -13 18t-14 22q-9 15 -15.5 27.5t-11.5 24.5q-4 8 -8 17t-7 19l-21 -92q-7 -31 -26.5 -47t-51.5 -16h-32
q-11 0 -19.5 -0.5t-15.5 -3.5t-14 -8t-17 -12l115 531q0 2 0.5 4t0.5 4q1 5 1.5 10t0.5 8q0 12 -3.5 19t-12.5 14q-1 0 -2 0.5t-2 1.5q19 18 40.5 31t44.5 20q11 3 22 5t22 2q28 0 44.5 -14.5t16.5 -37.5v-4t-1 -4q0 -2 -0.5 -4t-0.5 -4v0z" />
    <glyph glyph-name="l" unicode="l" horiz-adv-x="280" 
d="M31 99l89 406q1 2 1.5 4t0.5 4q1 5 1.5 11t0.5 10q0 14 -4.5 20.5t-17.5 11.5q17 16 36.5 28.5t39.5 20.5q14 5 28 8t27 3q28 0 44.5 -14t16.5 -37v-4.5t-1 -4.5q0 -3 -0.5 -5.5t-0.5 -4.5l-91 -410q0 -2 -0.5 -3.5t-0.5 -3.5q0 -3 -0.5 -6.5t-0.5 -7.5q0 -12 8.5 -19.5
t21.5 -7.5h4.5t5.5 1q2 0 4.5 1t4.5 2q8 3 14 5t9 2q7 1 12 -4.5t5 -12.5v0v0v-1v0q-1 -10 -9 -22.5t-23 -25.5q-4 -4 -8.5 -7.5t-9.5 -7.5q-18 -12 -38 -20.5t-41 -12.5q-10 -2 -19 -3t-18 -1q-41 0 -67.5 23t-26.5 60v6.5t1 6.5q0 3 0.5 6t1.5 6v0z" />
    <glyph glyph-name="m" unicode="m" horiz-adv-x="754" 
d="M16 -27l64 287q1 3 1 6t1 5q1 6 1.5 12t0.5 10q0 15 -4.5 22.5t-17.5 13.5q17 14 33.5 25t34.5 18q17 8 34 11.5t33 3.5q26 0 41 -15t16 -43q29 23 51 36t42 19q10 3 20.5 4t21.5 1q35 0 57.5 -15.5t30.5 -44.5q22 18 42.5 30t40.5 19q14 5 28.5 7.5t29.5 2.5
q40 0 65.5 -22t25.5 -57q0 -5 -0.5 -9.5t-0.5 -8.5q-1 -2 -1 -4.5t-1 -4.5l-27 -128q0 -1 -0.5 -2t-0.5 -2l-2 -12t-1 -9q0 -13 8.5 -22t20.5 -9h4.5t5.5 1q2 0 4.5 1t4.5 2q8 3 14 5t10 2q6 0 10.5 -5t4.5 -12q-1 -11 -10 -24.5t-26 -27.5q-3 -3 -6.5 -5.5t-7.5 -5.5
q-19 -14 -40 -22.5t-43 -12.5l-16 -2t-16 -1q-42 0 -68.5 22.5t-26.5 58.5q0 3 0.5 6.5t0.5 7.5q1 2 1.5 3.5t0.5 3.5l24 104q2 5 2.5 10t0.5 9q0 16 -7 23.5t-21 7.5q-19 0 -31 -15t-20 -50l-24 -113q-7 -34 -26 -51.5t-48 -17.5h-42q-10 0 -17.5 -0.5t-14.5 -3.5
q-8 -3 -15.5 -8.5t-17.5 -13.5l49 223q1 3 1.5 6t0.5 6q1 3 1 6.5v8.5q0 11 -7 18t-18 7q-19 0 -32 -16t-21 -51l-25 -113q-8 -38 -26 -53.5t-54 -15.5h-33q-13 0 -22 -0.5t-17 -4.5q-6 -3 -13 -8t-16 -13v-1z" />
    <glyph glyph-name="n" unicode="n" horiz-adv-x="526" 
d="M16 -23l63 285q2 13 3.5 22.5t1.5 15.5q0 11 -5 18.5t-17 13.5q38 29 70.5 42.5t63.5 13.5q29 0 43.5 -13.5t16.5 -42.5q33 29 67.5 43t69.5 14q40 0 65 -22.5t25 -58.5q0 -4 -0.5 -10t-1.5 -11q0 -2 -0.5 -4t-1.5 -4l-29 -125q-2 -10 -3.5 -16.5t-1.5 -11.5
q-1 -11 8 -19t23 -8q5 0 9.5 1t8.5 2q9 3 16 5t10 2q7 0 11 -5t4 -13q0 -13 -13.5 -29.5t-37.5 -33.5q-22 -15 -47.5 -24t-51.5 -11q-4 -1 -8.5 -1h-8.5q-43 0 -67.5 22t-24.5 59q0 3 0.5 6.5t0.5 7.5q1 1 1.5 3t0.5 4l22 106q0 1 0.5 2.5t0.5 2.5q1 5 1.5 9.5t0.5 7.5
q0 12 -7.5 19t-20.5 7q-19 0 -33 -16t-21 -45l-27 -120q-7 -31 -26.5 -49t-45.5 -18h-42q-17 0 -28.5 -2.5t-22.5 -9.5q-4 -2 -7 -4.5t-7 -5.5v-1z" />
    <glyph glyph-name="o" unicode="o" horiz-adv-x="441" 
d="M268 385q74 0 118.5 -44.5t44.5 -116.5q0 -98 -69 -166t-169 -68q-72 0 -118.5 45t-46.5 115q0 98 70 166.5t170 68.5v0zM252 286q-20 0 -36.5 -20.5t-16.5 -46.5q0 -19 9.5 -30.5t24.5 -11.5q21 0 37.5 20.5t16.5 47.5q0 18 -9.5 29.5t-25.5 11.5v0z" />
    <glyph glyph-name="p" unicode="p" horiz-adv-x="487" 
d="M-36 -225l128 559q2 10 3.5 19t1.5 13q0 7 -2 12t-6 10q-3 3 -6 5.5t-7 5.5q28 21 50.5 34t44.5 18q10 3 19.5 4t19.5 1q28 0 44 -12.5t14 -33.5q0 -5 -0.5 -10.5t-2.5 -12.5l-7 -36q17 12 31.5 19.5t28.5 11.5q10 3 19.5 4t20.5 1q53 0 86.5 -37.5t33.5 -97.5
q0 -106 -57.5 -184.5t-134.5 -78.5q-28 0 -49.5 8.5t-40.5 28.5q-3 2 -5.5 5t-5.5 6l-36 -161q-8 -37 -26.5 -53.5t-50.5 -16.5l-43 -1q-9 1 -16 0t-13 -4q-8 -3 -16 -9t-19 -16zM280 285h-4h-3q-18 -4 -33.5 -24t-16.5 -44v-1.5v-1.5q0 -16 9.5 -26t24.5 -10
q22 0 38.5 21.5t16.5 49.5q0 16 -8.5 25.5t-23.5 10.5v0z" />
    <glyph glyph-name="q" unicode="q" horiz-adv-x="489" 
d="M191 -227l68 297q-29 -34 -53 -52.5t-46 -25.5q-8 -3 -16 -4t-16 -1q-43 0 -71.5 36t-28.5 94q0 103 69.5 185t156.5 82q30 0 52.5 -10.5t41.5 -33.5q20 17 38 27t36 13q5 1 9.5 1.5t8.5 0.5q17 0 29 -11.5t13 -29.5v-7.5t-1 -8.5l-108 -456q-8 -34 -27 -49.5t-54 -15.5
l-33 -1q-12 1 -21.5 -1t-17.5 -6q-5 -2 -9 -5t-9 -7q-1 -2 -4 -4.5t-7 -5.5v-1zM272 281q-22 0 -39.5 -21t-17.5 -50q0 -16 9 -26t23 -10q23 0 41 23t18 52q0 16 -8.5 24t-25.5 8v0z" />
    <glyph glyph-name="r" unicode="r" horiz-adv-x="421" 
d="M16 -25l62 289q1 4 1.5 8t0.5 8q1 3 1 7v8q0 10 -2.5 16t-9.5 11q-2 2 -4 3.5t-5 3.5q15 13 34 24.5t39 19.5q16 6 31.5 9.5t28.5 3.5q26 0 41.5 -12.5t15.5 -34.5v-2v-2q0 -4 -1 -10.5t-3 -21.5q22 21 31.5 29.5t16.5 14.5q1 0 1.5 0.5l0.5 0.5q2 2 4 3.5t5 3.5
q10 7 22 13t24 9q10 3 19 4.5t17 1.5q34 0 54.5 -20t20.5 -52q0 -46 -31.5 -80.5t-72.5 -34.5q-23 0 -41 14.5t-18 33.5q0 3 0.5 6.5t1.5 8.5q-38 -22 -60 -56t-35 -90l-9 -41q-8 -35 -28 -53.5t-49 -18.5h-39q-9 0 -17 -1t-15 -4q-8 -3 -16 -7.5t-17 -11.5v-1z" />
    <glyph glyph-name="s" unicode="s" horiz-adv-x="385" 
d="M230 386q65 0 109 -24t44 -60q0 -19 -14.5 -34t-34.5 -15q-3 0 -6.5 0.5t-6.5 1.5q-10 2 -20 9.5t-25 20.5q-13 13 -22 18.5t-17 5.5t-14 -4.5t-6 -11.5t5.5 -14.5t15.5 -15.5q1 0 1 -0.5v-0.5q1 0 6.5 -3t37.5 -21q38 -21 57.5 -47t19.5 -58q0 -64 -55 -104t-142 -40
q-70 0 -115 27.5t-45 71.5q0 28 17.5 46.5t43.5 18.5q9 0 16 -1t14 -4q11 -5 23 -16.5t31 -31.5q3 -4 6.5 -7t7.5 -6q9 -7 17.5 -10.5t15.5 -3.5q8 0 15 6.5t7 14.5v5.5t-1 4.5q-3 6 -14.5 14.5t-42.5 28.5q-28 18 -45.5 32t-27.5 27q-9 13 -13 26.5t-4 30.5q0 51 47.5 87
t113.5 36v0z" />
    <glyph glyph-name="t" unicode="t" horiz-adv-x="321" 
d="M257 379h48q15 0 22.5 -6.5t7.5 -19.5q0 -36 -12 -53.5t-37 -17.5h-52l-1.5 -4.5t-0.5 -3.5v0v0l-3 -12t-8 -37q-1 -6 -4 -18.5t-7 -29.5q-3 -11 -4.5 -21.5t-1.5 -19.5q0 -19 11.5 -30t33.5 -11q8 0 17.5 2.5t22.5 7.5q7 3 13 4.5t10 1.5q7 0 11.5 -4.5t4.5 -12.5
q0 -11 -9.5 -24.5t-28.5 -28.5q-3 -2 -6 -4.5t-7 -4.5q-21 -15 -47 -24.5t-52 -12.5q-7 -1 -13.5 -1.5t-13.5 -0.5q-51 0 -85 28t-34 71v8v8q2 14 7.5 34t22.5 71q4 13 6.5 22t5.5 18l2 8t2 9q0 3 0.5 6t1.5 6q-18 2 -26.5 10t-8.5 24q0 3 0.5 5.5t0.5 5.5q4 13 21.5 30.5
t63.5 56.5q48 41 79 60t47 19q11 0 18 -6.5t6 -16.5q0 -5 -1.5 -11t-4.5 -14q-1 -3 -2.5 -7t-2.5 -8q-1 -3 -2 -6.5t-2 -6.5q-3 -11 -5.5 -21.5t-3.5 -16.5v0z" />
    <glyph glyph-name="u" unicode="u" horiz-adv-x="517" 
d="M476 316l-34 -157q-2 -10 -3.5 -18.5t-1.5 -12.5q0 -13 8 -21.5t20 -8.5q5 0 10 1.5t11 3.5q7 3 13 4.5t10 1.5q6 0 11 -5t5 -11q0 -8 -5 -17.5t-13 -18.5q-6 -7 -14 -14t-17 -13q-14 -10 -29.5 -17.5t-31.5 -12.5t-31.5 -7.5t-29.5 -2.5q-36 0 -58 18t-24 49
q-15 -13 -31 -24.5t-33 -19.5q-22 -12 -43 -17.5t-40 -5.5q-38 0 -65 22.5t-27 54.5q0 5 0.5 9.5t1.5 9.5l37 178q2 7 2.5 13.5t0.5 11.5q0 11 -4 18.5t-14 14.5l-3 1.5l-3 1.5q10 8 20 15t21 14q24 14 48 22t44 8q27 0 42.5 -14.5t15.5 -40.5v-6v-4q0 -1 -0.5 -1.5
t-0.5 -1.5l-29 -139q-1 -6 -2 -11.5t-1 -8.5q0 -12 7.5 -19t19.5 -7q21 0 34 14.5t21 46.5l17 72q0 1 0.5 2.5t0.5 2.5q2 6 2.5 12t0.5 10q0 10 -3.5 16t-12.5 12q-2 2 -5 3.5t-6 2.5q33 26 61 40t55 18q5 0 10 0.5t10 0.5q26 0 41.5 -14t15.5 -38v-4t-1 -4q0 -2 -0.5 -4
t-0.5 -4v0z" />
    <glyph glyph-name="v" unicode="v" horiz-adv-x="433" 
d="M41 136l29 128q2 9 3 16.5t1 11.5q0 10 -3 17t-10 15q-3 2 -6 4.5t-6 4.5q15 12 31 22t32 17q20 9 39 13.5t37 4.5q25 0 40 -16t15 -42q0 -2 -0.5 -4.5t-0.5 -5.5q0 -1 -0.5 -2t-0.5 -2l-33 -149q-1 -4 -1.5 -8t-1.5 -8v-4v-4q0 -16 10 -25.5t27 -9.5q36 0 61.5 34.5
t41.5 105.5q-7 -1 -13 -2t-9 -1q-26 0 -43 17t-17 44q0 35 26 59t63 24q39 0 63 -26.5t24 -69.5q0 -19 -3.5 -40.5t-9.5 -42.5q-12 -40 -33 -78t-47 -64q-30 -30 -67.5 -49t-76.5 -24q-7 -1 -14.5 -1.5t-14.5 -0.5q-61 0 -98 31.5t-37 83.5q0 7 1 13.5t2 12.5v0z" />
    <glyph glyph-name="w" unicode="w" horiz-adv-x="672" 
d="M41 130l30 138q0 2 0.5 4t0.5 4q1 5 1.5 10t0.5 8q0 9 -1.5 15t-5.5 11q-3 3 -6.5 6t-8.5 6q12 10 24.5 19t26.5 16q20 11 39.5 17.5t34.5 6.5q30 0 48.5 -15t18.5 -38q0 -3 -0.5 -6.5t-1.5 -7.5l-36 -167q-1 -7 -2 -12.5t-1 -8.5q0 -11 9 -19t23 -8q19 0 31.5 14
t19.5 42l24 103q2 10 3.5 19t1.5 14q0 4 -0.5 7t-2.5 6q-3 4 -8 8t-14 10q13 11 27 20.5t28 16.5q21 10 40.5 15.5t37.5 5.5q26 0 42.5 -15t16.5 -40q0 -2 -0.5 -4.5t-0.5 -5.5q0 -1 -0.5 -2.5t-0.5 -2.5l-34 -155q0 -2 -0.5 -4.5t-0.5 -4.5q-1 -3 -1 -5.5v-4.5q0 -17 9 -27
t25 -10q35 0 62 38t38 101q-7 -1 -12 -2.5t-9 -1.5q-25 -1 -41.5 16.5t-16.5 43.5q0 36 26.5 60t65.5 24q37 0 59.5 -26t22.5 -68q0 -19 -3.5 -39.5t-9.5 -41.5q-11 -39 -32 -76.5t-48 -66.5q-35 -38 -78.5 -57t-93.5 -19q-34 0 -56 10t-42 37q-1 1 -2 2.5t-2 2.5l-14 -10
t-13 -9q-28 -16 -56 -23.5t-59 -7.5q-52 0 -89 31t-37 74q0 7 1 14.5t2 14.5v0z" />
    <glyph glyph-name="x" unicode="x" horiz-adv-x="477" 
d="M135 273l-38 -2q-8 -1 -15 6t-7 15q0 5 1.5 10t3.5 11q10 22 35.5 41t54.5 27q6 1 12.5 2t12.5 1q34 0 52.5 -15.5t25.5 -49.5q17 34 46 51.5t65 17.5q32 0 55 -21t23 -50q0 -18 -10 -30.5t-24 -12.5q-4 0 -8.5 0.5t-11.5 1.5q-5 1 -10 1.5t-10 0.5q-28 0 -47 -18
t-19 -45q0 -22 17.5 -38.5t40.5 -16.5q8 0 16.5 1.5t17.5 4.5q10 4 19 6t14 2q11 0 17 -7t6 -19t-4.5 -26t-13.5 -29q-6 -10 -13 -19.5t-16 -18.5q-31 -33 -62 -49t-63 -16q-40 0 -59 21t-21 72q-24 -47 -53.5 -70.5t-65.5 -23.5q-44 0 -69 28.5t-25 80.5q0 38 11 61t30 23
h3.5h2.5q4 -1 10.5 -4t24.5 -11q3 -1 6.5 -2.5t6.5 -1.5q3 -1 6.5 -1.5t6.5 -0.5q24 0 43 21.5t19 47.5q0 15 -11 28t-24 15h-2.5h-2.5v0z" />
    <glyph glyph-name="y" unicode="y" horiz-adv-x="488" 
d="M477 316l-58 -271q-24 -114 -100.5 -181.5t-182.5 -67.5q-62 0 -99 28.5t-37 75.5q0 27 9.5 46t34.5 36q5 4 10.5 7t11.5 7q7 -30 26.5 -45.5t49.5 -15.5q40 0 71 29.5t46 80.5q-32 -21 -56.5 -32.5t-47.5 -14.5q-7 -1 -13 -1.5t-12 -0.5q-42 0 -67 23t-25 63
q0 5 0.5 12.5t2.5 15.5q0 3 0.5 6t1.5 6l32 146q1 2 1 4t1 4q0 4 0.5 8.5t0.5 7.5q0 6 -1 10.5t-3 9.5q-2 4 -6.5 8.5t-12.5 10.5q33 25 59 38t50 18q7 1 14 1.5t14 0.5q24 0 40 -14t16 -36q0 -4 -0.5 -9.5t-2.5 -13.5l-28 -130q-2 -7 -3 -12.5t-1 -9.5q-1 -11 7.5 -19.5
t19.5 -8.5q20 0 33 14t20 45l17 73q1 2 1 4.5t1 4.5q1 5 1.5 10t0.5 8q0 10 -2.5 16t-8.5 12q-2 2 -4.5 4t-5.5 4q34 28 66 42t61 14q26 0 42 -12.5t17 -34.5v-12t-2 -12v0z" />
    <glyph glyph-name="z" unicode="z" horiz-adv-x="374" 
d="M180 229l15 11l8 6t8 5q3 3 5.5 5t5.5 5q5 4 10.5 10t12.5 13q-5 -3 -9.5 -5t-9.5 -4q-9 -4 -18.5 -5.5t-19.5 -1.5q-6 0 -12 1t-13 2q-8 2 -15 3.5t-9 1.5q-6 0 -11 -1t-9 -4q-6 -4 -12.5 -11.5t-16.5 -21.5q-3 -4 -8 -6t-10 -2q-10 0 -17.5 8t-7.5 19v0.5v0.5q0 4 2 13
t8 41q9 44 29.5 62.5t60.5 18.5h8.5t8.5 -1q19 -1 42 -6.5t64 -17.5q9 -2 17 -3.5t14 -1.5h5t4 1q4 1 9.5 4.5t17.5 12.5q3 2 6.5 3.5t7.5 1.5q11 0 19 -10.5t8 -27.5q0 -10 -2.5 -21t-7.5 -22q-4 -9 -9.5 -18t-12.5 -18q-3 -3 -5 -6t-5 -6q-2 -3 -4.5 -5.5l-5.5 -5.5
q-9 -9 -22.5 -19.5t-39.5 -27.5q-13 -9 -24 -17.5t-20 -16.5q-10 -8 -18.5 -17t-16.5 -19q-5 -5 -9.5 -11.5t-9.5 -13.5q11 7 19 11t15 6q5 1 10 1.5t12 0.5h10t8 -1h4t4 -1q9 -1 16 -2t11 -1h6t5 1q4 2 9 8t16 19q4 5 9 7t12 2q9 0 16 -7t7 -17v-3v-2q0 -5 -2 -13t-7 -33
q-13 -53 -33.5 -76.5t-55.5 -23.5h-2.5h-2.5q-7 0 -18.5 2.5t-45.5 10.5q-8 2 -11 3t-5 1l-6 2t-12 2l-12 4l-12 4q-3 1 -6 1.5t-6 1.5q-10 3 -20 5t-17 2q-3 0 -6.5 -0.5t-6.5 -1.5q-5 -1 -11 -5t-14 -10q-7 -5 -13 -8t-11 -3q-10 0 -15.5 8.5t-5.5 23.5q0 25 8 47t27 44
q8 10 18.5 19.5t22.5 19.5q9 7 26 19.5t37 26.5q3 2 6.5 4.5t6.5 4.5l15 10l15 11v0z" />
    <glyph glyph-name="braceleft" unicode="{" horiz-adv-x="433" 
d="M364 581l-24 -112q-11 -51 -25.5 -78t-48.5 -49q-10 -7 -22.5 -13.5t-27.5 -14.5q17 -11 28.5 -20t19.5 -18q10 -13 14 -26.5t4 -32.5q0 -9 -2 -24.5t-6 -33.5l-24 -113q-4 -17 -6 -31.5t-2 -20.5q0 -27 16 -44.5t44 -21.5q20 -3 27 -8.5t7 -15.5q0 -19 -14 -27.5
t-43 -8.5q-94 0 -137.5 31.5t-43.5 99.5q0 15 2 35t6 40q0 3 0.5 6t1.5 6l22 100q2 11 3 20t1 17q0 11 -2 19.5t-7 17.5q-6 8 -16 17.5t-26 21.5q-4 2 -8.5 6t-11.5 9q8 5 15 8.5l11 5.5q16 9 28 17t22 15q20 16 29.5 34t15.5 47l21 101q26 121 87.5 170t185.5 49
q17 0 26 -6t10 -17q1 -16 -10 -24t-37 -13q-1 0 -2.5 -0.5t-2.5 -0.5q-22 -5 -41 -16t-30 -25q-5 -8 -9.5 -18t-8.5 -25q-3 -7 -5 -15.5t-4 -19.5v0z" />
    <glyph glyph-name="bar" unicode="|" horiz-adv-x="500" 
d="M223 667h80v-834h-80v834v0z" />
    <glyph glyph-name="braceright" unicode="}" horiz-adv-x="433" 
d="M110 46l24 113q1 3 1.5 5.5t0.5 4.5q10 43 23 67t41 44q11 8 25.5 16.5t32.5 17.5q-14 9 -25 17t-18 15q-13 14 -18 28.5t-5 35.5q0 10 2 25.5t6 33.5l24 112q4 17 6 32t2 22q0 27 -16 44.5t-44 21.5q-19 3 -26.5 8t-7.5 16q0 19 14 27.5t43 8.5q94 0 137.5 -32
t43.5 -100q0 -16 -2 -36t-6 -41q-1 -2 -1 -4.5t-1 -5.5l-22 -101q-1 -10 -2.5 -18.5t-1.5 -15.5q0 -14 2.5 -24t9.5 -19q6 -8 15.5 -16.5t23.5 -19.5q4 -2 8.5 -5.5t11.5 -8.5q-8 -5 -14.5 -9t-11.5 -6q-18 -10 -31.5 -19t-23.5 -17q-17 -15 -25.5 -32t-14.5 -45l-21 -100
q-25 -120 -86.5 -169.5t-183.5 -49.5q-19 0 -28 6t-10 17q-1 16 9.5 24t36.5 13q3 1 6.5 1.5t6.5 1.5q19 5 36 15.5t27 23.5q6 7 10 17.5t8 23.5q3 8 5 17t4 19v0z" />
    <glyph glyph-name="asciitilde" unicode="~" horiz-adv-x="667" 
d="M230 580l-47 30q8 17 16 30.5t15 25.5q23 34 48 48t58 14q22 0 47 -7.5t66 -25.5q36 -16 53 -22.5t30 -7.5q3 -1 6.5 -1h6.5q17 0 30.5 5.5t26.5 18.5q8 8 15.5 18t15.5 24l47 -28q-29 -59 -63.5 -87t-79.5 -28q-11 0 -30 4.5t-39 11.5q-2 0 -3.5 0.5t-2.5 1.5
q-1 0 -1.5 0.5t-1.5 0.5v0v0q-1 0 -9.5 3.5t-55.5 24.5q-18 8 -34.5 12.5t-27.5 4.5q-19 0 -33.5 -8t-28.5 -26q-6 -7 -12 -16.5t-12 -20.5v0z" />
    <glyph glyph-name="Adieresis" unicode="&#xc4;" horiz-adv-x="968" 
d="M707 522q-11 2 -19.5 3.5t-16.5 2.5q-5 1 -10 1h-11q-41 0 -66 -13t-26 -35q-1 -10 7 -16t25 -8q9 -1 14 -5t5 -11v-0.5v-0.5v-0.5v-0.5q0 -3 -0.5 -5.5t-1.5 -4.5q-3 -8 -9 -16t-16 -17q-34 -28 -70 -43t-73 -15q-65 0 -107.5 39.5t-42.5 99.5q0 76 65 133t151 57
q38 0 83.5 -10t105.5 -33q46 -16 69 -23t42 -8q3 -1 6.5 -1h7.5h10.5t9.5 1q5 0 9.5 0.5t10.5 1.5q13 2 23.5 3.5t15.5 1.5q20 0 34 -12.5t14 -30.5v-1.5v-1.5v-3.5v-3.5q-1 -7 -7 -17.5t-24 -43.5q-14 -24 -26 -59.5t-22 -72.5q-7 -31 -11.5 -61t-4.5 -53q0 -34 13.5 -57.5
t32.5 -23.5q4 0 8 1t9 2q5 2 9 3t7 1q8 0 14 -7.5t6 -17.5q0 -57 -45 -104t-99 -49h-1.5h-1.5q-49 0 -75.5 32.5t-26.5 91.5q0 12 2 29.5t5 36.5q0 1 0.5 3t0.5 4q0 3 0.5 5t0.5 4v2.5v2.5q0 11 -8.5 18.5t-20.5 7.5q-14 0 -24 -6.5t-19 -23.5q-5 -7 -9 -17t-9 -23
q-4 -10 -12.5 -29t-19.5 -39q-1 -3 -2.5 -6l-2.5 -5l-2 -4l-2 -4q-47 -94 -129 -146.5t-183 -52.5q-99 0 -163 54.5t-64 137.5q0 68 42 129.5t111 96.5q11 6 23 10.5t25 8.5q20 7 39.5 10.5t35.5 3.5q19 0 31 -7.5t12 -18.5v-0.5v-0.5v-3v-3q-1 -3 -5 -8.5t-15 -20.5
q-4 -5 -6 -11.5t-2 -14.5q0 -21 18.5 -36t44.5 -15q10 0 20 1.5t19 5.5q37 14 77 60.5t100 142.5q20 31 32.5 50t23.5 34q2 3 4.5 5.5t4.5 5.5q7 8 14.5 16.5t17.5 19.5v0zM677 310q8 3 13 4t9 1h1.5h1.5h3.5h3.5q6 -1 11.5 -2.5t13.5 -4.5q5 18 11.5 37.5t14.5 39.5
q12 32 25.5 63.5t27.5 58.5q-31 -29 -58.5 -65t-48.5 -73q-9 -15 -16 -30t-13 -29v0zM760 807q25 0 42.5 -17.5t17.5 -42.5t-17.5 -42.5t-42.5 -17.5t-42.5 17.5t-17.5 42.5t17.5 42.5t42.5 17.5v0zM928 807q25 0 42.5 -17.5t17.5 -42.5t-17.5 -42.5t-42.5 -17.5t-42.5 17.5
t-17.5 42.5t17.5 42.5t42.5 17.5v0z" />
    <glyph glyph-name="Aring" unicode="&#xc5;" horiz-adv-x="968" 
d="M707 522q-11 2 -19.5 3.5t-16.5 2.5q-5 1 -10 1h-11q-41 0 -66 -13t-26 -35q-1 -10 7 -16t25 -8q9 -1 14 -5t5 -11v-0.5v-0.5v-0.5v-0.5q0 -3 -0.5 -5.5t-1.5 -4.5q-3 -8 -9 -16t-16 -17q-34 -28 -70 -43t-73 -15q-65 0 -107.5 39.5t-42.5 99.5q0 76 65 133t151 57
q38 0 83.5 -10t105.5 -33q46 -16 69 -23t42 -8q3 -1 6.5 -1h7.5h10.5t9.5 1q5 0 9.5 0.5t10.5 1.5q13 2 23.5 3.5t15.5 1.5q20 0 34 -12.5t14 -30.5v-1.5v-1.5v-3.5v-3.5q-1 -7 -7 -17.5t-24 -43.5q-14 -24 -26 -59.5t-22 -72.5q-7 -31 -11.5 -61t-4.5 -53q0 -34 13.5 -57.5
t32.5 -23.5q4 0 8 1t9 2q5 2 9 3t7 1q8 0 14 -7.5t6 -17.5q0 -57 -45 -104t-99 -49h-1.5h-1.5q-49 0 -75.5 32.5t-26.5 91.5q0 12 2 29.5t5 36.5q0 1 0.5 3t0.5 4q0 3 0.5 5t0.5 4v2.5v2.5q0 11 -8.5 18.5t-20.5 7.5q-14 0 -24 -6.5t-19 -23.5q-5 -7 -9 -17t-9 -23
q-4 -10 -12.5 -29t-19.5 -39q-1 -3 -2.5 -6l-2.5 -5l-2 -4l-2 -4q-47 -94 -129 -146.5t-183 -52.5q-99 0 -163 54.5t-64 137.5q0 68 42 129.5t111 96.5q11 6 23 10.5t25 8.5q20 7 39.5 10.5t35.5 3.5q19 0 31 -7.5t12 -18.5v-0.5v-0.5v-3v-3q-1 -3 -5 -8.5t-15 -20.5
q-4 -5 -6 -11.5t-2 -14.5q0 -21 18.5 -36t44.5 -15q10 0 20 1.5t19 5.5q37 14 77 60.5t100 142.5q20 31 32.5 50t23.5 34q2 3 4.5 5.5t4.5 5.5q7 8 14.5 16.5t17.5 19.5v0zM677 310q8 3 13 4t9 1h1.5h1.5h3.5h3.5q6 -1 11.5 -2.5t13.5 -4.5q5 18 11.5 37.5t14.5 39.5
q12 32 25.5 63.5t27.5 58.5q-31 -29 -58.5 -65t-48.5 -73q-9 -15 -16 -30t-13 -29v0zM854 864q39 0 66.5 -27.5t27.5 -65.5q0 -39 -27.5 -66.5t-66.5 -27.5t-66.5 27.5t-27.5 66.5q0 38 27.5 65.5t66.5 27.5v0zM854 811q-17 0 -29 -11.5t-12 -28.5t12 -29t29 -12t29 12
t12 29t-12 28.5t-29 11.5v0z" />
    <glyph glyph-name="Ccedilla" unicode="&#xc7;" horiz-adv-x="1055" 
d="M547 -220q0 1 0.5 1h0.5v0v0q2 0 4.5 -1.5t13.5 -7.5q4 -2 8 -3t8 -1q12 0 22 9.5t10 21.5q0 11 -8.5 17.5t-23.5 5.5q-8 -1 -12 1t-4 7v1.5v1.5q1 3 7 8t25 19q7 4 12.5 7.5t11.5 5.5q6 3 13 4t15 1q43 0 70 -23t27 -59q0 -39 -31.5 -64.5t-79.5 -25.5h-4h-4
q-35 3 -64 21t-31 39v1.5v1.5q0 5 4 8.5t10 3.5v-1zM611 612l30 -16q2 -1 8.5 -4t16.5 -8q50 21 89.5 33.5t77.5 17.5q17 3 35 4t37 1q92 0 147 -35t55 -94q0 -54 -45.5 -91.5t-110.5 -37.5q-42 0 -93.5 16t-128.5 53q-53 -42 -84 -96.5t-34 -112.5v-4.5v-5.5
q0 -51 26.5 -81t71.5 -30q37 0 63 22t26 53q0 20 -15.5 34t-38.5 14h-5.5t-4.5 -1q-2 0 -4.5 -0.5t-5.5 -0.5q-6 -1 -10.5 -2t-7.5 -1q-10 0 -17 7t-7 17q0 4 1 8.5t4 9.5q13 25 53.5 47.5t86.5 29.5q9 1 17.5 2t17.5 1q71 0 115.5 -42.5t44.5 -110.5q0 -126 -103.5 -218
t-244.5 -92q-81 0 -139 26.5t-99 80.5q-28 39 -42.5 84t-14.5 93q0 87 44 171.5t129 160.5q-23 6 -39.5 9t-32.5 4q-6 1 -12 1h-13q-44 0 -69.5 -15t-25.5 -41v-2v-2q2 -9 8.5 -16.5t13.5 -8.5h1.5h1.5l38 3h1.5h0.5q7 -1 12 -7t5 -14q0 -28 -49 -51.5t-107 -24.5h-1.5h-1.5
q-72 0 -117.5 43t-45.5 111q0 82 66.5 140t160.5 58q14 0 27.5 -1t26.5 -3q26 -4 54 -13.5t63 -25.5q5 -3 7.5 -4t4.5 -2q4 -1 12 -5.5t38 -19.5l31 -15v0zM818 514q42 -17 63.5 -23t39.5 -7h3.5h2.5q16 0 26 7.5t10 18.5q0 13 -12 21t-31 8q-8 0 -15.5 -0.5t-14.5 -1.5
q-14 -2 -30 -7t-42 -16v0z" />
    <glyph glyph-name="Eacute" unicode="&#xc9;" horiz-adv-x="893" 
d="M422 422l21 1q8 1 13 -3.5t5 -12.5q0 -2 -0.5 -4t-0.5 -4q-8 -25 -53.5 -46.5t-99.5 -25.5q-5 -1 -10 -1h-10q-76 0 -121.5 42.5t-45.5 112.5q0 83 68 140t166 57q21 0 43.5 -3.5t45.5 -10.5q21 -6 41.5 -15t39.5 -20q3 -2 6 -3.5t6 -3.5v0h1q12 -8 26.5 -17t42.5 -27
q29 16 57 27t56 18q18 4 36.5 6t37.5 2q71 0 119.5 -33.5t48.5 -82.5q0 -46 -37.5 -74t-100.5 -28q-12 0 -23.5 0.5t-22.5 2.5q-29 3 -61.5 13.5t-81.5 31.5q-5 -8 -8.5 -15t-5.5 -14q0 -3 -0.5 -6t-0.5 -7v-2.5v-2.5q1 -6 3 -13t6 -17q22 4 37 6t29 3q9 0 18 0.5t20 0.5
q48 0 73 -13t25 -39t-25.5 -41t-70.5 -15h-10.5h-9.5q-12 1 -28 3.5t-49 9.5q-18 -9 -31.5 -16t-23.5 -13q-8 -5 -14.5 -9.5t-12.5 -10.5q-2 -1 -3.5 -2.5l-3.5 -3.5q-13 -13 -23 -28.5t-16 -31.5q-4 -10 -6 -20t-2 -19q0 -28 20.5 -48t51.5 -20q29 0 48 16t19 39
q0 11 -7.5 20t-16.5 11h-1.5h-1.5h-0.5h-0.5h-0.5h-0.5l-29 -4q-1 0 -3.5 1.5t-4.5 4.5q-3 3 -4.5 6.5t-1.5 7.5q0 5 1.5 9.5t5.5 9.5q13 19 46.5 36t71.5 23q8 2 16 2.5t16 0.5q64 0 100.5 -37t36.5 -102q0 -103 -97.5 -172t-240.5 -69q-127 0 -204.5 58.5t-77.5 153.5
q0 68 38 129t102 95q7 4 13.5 7t12.5 7q13 6 26 11t28 10q11 4 24.5 8t28.5 8q-8 23 -11.5 37.5t-4.5 26.5v3v4q0 6 1 12t2 11q3 9 9 19t15 22q-13 4 -22.5 6.5t-18.5 2.5q-4 1 -7.5 1h-7.5q-34 0 -57.5 -16t-23.5 -40q0 -15 10 -25t23 -9v0zM704 519q28 -13 42.5 -18.5
t26.5 -6.5q3 -1 5.5 -1h5.5q14 0 22 5.5t8 15.5q0 11 -10.5 17.5t-28.5 6.5q-14 0 -24.5 -1.5t-19.5 -4.5q-7 -2 -13.5 -5.5t-13.5 -7.5v0zM704 748l99 64q6 4 9 5.5t4 2.5h3h3h2h2q5 -1 9 -3.5t6 -4.5l18 -27l4.5 -7.5t2.5 -4.5v-2v-2q0 -6 -3.5 -11.5t-10.5 -9.5l-103 -61
q-4 -3 -7.5 -4t-6.5 -1h-3t-3 1q-5 1 -9.5 4.5t-7.5 7.5l-15 20q-1 1 -1.5 2.5t-1.5 2.5q-1 3 -1.5 5.5t-0.5 4.5t0.5 3.5t1.5 2.5q1 3 4 6.5t6 5.5v0z" />
    <glyph glyph-name="Ntilde" unicode="&#xd1;" horiz-adv-x="981" 
d="M847 -37l-144 -87q5 17 8 29.5t4 24.5q2 11 2.5 22t0.5 25q0 17 -2.5 39.5t-7.5 46.5q-1 7 -2.5 13.5t-2.5 12.5q-1 3 -1 4.5v2.5l-0.5 0.5l-0.5 0.5q0 2 -1.5 7.5t-8.5 27.5l-14 46q-1 4 -2 7.5t-2 6.5q-4 13 -8.5 30.5t-11.5 46.5q-4 -12 -7.5 -22t-7.5 -20
q0 -1 -0.5 -3t-1.5 -3l-10.5 -31.5t-12.5 -39.5q-14 -42 -25.5 -74.5t-23.5 -57.5q-14 -33 -30 -57t-36 -46q-44 -49 -109 -76.5t-136 -27.5q-106 0 -168.5 55t-62.5 148q0 56 24 100t73 78q26 18 56.5 31t62.5 20q13 2 26.5 3.5t26.5 1.5q24 0 40.5 -8.5t17.5 -20.5v-0.5
v-0.5v-2v-2q-1 -3 -5 -8.5t-18 -20.5q-4 -5 -6 -12t-2 -16q0 -24 18.5 -39.5t47.5 -15.5q25 0 46.5 11.5t41.5 38.5q14 18 28 44.5t30 62.5q10 23 17 39t14 30q0 2 0.5 3t1.5 2q5 12 11.5 25t14.5 30q6 11 9.5 18.5t7.5 13.5q1 1 1.5 2.5t1.5 2.5l4 6t5 7q-24 10 -40 14.5
t-30 5.5q-3 1 -6.5 1h-6.5q-25 0 -43 -12t-18 -29q0 -10 6.5 -17.5t14.5 -7.5v0h1v0v0l17 1h1v0q6 0 10.5 -5t4.5 -11q0 -13 -11 -27t-34 -31q-30 -22 -62.5 -33.5t-65.5 -11.5q-66 0 -107 38.5t-41 100.5q0 82 65.5 138t160.5 56q11 0 20 -0.5t18 -1.5q23 -3 48.5 -11.5
t66.5 -24.5q44 -17 70.5 -24.5t43.5 -7.5l42 1q17 0 26.5 -8t9.5 -22q0 -4 -2 -12t-5 -16q-10 -25 -14.5 -46.5t-4.5 -41.5v-10.5t1 -9.5q1 -17 8 -40.5t25 -75.5q0 -2 2 -7.5t4 -13.5q9 25 17 47t16 42q19 46 39 84t44 74q40 60 89.5 102t100.5 60q18 7 36 10t35 3
q45 0 74.5 -22.5t29.5 -56.5q0 -30 -22 -52t-52 -22h-6.5h-5.5q-6 1 -15 5t-32 14q-5 2 -11 3t-15 1q-33 0 -73 -36.5t-84 -106.5q-31 -50 -55 -112.5t-38 -128.5q-9 -40 -13.5 -79.5t-4.5 -74.5v-27v0zM766 702h-32q-10 0 -16 6.5t-6 16.5q0 32 28 57.5t63 25.5h9.5t8.5 -1
q11 -2 25 -8.5t44 -21.5q3 -1 5.5 -2.5t5.5 -1.5q3 -1 5.5 -1.5t5.5 -0.5q4 0 6.5 0.5t4.5 1.5q3 2 6 6.5t8 13.5q3 5 8.5 6.5t16.5 1.5h26q13 0 20.5 -6t6.5 -16q-2 -31 -29 -56.5t-58 -28.5h-3.5h-2.5q-5 0 -9.5 0.5t-8.5 0.5q-12 2 -26 8.5t-40 20.5l-4 2l-4 2
q-5 2 -10.5 3.5t-10.5 1.5q-4 0 -7.5 -1.5t-6.5 -4.5q-2 -2 -3.5 -4t-3.5 -5q-1 -2 -2.5 -4t-2.5 -4q-4 -4 -8 -6t-9 -2v0z" />
    <glyph glyph-name="Odieresis" unicode="&#xd6;" horiz-adv-x="726" 
d="M394 380l31 3q2 0 4.5 -1.5t4.5 -3.5q3 -3 4.5 -6.5t1.5 -7.5v-1.5v-1.5q-2 -19 -28.5 -34.5t-57.5 -15.5q-51 0 -88.5 40t-37.5 95q0 74 67 128t158 54q115 0 186 -81t71 -212q0 -181 -117.5 -308t-286.5 -127q-119 0 -192.5 71t-73.5 186q0 48 15 90t44 75
q12 13 24.5 24t24.5 19q15 8 29 13t27 5t21 -6t8 -14q0 -4 -2 -9t-5 -10q-6 -10 -10 -18t-6 -15q-1 -4 -1.5 -9t-0.5 -11q0 -49 34 -80t88 -31q71 0 127.5 60t56.5 135q0 50 -25 81.5t-64 31.5q-28 0 -48.5 -18.5t-20.5 -44.5q0 -12 6.5 -22.5t16.5 -17.5q1 -1 2.5 -1.5
t2.5 -1.5q3 -1 6 -1.5t4 -0.5v0zM405 807q25 0 42.5 -17.5t17.5 -42.5t-17.5 -42.5t-42.5 -17.5t-42.5 17.5t-17.5 42.5t17.5 42.5t42.5 17.5v0zM573 807q25 0 42.5 -17.5t17.5 -42.5t-17.5 -42.5t-42.5 -17.5t-42.5 17.5t-17.5 42.5t17.5 42.5t42.5 17.5v0z" />
    <glyph glyph-name="Udieresis" unicode="&#xdc;" horiz-adv-x="916" 
d="M803 598l74 -3q5 0 12 1t27 5q-1 -3 -2.5 -6.5t-2.5 -6.5q-3 -7 -5.5 -14t-5.5 -15q-9 -25 -19 -57.5t-24 -80.5q-22 -74 -30.5 -115.5t-8.5 -69.5q0 -25 9.5 -38.5t25.5 -13.5h3.5t3.5 1q3 0 6.5 1.5t7.5 2.5q6 3 11.5 4.5t8.5 1.5q8 0 12.5 -5.5t4.5 -14.5
q0 -11 -8 -30.5t-21 -40.5q-6 -10 -12.5 -19.5t-13.5 -18.5q-20 -25 -43.5 -42.5t-48.5 -24.5q-9 -4 -19 -5.5t-19 -1.5q-37 0 -60.5 26t-23.5 68v2v3q0 10 2 23t7 35q-18 -25 -29.5 -40.5t-21.5 -28.5l-4 -4l-4 -4q-3 -4 -6 -7t-6 -7q-20 -22 -44 -38t-48 -25
q-15 -6 -29.5 -9t-28.5 -3q-45 0 -75 29.5t-30 75.5v9t1 9q2 26 17 62t57 121q20 40 35.5 73.5t25.5 58.5t14.5 40t4.5 29v1.5v1.5q0 23 -13 35.5t-36 12.5q-38 0 -68.5 -33.5t-30.5 -74.5q0 -16 10 -27.5t23 -11.5q4 0 8 1l8 2l10.5 3.5t7.5 1.5q7 0 12.5 -6t5.5 -14
q0 -10 -9 -26t-25 -34q-31 -34 -65 -51t-70 -17q-61 0 -102 41t-41 101q0 122 101 216.5t231 94.5q85 0 138.5 -45t53.5 -116q0 -23 -6 -51.5t-17 -58.5q-2 -6 -4.5 -11.5t-4.5 -10.5l-9 -21l-9 -20l-9 -21q-11 -27 -18 -49.5t-7 -36.5q0 -16 10.5 -26t26.5 -10
q44 0 82.5 70t66.5 198q3 12 5 21t4 16q4 12 8 20t9 15q6 8 13.5 14.5t14.5 9.5q5 2 9.5 3t8.5 1v0zM661 807q25 0 42.5 -17.5t17.5 -42.5t-17.5 -42.5t-42.5 -17.5t-42.5 17.5t-17.5 42.5t17.5 42.5t42.5 17.5v0zM829 807q25 0 42.5 -17.5t17.5 -42.5t-17.5 -42.5
t-42.5 -17.5t-42.5 17.5t-17.5 42.5t17.5 42.5t42.5 17.5v0z" />
    <glyph glyph-name="aacute" unicode="&#xe1;" horiz-adv-x="515" 
d="M477 326l-37 -166q-3 -13 -4.5 -21.5t-1.5 -13.5q-1 -10 8 -18.5t21 -8.5q4 0 7.5 0.5t6.5 1.5q2 0 3.5 0.5t3.5 1.5q8 3 14 4.5t10 1.5q6 0 11 -5.5t5 -12.5q0 -8 -5 -17.5t-15 -18.5l-5.5 -5.5t-5.5 -4.5q-19 -17 -41.5 -29t-45.5 -18q-12 -3 -24.5 -5t-24.5 -2
q-36 0 -59 22.5t-23 57.5v10.5t1 12.5q-18 -22 -27 -33.5t-17 -19.5q-1 -1 -2.5 -2t-2.5 -2q-2 -3 -4 -5t-5 -4q-11 -11 -24 -19t-27 -13q-10 -3 -19 -5t-18 -2q-44 0 -73 36.5t-29 94.5q0 101 68.5 183.5t151.5 82.5q29 0 53.5 -10.5t43.5 -32.5q27 19 42.5 27.5t29.5 11.5
q4 1 9 1.5t10 0.5q20 0 32 -10.5t12 -27.5q0 -3 -0.5 -8t-2.5 -11v0zM274 281q-21 1 -38.5 -19t-17.5 -46q0 -17 8.5 -27t24.5 -10q20 0 36.5 21.5t17.5 46.5v1.5v1.5q0 14 -8 22t-23 9v0zM254 483l99 64q6 4 8 5.5t4 2.5h2.5h3.5q6 0 11 -2.5t8 -5.5l18 -27q4 -6 5.5 -8.5
t2.5 -3.5v-2v-2q0 -6 -3.5 -11t-11.5 -10l-103 -61q-4 -2 -7.5 -3.5t-6.5 -1.5q-2 0 -4.5 0.5t-5.5 2.5q-4 1 -7 4l-6 6l-14 20q-1 1 -2 2.5t-1 2.5q-2 3 -2.5 5.5t-0.5 4.5t0.5 3.5t1.5 2.5q1 3 4 6.5t7 5.5v0z" />
    <glyph glyph-name="agrave" unicode="&#xe0;" horiz-adv-x="515" 
d="M477 326l-37 -166q-3 -13 -4.5 -21.5t-1.5 -13.5q-1 -10 8 -18.5t21 -8.5q4 0 7.5 0.5t6.5 1.5q2 0 3.5 0.5t3.5 1.5q8 3 14 4.5t10 1.5q6 0 11 -5.5t5 -12.5q0 -8 -5 -17.5t-15 -18.5l-5.5 -5.5t-5.5 -4.5q-19 -17 -41.5 -29t-45.5 -18q-12 -3 -24.5 -5t-24.5 -2
q-36 0 -59 22.5t-23 57.5v10.5t1 12.5q-18 -22 -27 -33.5t-17 -19.5q-1 -1 -2.5 -2t-2.5 -2q-2 -3 -4 -5t-5 -4q-11 -11 -24 -19t-27 -13q-10 -3 -19 -5t-18 -2q-44 0 -73 36.5t-29 94.5q0 101 68.5 183.5t151.5 82.5q29 0 53.5 -10.5t43.5 -32.5q27 19 42.5 27.5t29.5 11.5
q4 1 9 1.5t10 0.5q20 0 32 -10.5t12 -27.5q0 -3 -0.5 -8t-2.5 -11v0zM274 281q-21 1 -38.5 -19t-17.5 -46q0 -17 8.5 -27t24.5 -10q20 0 36.5 21.5t17.5 46.5v1.5v1.5q0 14 -8 22t-23 9v0zM356 450l-15 -20q-3 -4 -6 -6.5t-7 -4.5q-2 -1 -4.5 -1.5t-4.5 -0.5q-4 0 -7.5 1.5
t-7.5 3.5l-103 61q-7 4 -10.5 9.5t-3.5 11.5v2v2q1 2 2 4.5t5 7.5l19 27q2 3 6 5t8 3h2h2h0.5h1.5h2h2t4 -2l9 -6l99 -64q5 -4 8.5 -8.5t3.5 -9.5q0 -1 -0.5 -3t-0.5 -4q-1 -3 -2 -4.5t-2 -3.5v0z" />
    <glyph glyph-name="acircumflex" unicode="&#xe2;" horiz-adv-x="515" 
d="M477 326l-37 -166q-3 -13 -4.5 -21.5t-1.5 -13.5q-1 -10 8 -18.5t21 -8.5q4 0 7.5 0.5t6.5 1.5q2 0 3.5 0.5t3.5 1.5q8 3 14 4.5t10 1.5q6 0 11 -5.5t5 -12.5q0 -8 -5 -17.5t-15 -18.5l-5.5 -5.5t-5.5 -4.5q-19 -17 -41.5 -29t-45.5 -18q-12 -3 -24.5 -5t-24.5 -2
q-36 0 -59 22.5t-23 57.5v10.5t1 12.5q-18 -22 -27 -33.5t-17 -19.5q-1 -1 -2.5 -2t-2.5 -2q-2 -3 -4 -5t-5 -4q-11 -11 -24 -19t-27 -13q-10 -3 -19 -5t-18 -2q-44 0 -73 36.5t-29 94.5q0 101 68.5 183.5t151.5 82.5q29 0 53.5 -10.5t43.5 -32.5q27 19 42.5 27.5t29.5 11.5
q4 1 9 1.5t10 0.5q20 0 32 -10.5t12 -27.5q0 -3 -0.5 -8t-2.5 -11v0zM274 281q-21 1 -38.5 -19t-17.5 -46q0 -17 8.5 -27t24.5 -10q20 0 36.5 21.5t17.5 46.5v1.5v1.5q0 14 -8 22t-23 9v0zM328 467l-82 -40q-2 -1 -4 -1.5t-4 -1.5q-3 0 -5 -0.5t-4 -0.5q-7 0 -12.5 4
t-10.5 13q-7 12 -10.5 19t-3.5 10q0 2 0.5 3.5t1.5 3.5q2 3 5.5 6.5t7.5 4.5l121 53q5 2 9.5 3.5t6.5 1.5q3 0 7 -1.5t8 -3.5l86 -53q4 -2 7 -4.5t5 -4.5q2 -3 3 -5.5t1 -4.5q0 -1 -0.5 -3t-1.5 -4q0 -2 -1 -4l-2 -4q-1 0 -1.5 -1l-0.5 -1l-24 -19l-1.5 -1.5t-1.5 -0.5
q-2 -2 -5 -3t-5 -2q-4 -2 -8 -3t-6 -1t-4.5 0.5t-5.5 1.5q-1 0 -2.5 0.5t-2.5 1.5q-2 0 -3.5 1t-2.5 1l-54 40v0z" />
    <glyph glyph-name="adieresis" unicode="&#xe4;" horiz-adv-x="515" 
d="M477 326l-37 -166q-3 -13 -4.5 -21.5t-1.5 -13.5q-1 -10 8 -18.5t21 -8.5q4 0 7.5 0.5t6.5 1.5q2 0 3.5 0.5t3.5 1.5q8 3 14 4.5t10 1.5q6 0 11 -5.5t5 -12.5q0 -8 -5 -17.5t-15 -18.5l-5.5 -5.5t-5.5 -4.5q-19 -17 -41.5 -29t-45.5 -18q-12 -3 -24.5 -5t-24.5 -2
q-36 0 -59 22.5t-23 57.5v10.5t1 12.5q-18 -22 -27 -33.5t-17 -19.5q-1 -1 -2.5 -2t-2.5 -2q-2 -3 -4 -5t-5 -4q-11 -11 -24 -19t-27 -13q-10 -3 -19 -5t-18 -2q-44 0 -73 36.5t-29 94.5q0 101 68.5 183.5t151.5 82.5q29 0 53.5 -10.5t43.5 -32.5q27 19 42.5 27.5t29.5 11.5
q4 1 9 1.5t10 0.5q20 0 32 -10.5t12 -27.5q0 -3 -0.5 -8t-2.5 -11v0zM274 281q-21 1 -38.5 -19t-17.5 -46q0 -17 8.5 -27t24.5 -10q20 0 36.5 21.5t17.5 46.5v1.5v1.5q0 14 -8 22t-23 9v0zM247 542q25 0 42.5 -17.5t17.5 -42.5t-17.5 -42.5t-42.5 -17.5t-42.5 17.5
t-17.5 42.5t17.5 42.5t42.5 17.5v0zM415 542q25 0 42.5 -17.5t17.5 -42.5t-17.5 -42.5t-42.5 -17.5t-42.5 17.5t-17.5 42.5t17.5 42.5t42.5 17.5v0z" />
    <glyph glyph-name="atilde" unicode="&#xe3;" horiz-adv-x="515" 
d="M477 326l-37 -166q-3 -13 -4.5 -21.5t-1.5 -13.5q-1 -10 8 -18.5t21 -8.5q4 0 7.5 0.5t6.5 1.5q2 0 3.5 0.5t3.5 1.5q8 3 14 4.5t10 1.5q6 0 11 -5.5t5 -12.5q0 -8 -5 -17.5t-15 -18.5l-5.5 -5.5t-5.5 -4.5q-19 -17 -41.5 -29t-45.5 -18q-12 -3 -24.5 -5t-24.5 -2
q-36 0 -59 22.5t-23 57.5v10.5t1 12.5q-18 -22 -27 -33.5t-17 -19.5q-1 -1 -2.5 -2t-2.5 -2q-2 -3 -4 -5t-5 -4q-11 -11 -24 -19t-27 -13q-10 -3 -19 -5t-18 -2q-44 0 -73 36.5t-29 94.5q0 101 68.5 183.5t151.5 82.5q29 0 53.5 -10.5t43.5 -32.5q27 19 42.5 27.5t29.5 11.5
q4 1 9 1.5t10 0.5q20 0 32 -10.5t12 -27.5q0 -3 -0.5 -8t-2.5 -11v0zM274 281q-21 1 -38.5 -19t-17.5 -46q0 -17 8.5 -27t24.5 -10q20 0 36.5 21.5t17.5 46.5v1.5v1.5q0 14 -8 22t-23 9v0zM247 440h-28q-9 0 -14 5.5t-5 15.5q0 29 24 52t55 23h8.5t7.5 -1q9 -2 21 -7.5
t38 -20.5q5 -2 10 -3.5t9 -1.5q3 0 5.5 0.5t4.5 1.5q2 2 5 6.5t8 12.5q2 4 6.5 5.5t14.5 1.5h22q11 0 18 -5.5t6 -14.5q-1 -28 -25 -52t-53 -26h-1.5h-1.5h-7.5t-7.5 1q-10 2 -22.5 8t-35.5 19q-2 2 -5 3t-5 2l-8 2t-7 1t-6 -1.5t-6 -4.5q-2 -1 -3 -3t-3 -5q-4 -7 -9 -10.5
t-10 -3.5v0z" />
    <glyph glyph-name="aring" unicode="&#xe5;" horiz-adv-x="515" 
d="M477 326l-37 -166q-3 -13 -4.5 -21.5t-1.5 -13.5q-1 -10 8 -18.5t21 -8.5q4 0 7.5 0.5t6.5 1.5q2 0 3.5 0.5t3.5 1.5q8 3 14 4.5t10 1.5q6 0 11 -5.5t5 -12.5q0 -8 -5 -17.5t-15 -18.5l-5.5 -5.5t-5.5 -4.5q-19 -17 -41.5 -29t-45.5 -18q-12 -3 -24.5 -5t-24.5 -2
q-36 0 -59 22.5t-23 57.5v10.5t1 12.5q-18 -22 -27 -33.5t-17 -19.5q-1 -1 -2.5 -2t-2.5 -2q-2 -3 -4 -5t-5 -4q-11 -11 -24 -19t-27 -13q-10 -3 -19 -5t-18 -2q-44 0 -73 36.5t-29 94.5q0 101 68.5 183.5t151.5 82.5q29 0 53.5 -10.5t43.5 -32.5q27 19 42.5 27.5t29.5 11.5
q4 1 9 1.5t10 0.5q20 0 32 -10.5t12 -27.5q0 -3 -0.5 -8t-2.5 -11v0zM274 281q-21 1 -38.5 -19t-17.5 -46q0 -17 8.5 -27t24.5 -10q20 0 36.5 21.5t17.5 46.5v1.5v1.5q0 14 -8 22t-23 9v0zM305 601q39 0 66.5 -27.5t27.5 -66.5t-27.5 -66.5t-66.5 -27.5t-66.5 27.5
t-27.5 66.5t27.5 66.5t66.5 27.5v0zM305 548q-17 0 -29 -12t-12 -29t12 -29t29 -12t29 12t12 29t-12 29t-29 12v0z" />
    <glyph glyph-name="ccedilla" unicode="&#xe7;" horiz-adv-x="423" 
d="M95 -121q0 1 0.5 1h0.5v0h1t3 -1t11 -6q4 -2 7 -3t6 -1q11 0 19 8t8 18t-7.5 15.5t-21.5 4.5q-5 0 -8 2t-3 5v2v1q1 3 6.5 7.5t20.5 15.5q5 4 10 7t10 5t11 3t13 1q35 0 58 -20t23 -51q0 -34 -26 -56t-67 -22h-5.5t-4.5 1q-26 2 -49 16.5t-26 31.5q-1 1 -1 2.5v2.5
q0 4 3.5 7.5t7.5 3.5v-1zM280 316q-37 -13 -55.5 -38t-18.5 -63q0 -42 24 -67t65 -25h11.5t9.5 1q9 1 21 6t40 18l6 2t5 2q5 1 9 1.5t8 0.5q12 0 18.5 -6.5t6.5 -19.5q0 -15 -12.5 -32t-38.5 -40q-26 -22 -53 -37t-54 -23q-16 -5 -32.5 -7.5t-32.5 -2.5q-76 0 -127.5 48.5
t-51.5 118.5q0 94 75.5 165.5t175.5 71.5q60 0 98 -29t38 -75q0 -34 -23 -57t-57 -23q-31 0 -50.5 18.5t-19.5 46.5q0 4 0.5 7.5t0.5 7.5q2 5 5 12t9 18v0z" />
    <glyph glyph-name="eacute" unicode="&#xe9;" horiz-adv-x="437" 
d="M202 142v-5q0 -19 14.5 -30.5t36.5 -11.5q12 0 28 3.5t32 10.5q6 2 12 4.5t12 5.5l3 1.5t2 1.5q2 1 8.5 4.5t33.5 20.5q4 2 8 3.5t8 2.5q2 1 4 1h4q10 0 16.5 -6t6.5 -17q0 -16 -14 -35t-40 -40q-44 -34 -89.5 -51.5t-91.5 -17.5q-76 0 -124.5 45t-48.5 118
q0 95 79.5 166t185.5 71q57 0 93.5 -29t36.5 -75q0 -57 -60.5 -96.5t-155.5 -44.5v0zM212 232q41 6 60.5 17t19.5 28q0 10 -6 16.5t-15 6.5q-19 0 -35 -18t-24 -50v0zM241 483l99 64q6 4 8 5.5t4 2.5h2.5h3.5q6 0 11 -2.5t8 -5.5l18 -27q4 -6 5.5 -8.5t2.5 -3.5v-2v-2
q0 -6 -3.5 -11t-11.5 -10l-103 -61q-4 -2 -7.5 -3.5t-6.5 -1.5q-2 0 -4.5 0.5t-5.5 2.5q-4 1 -7 4l-6 6l-14 20q-1 1 -2 2.5t-1 2.5q-2 3 -2.5 5.5t-0.5 4.5t0.5 3.5t1.5 2.5q1 3 4 6.5t7 5.5v0z" />
    <glyph glyph-name="egrave" unicode="&#xe8;" horiz-adv-x="437" 
d="M202 142v-5q0 -19 14.5 -30.5t36.5 -11.5q12 0 28 3.5t32 10.5q6 2 12 4.5t12 5.5l3 1.5t2 1.5q2 1 8.5 4.5t33.5 20.5q4 2 8 3.5t8 2.5q2 1 4 1h4q10 0 16.5 -6t6.5 -17q0 -16 -14 -35t-40 -40q-44 -34 -89.5 -51.5t-91.5 -17.5q-76 0 -124.5 45t-48.5 118
q0 95 79.5 166t185.5 71q57 0 93.5 -29t36.5 -75q0 -57 -60.5 -96.5t-155.5 -44.5v0zM212 232q41 6 60.5 17t19.5 28q0 10 -6 16.5t-15 6.5q-19 0 -35 -18t-24 -50v0zM343 450l-15 -20q-3 -4 -6 -6.5t-7 -4.5q-2 -1 -4.5 -1.5t-4.5 -0.5q-4 0 -7.5 1.5t-7.5 3.5l-103 61
q-7 4 -10.5 9.5t-3.5 11.5v2v2q1 2 2 4.5t5 7.5l19 27q2 3 6 5t8 3h2h2h0.5h1.5h2h2t4 -2l9 -6l99 -64q5 -4 8.5 -8.5t3.5 -9.5q0 -1 -0.5 -3t-0.5 -4q-1 -3 -2 -4.5t-2 -3.5v0z" />
    <glyph glyph-name="ecircumflex" unicode="&#xea;" horiz-adv-x="437" 
d="M202 142v-5q0 -19 14.5 -30.5t36.5 -11.5q12 0 28 3.5t32 10.5q6 2 12 4.5t12 5.5l3 1.5t2 1.5q2 1 8.5 4.5t33.5 20.5q4 2 8 3.5t8 2.5q2 1 4 1h4q10 0 16.5 -6t6.5 -17q0 -16 -14 -35t-40 -40q-44 -34 -89.5 -51.5t-91.5 -17.5q-76 0 -124.5 45t-48.5 118
q0 95 79.5 166t185.5 71q57 0 93.5 -29t36.5 -75q0 -57 -60.5 -96.5t-155.5 -44.5v0zM212 232q41 6 60.5 17t19.5 28q0 10 -6 16.5t-15 6.5q-19 0 -35 -18t-24 -50v0zM289 467l-82 -40q-2 -1 -4 -1.5t-4 -1.5q-3 0 -5 -0.5t-4 -0.5q-7 0 -12.5 4t-10.5 13q-7 12 -10.5 19
t-3.5 10q0 2 0.5 3.5t1.5 3.5q2 3 5.5 6.5t7.5 4.5l121 53q5 2 9.5 3.5t6.5 1.5q3 0 7 -1.5t8 -3.5l86 -53q4 -2 7 -4.5t5 -4.5q2 -3 3 -5.5t1 -4.5q0 -1 -0.5 -3t-1.5 -4q0 -2 -1 -4l-2 -4q-1 0 -1.5 -1l-0.5 -1l-24 -19l-1.5 -1.5t-1.5 -0.5q-2 -2 -5 -3t-5 -2
q-4 -2 -8 -3t-6 -1t-4.5 0.5t-5.5 1.5q-1 0 -2.5 0.5t-2.5 1.5q-2 0 -3.5 1t-2.5 1l-54 40v0z" />
    <glyph glyph-name="edieresis" unicode="&#xeb;" horiz-adv-x="437" 
d="M202 142v-5q0 -19 14.5 -30.5t36.5 -11.5q12 0 28 3.5t32 10.5q6 2 12 4.5t12 5.5l3 1.5t2 1.5q2 1 8.5 4.5t33.5 20.5q4 2 8 3.5t8 2.5q2 1 4 1h4q10 0 16.5 -6t6.5 -17q0 -16 -14 -35t-40 -40q-44 -34 -89.5 -51.5t-91.5 -17.5q-76 0 -124.5 45t-48.5 118
q0 95 79.5 166t185.5 71q57 0 93.5 -29t36.5 -75q0 -57 -60.5 -96.5t-155.5 -44.5v0zM212 232q41 6 60.5 17t19.5 28q0 10 -6 16.5t-15 6.5q-19 0 -35 -18t-24 -50v0zM208 542q25 0 42.5 -17.5t17.5 -42.5t-17.5 -42.5t-42.5 -17.5t-42.5 17.5t-17.5 42.5t17.5 42.5
t42.5 17.5v0zM376 542q25 0 42.5 -17.5t17.5 -42.5t-17.5 -42.5t-42.5 -17.5t-42.5 17.5t-17.5 42.5t17.5 42.5t42.5 17.5v0z" />
    <glyph glyph-name="iacute" unicode="&#xed;" horiz-adv-x="283" 
d="M36 99l35 163q2 10 3 17.5t1 14.5q0 11 -5.5 19.5t-16.5 14.5q35 29 68.5 43.5t64.5 14.5q26 0 41 -12.5t16 -34.5v-10.5t-2 -10.5l-34 -159q0 -2 -0.5 -4t-1.5 -4q-1 -5 -1.5 -10t-0.5 -8q0 -16 8 -25.5t22 -9.5h3.5h2.5q3 1 6.5 2t5.5 2q9 4 15.5 6t10.5 2
q5 0 9.5 -4.5t4.5 -12.5q0 -9 -6 -20t-16 -22q-6 -5 -12 -10.5t-14 -10.5q-11 -7 -22.5 -13t-22.5 -11q-19 -7 -37 -11t-34 -4q-41 0 -67.5 22.5t-26.5 58.5q0 4 0.5 8.5t0.5 9.5q1 2 1.5 4.5t0.5 4.5v0zM137 483l99 64q6 4 8 5.5t4 2.5h2.5h3.5q6 0 11 -2.5t8 -5.5l18 -27
q4 -6 5.5 -8.5t2.5 -3.5v-2v-2q0 -6 -3.5 -11t-11.5 -10l-103 -61q-4 -2 -7.5 -3.5t-6.5 -1.5q-2 0 -4.5 0.5t-5.5 2.5q-4 1 -7 4l-6 6l-14 20q-1 1 -2 2.5t-1 2.5q-2 3 -2.5 5.5t-0.5 4.5t0.5 3.5t1.5 2.5q1 3 4 6.5t7 5.5v0z" />
    <glyph glyph-name="igrave" unicode="&#xec;" horiz-adv-x="283" 
d="M36 99l35 163q2 10 3 17.5t1 14.5q0 11 -5.5 19.5t-16.5 14.5q35 29 68.5 43.5t64.5 14.5q26 0 41 -12.5t16 -34.5v-10.5t-2 -10.5l-34 -159q0 -2 -0.5 -4t-1.5 -4q-1 -5 -1.5 -10t-0.5 -8q0 -16 8 -25.5t22 -9.5h3.5h2.5q3 1 6.5 2t5.5 2q9 4 15.5 6t10.5 2
q5 0 9.5 -4.5t4.5 -12.5q0 -9 -6 -20t-16 -22q-6 -5 -12 -10.5t-14 -10.5q-11 -7 -22.5 -13t-22.5 -11q-19 -7 -37 -11t-34 -4q-41 0 -67.5 22.5t-26.5 58.5q0 4 0.5 8.5t0.5 9.5q1 2 1.5 4.5t0.5 4.5v0zM233 450l-15 -20q-3 -4 -6 -6.5t-7 -4.5q-2 -1 -4.5 -1.5t-4.5 -0.5
q-4 0 -7.5 1.5t-7.5 3.5l-103 61q-7 4 -10.5 9.5t-3.5 11.5v2v2q1 2 2 4.5t5 7.5l19 27q2 3 6 5t8 3h2h2h0.5h1.5h2h2t4 -2l9 -6l99 -64q5 -4 8.5 -8.5t3.5 -9.5q0 -1 -0.5 -3t-0.5 -4q-1 -3 -2 -4.5t-2 -3.5v0z" />
    <glyph glyph-name="icircumflex" unicode="&#xee;" horiz-adv-x="283" 
d="M36 99l35 163q2 10 3 17.5t1 14.5q0 11 -5.5 19.5t-16.5 14.5q35 29 68.5 43.5t64.5 14.5q26 0 41 -12.5t16 -34.5v-10.5t-2 -10.5l-34 -159q0 -2 -0.5 -4t-1.5 -4q-1 -5 -1.5 -10t-0.5 -8q0 -16 8 -25.5t22 -9.5h3.5h2.5q3 1 6.5 2t5.5 2q9 4 15.5 6t10.5 2
q5 0 9.5 -4.5t4.5 -12.5q0 -9 -6 -20t-16 -22q-6 -5 -12 -10.5t-14 -10.5q-11 -7 -22.5 -13t-22.5 -11q-19 -7 -37 -11t-34 -4q-41 0 -67.5 22.5t-26.5 58.5q0 4 0.5 8.5t0.5 9.5q1 2 1.5 4.5t0.5 4.5v0zM188 467l-82 -40q-2 -1 -4 -1.5t-4 -1.5q-3 0 -5 -0.5t-4 -0.5
q-7 0 -12.5 4t-10.5 13q-7 12 -10.5 19t-3.5 10q0 2 0.5 3.5t1.5 3.5q2 3 5.5 6.5t7.5 4.5l121 53q5 2 9.5 3.5t6.5 1.5q3 0 7 -1.5t8 -3.5l86 -53q4 -2 7 -4.5t5 -4.5q2 -3 3 -5.5t1 -4.5q0 -1 -0.5 -3t-1.5 -4q0 -2 -1 -4l-2 -4q-1 0 -1.5 -1l-0.5 -1l-24 -19l-1.5 -1.5
t-1.5 -0.5q-2 -2 -5 -3t-5 -2q-4 -2 -8 -3t-6 -1t-4.5 0.5t-5.5 1.5q-1 0 -2.5 0.5t-2.5 1.5q-2 0 -3.5 1t-2.5 1l-54 40v0z" />
    <glyph glyph-name="idieresis" unicode="&#xef;" horiz-adv-x="283" 
d="M36 99l35 163q2 10 3 17.5t1 14.5q0 11 -5.5 19.5t-16.5 14.5q35 29 68.5 43.5t64.5 14.5q26 0 41 -12.5t16 -34.5v-10.5t-2 -10.5l-34 -159q0 -2 -0.5 -4t-1.5 -4q-1 -5 -1.5 -10t-0.5 -8q0 -16 8 -25.5t22 -9.5h3.5h2.5q3 1 6.5 2t5.5 2q9 4 15.5 6t10.5 2
q5 0 9.5 -4.5t4.5 -12.5q0 -9 -6 -20t-16 -22q-6 -5 -12 -10.5t-14 -10.5q-11 -7 -22.5 -13t-22.5 -11q-19 -7 -37 -11t-34 -4q-41 0 -67.5 22.5t-26.5 58.5q0 4 0.5 8.5t0.5 9.5q1 2 1.5 4.5t0.5 4.5v0zM105 542q25 0 42.5 -17.5t17.5 -42.5t-17.5 -42.5t-42.5 -17.5
t-42.5 17.5t-17.5 42.5t17.5 42.5t42.5 17.5v0zM258 542q25 0 42.5 -17.5t17.5 -42.5t-17.5 -42.5t-42.5 -17.5t-42.5 17.5t-17.5 42.5t17.5 42.5t42.5 17.5v0z" />
    <glyph glyph-name="ntilde" unicode="&#xf1;" horiz-adv-x="526" 
d="M16 -23l63 285q2 13 3.5 22.5t1.5 15.5q0 11 -5 18.5t-17 13.5q38 29 70.5 42.5t63.5 13.5q29 0 43.5 -13.5t16.5 -42.5q33 29 67.5 43t69.5 14q40 0 65 -22.5t25 -58.5q0 -4 -0.5 -10t-1.5 -11q0 -2 -0.5 -4t-1.5 -4l-29 -125q-2 -10 -3.5 -16.5t-1.5 -11.5
q-1 -11 8 -19t23 -8q5 0 9.5 1t8.5 2q9 3 16 5t10 2q7 0 11 -5t4 -13q0 -13 -13.5 -29.5t-37.5 -33.5q-22 -15 -47.5 -24t-51.5 -11q-4 -1 -8.5 -1h-8.5q-43 0 -67.5 22t-24.5 59q0 3 0.5 6.5t0.5 7.5q1 1 1.5 3t0.5 4l22 106q0 1 0.5 2.5t0.5 2.5q1 5 1.5 9.5t0.5 7.5
q0 12 -7.5 19t-20.5 7q-19 0 -33 -16t-21 -45l-27 -120q-7 -31 -26.5 -49t-45.5 -18h-42q-17 0 -28.5 -2.5t-22.5 -9.5q-4 -2 -7 -4.5t-7 -5.5v-1zM219 440h-28q-9 0 -14 5.5t-5 15.5q0 29 24 52t55 23h8.5t7.5 -1q9 -2 21 -7.5t38 -20.5q5 -2 10 -3.5t9 -1.5q3 0 5.5 0.5
t4.5 1.5q2 2 5 6.5t8 12.5q2 4 6.5 5.5t14.5 1.5h22q11 0 18 -5.5t6 -14.5q-1 -28 -25 -52t-53 -26h-1.5h-1.5h-7.5t-7.5 1q-10 2 -22.5 8t-35.5 19q-2 2 -5 3t-5 2l-8 2t-7 1t-6 -1.5t-6 -4.5q-2 -1 -3 -3t-3 -5q-4 -7 -9 -10.5t-10 -3.5v0z" />
    <glyph glyph-name="oacute" unicode="&#xf3;" horiz-adv-x="441" 
d="M268 385q74 0 118.5 -44.5t44.5 -116.5q0 -98 -69 -166t-169 -68q-72 0 -118.5 45t-46.5 115q0 98 70 166.5t170 68.5v0zM252 286q-20 0 -36.5 -20.5t-16.5 -46.5q0 -19 9.5 -30.5t24.5 -11.5q21 0 37.5 20.5t16.5 47.5q0 18 -9.5 29.5t-25.5 11.5v0zM243 483l99 64
q6 4 8 5.5t4 2.5h2.5h3.5q6 0 11 -2.5t8 -5.5l18 -27q4 -6 5.5 -8.5t2.5 -3.5v-2v-2q0 -6 -3.5 -11t-11.5 -10l-103 -61q-4 -2 -7.5 -3.5t-6.5 -1.5q-2 0 -4.5 0.5t-5.5 2.5q-4 1 -7 4l-6 6l-14 20q-1 1 -2 2.5t-1 2.5q-2 3 -2.5 5.5t-0.5 4.5t0.5 3.5t1.5 2.5q1 3 4 6.5
t7 5.5v0z" />
    <glyph glyph-name="ograve" unicode="&#xf2;" horiz-adv-x="441" 
d="M268 385q74 0 118.5 -44.5t44.5 -116.5q0 -98 -69 -166t-169 -68q-72 0 -118.5 45t-46.5 115q0 98 70 166.5t170 68.5v0zM252 286q-20 0 -36.5 -20.5t-16.5 -46.5q0 -19 9.5 -30.5t24.5 -11.5q21 0 37.5 20.5t16.5 47.5q0 18 -9.5 29.5t-25.5 11.5v0zM346 450l-15 -20
q-3 -4 -6 -6.5t-7 -4.5q-2 -1 -4.5 -1.5t-4.5 -0.5q-4 0 -7.5 1.5t-7.5 3.5l-103 61q-7 4 -10.5 9.5t-3.5 11.5v2v2q1 2 2 4.5t5 7.5l19 27q2 3 6 5t8 3h2h2h0.5h1.5h2h2t4 -2l9 -6l99 -64q5 -4 8.5 -8.5t3.5 -9.5q0 -1 -0.5 -3t-0.5 -4q-1 -3 -2 -4.5t-2 -3.5v0z" />
    <glyph glyph-name="ocircumflex" unicode="&#xf4;" horiz-adv-x="441" 
d="M268 385q74 0 118.5 -44.5t44.5 -116.5q0 -98 -69 -166t-169 -68q-72 0 -118.5 45t-46.5 115q0 98 70 166.5t170 68.5v0zM252 286q-20 0 -36.5 -20.5t-16.5 -46.5q0 -19 9.5 -30.5t24.5 -11.5q21 0 37.5 20.5t16.5 47.5q0 18 -9.5 29.5t-25.5 11.5v0zM291 467l-82 -40
q-2 -1 -4 -1.5t-4 -1.5q-3 0 -5 -0.5t-4 -0.5q-7 0 -12.5 4t-10.5 13q-7 12 -10.5 19t-3.5 10q0 2 0.5 3.5t1.5 3.5q2 3 5.5 6.5t7.5 4.5l121 53q5 2 9.5 3.5t6.5 1.5q3 0 7 -1.5t8 -3.5l86 -53q4 -2 7 -4.5t5 -4.5q2 -3 3 -5.5t1 -4.5q0 -1 -0.5 -3t-1.5 -4q0 -2 -1 -4
l-2 -4q-1 0 -1.5 -1l-0.5 -1l-24 -19l-1.5 -1.5t-1.5 -0.5q-2 -2 -5 -3t-5 -2q-4 -2 -8 -3t-6 -1t-4.5 0.5t-5.5 1.5q-1 0 -2.5 0.5t-2.5 1.5q-2 0 -3.5 1t-2.5 1l-54 40v0z" />
    <glyph glyph-name="odieresis" unicode="&#xf6;" horiz-adv-x="441" 
d="M268 385q74 0 118.5 -44.5t44.5 -116.5q0 -98 -69 -166t-169 -68q-72 0 -118.5 45t-46.5 115q0 98 70 166.5t170 68.5v0zM252 286q-20 0 -36.5 -20.5t-16.5 -46.5q0 -19 9.5 -30.5t24.5 -11.5q21 0 37.5 20.5t16.5 47.5q0 18 -9.5 29.5t-25.5 11.5v0zM197 542
q25 0 42.5 -17.5t17.5 -42.5t-17.5 -42.5t-42.5 -17.5t-42.5 17.5t-17.5 42.5t17.5 42.5t42.5 17.5v0zM365 542q25 0 42.5 -17.5t17.5 -42.5t-17.5 -42.5t-42.5 -17.5t-42.5 17.5t-17.5 42.5t17.5 42.5t42.5 17.5v0z" />
    <glyph glyph-name="otilde" unicode="&#xf5;" horiz-adv-x="441" 
d="M268 385q74 0 118.5 -44.5t44.5 -116.5q0 -98 -69 -166t-169 -68q-72 0 -118.5 45t-46.5 115q0 98 70 166.5t170 68.5v0zM252 286q-20 0 -36.5 -20.5t-16.5 -46.5q0 -19 9.5 -30.5t24.5 -11.5q21 0 37.5 20.5t16.5 47.5q0 18 -9.5 29.5t-25.5 11.5v0zM210 440h-28
q-9 0 -14 5.5t-5 15.5q0 29 24 52t55 23h8.5t7.5 -1q9 -2 21 -7.5t38 -20.5q5 -2 10 -3.5t9 -1.5q3 0 5.5 0.5t4.5 1.5q2 2 5 6.5t8 12.5q2 4 6.5 5.5t14.5 1.5h22q11 0 18 -5.5t6 -14.5q-1 -28 -25 -52t-53 -26h-1.5h-1.5h-7.5t-7.5 1q-10 2 -22.5 8t-35.5 19q-2 2 -5 3
t-5 2l-8 2t-7 1t-6 -1.5t-6 -4.5q-2 -1 -3 -3t-3 -5q-4 -7 -9 -10.5t-10 -3.5v0z" />
    <glyph glyph-name="uacute" unicode="&#xfa;" horiz-adv-x="517" 
d="M476 316l-34 -157q-2 -10 -3.5 -18.5t-1.5 -12.5q0 -13 8 -21.5t20 -8.5q5 0 10 1.5t11 3.5q7 3 13 4.5t10 1.5q6 0 11 -5t5 -11q0 -8 -5 -17.5t-13 -18.5q-6 -7 -14 -14t-17 -13q-14 -10 -29.5 -17.5t-31.5 -12.5t-31.5 -7.5t-29.5 -2.5q-36 0 -58 18t-24 49
q-15 -13 -31 -24.5t-33 -19.5q-22 -12 -43 -17.5t-40 -5.5q-38 0 -65 22.5t-27 54.5q0 5 0.5 9.5t1.5 9.5l37 178q2 7 2.5 13.5t0.5 11.5q0 11 -4 18.5t-14 14.5l-3 1.5l-3 1.5q10 8 20 15t21 14q24 14 48 22t44 8q27 0 42.5 -14.5t15.5 -40.5v-6v-4q0 -1 -0.5 -1.5
t-0.5 -1.5l-29 -139q-1 -6 -2 -11.5t-1 -8.5q0 -12 7.5 -19t19.5 -7q21 0 34 14.5t21 46.5l17 72q0 1 0.5 2.5t0.5 2.5q2 6 2.5 12t0.5 10q0 10 -3.5 16t-12.5 12q-2 2 -5 3.5t-6 2.5q33 26 61 40t55 18q5 0 10 0.5t10 0.5q26 0 41.5 -14t15.5 -38v-4t-1 -4q0 -2 -0.5 -4
t-0.5 -4v0zM248 483l99 64q6 4 8 5.5t4 2.5h2.5h3.5q6 0 11 -2.5t8 -5.5l18 -27q4 -6 5.5 -8.5t2.5 -3.5v-2v-2q0 -6 -3.5 -11t-11.5 -10l-103 -61q-4 -2 -7.5 -3.5t-6.5 -1.5q-2 0 -4.5 0.5t-5.5 2.5q-4 1 -7 4l-6 6l-14 20q-1 1 -2 2.5t-1 2.5q-2 3 -2.5 5.5t-0.5 4.5
t0.5 3.5t1.5 2.5q1 3 4 6.5t7 5.5v0z" />
    <glyph glyph-name="ugrave" unicode="&#xf9;" horiz-adv-x="517" 
d="M476 316l-34 -157q-2 -10 -3.5 -18.5t-1.5 -12.5q0 -13 8 -21.5t20 -8.5q5 0 10 1.5t11 3.5q7 3 13 4.5t10 1.5q6 0 11 -5t5 -11q0 -8 -5 -17.5t-13 -18.5q-6 -7 -14 -14t-17 -13q-14 -10 -29.5 -17.5t-31.5 -12.5t-31.5 -7.5t-29.5 -2.5q-36 0 -58 18t-24 49
q-15 -13 -31 -24.5t-33 -19.5q-22 -12 -43 -17.5t-40 -5.5q-38 0 -65 22.5t-27 54.5q0 5 0.5 9.5t1.5 9.5l37 178q2 7 2.5 13.5t0.5 11.5q0 11 -4 18.5t-14 14.5l-3 1.5l-3 1.5q10 8 20 15t21 14q24 14 48 22t44 8q27 0 42.5 -14.5t15.5 -40.5v-6v-4q0 -1 -0.5 -1.5
t-0.5 -1.5l-29 -139q-1 -6 -2 -11.5t-1 -8.5q0 -12 7.5 -19t19.5 -7q21 0 34 14.5t21 46.5l17 72q0 1 0.5 2.5t0.5 2.5q2 6 2.5 12t0.5 10q0 10 -3.5 16t-12.5 12q-2 2 -5 3.5t-6 2.5q33 26 61 40t55 18q5 0 10 0.5t10 0.5q26 0 41.5 -14t15.5 -38v-4t-1 -4q0 -2 -0.5 -4
t-0.5 -4v0zM330 450l-15 -20q-3 -4 -6 -6.5t-7 -4.5q-2 -1 -4.5 -1.5t-4.5 -0.5q-4 0 -7.5 1.5t-7.5 3.5l-103 61q-7 4 -10.5 9.5t-3.5 11.5v2v2q1 2 2 4.5t5 7.5l19 27q2 3 6 5t8 3h2h2h0.5h1.5h2h2t4 -2l9 -6l99 -64q5 -4 8.5 -8.5t3.5 -9.5q0 -1 -0.5 -3t-0.5 -4
q-1 -3 -2 -4.5t-2 -3.5v0z" />
    <glyph glyph-name="ucircumflex" unicode="&#xfb;" horiz-adv-x="517" 
d="M476 316l-34 -157q-2 -10 -3.5 -18.5t-1.5 -12.5q0 -13 8 -21.5t20 -8.5q5 0 10 1.5t11 3.5q7 3 13 4.5t10 1.5q6 0 11 -5t5 -11q0 -8 -5 -17.5t-13 -18.5q-6 -7 -14 -14t-17 -13q-14 -10 -29.5 -17.5t-31.5 -12.5t-31.5 -7.5t-29.5 -2.5q-36 0 -58 18t-24 49
q-15 -13 -31 -24.5t-33 -19.5q-22 -12 -43 -17.5t-40 -5.5q-38 0 -65 22.5t-27 54.5q0 5 0.5 9.5t1.5 9.5l37 178q2 7 2.5 13.5t0.5 11.5q0 11 -4 18.5t-14 14.5l-3 1.5l-3 1.5q10 8 20 15t21 14q24 14 48 22t44 8q27 0 42.5 -14.5t15.5 -40.5v-6v-4q0 -1 -0.5 -1.5
t-0.5 -1.5l-29 -139q-1 -6 -2 -11.5t-1 -8.5q0 -12 7.5 -19t19.5 -7q21 0 34 14.5t21 46.5l17 72q0 1 0.5 2.5t0.5 2.5q2 6 2.5 12t0.5 10q0 10 -3.5 16t-12.5 12q-2 2 -5 3.5t-6 2.5q33 26 61 40t55 18q5 0 10 0.5t10 0.5q26 0 41.5 -14t15.5 -38v-4t-1 -4q0 -2 -0.5 -4
t-0.5 -4v0zM296 467l-82 -40q-2 -1 -4 -1.5t-4 -1.5q-3 0 -5 -0.5t-4 -0.5q-7 0 -12.5 4t-10.5 13q-7 12 -10.5 19t-3.5 10q0 2 0.5 3.5t1.5 3.5q2 3 5.5 6.5t7.5 4.5l121 53q5 2 9.5 3.5t6.5 1.5q3 0 7 -1.5t8 -3.5l86 -53q4 -2 7 -4.5t5 -4.5q2 -3 3 -5.5t1 -4.5
q0 -1 -0.5 -3t-1.5 -4q0 -2 -1 -4l-2 -4q-1 0 -1.5 -1l-0.5 -1l-24 -19l-1.5 -1.5t-1.5 -0.5q-2 -2 -5 -3t-5 -2q-4 -2 -8 -3t-6 -1t-4.5 0.5t-5.5 1.5q-1 0 -2.5 0.5t-2.5 1.5q-2 0 -3.5 1t-2.5 1l-54 40v0z" />
    <glyph glyph-name="udieresis" unicode="&#xfc;" horiz-adv-x="517" 
d="M476 316l-34 -157q-2 -10 -3.5 -18.5t-1.5 -12.5q0 -13 8 -21.5t20 -8.5q5 0 10 1.5t11 3.5q7 3 13 4.5t10 1.5q6 0 11 -5t5 -11q0 -8 -5 -17.5t-13 -18.5q-6 -7 -14 -14t-17 -13q-14 -10 -29.5 -17.5t-31.5 -12.5t-31.5 -7.5t-29.5 -2.5q-36 0 -58 18t-24 49
q-15 -13 -31 -24.5t-33 -19.5q-22 -12 -43 -17.5t-40 -5.5q-38 0 -65 22.5t-27 54.5q0 5 0.5 9.5t1.5 9.5l37 178q2 7 2.5 13.5t0.5 11.5q0 11 -4 18.5t-14 14.5l-3 1.5l-3 1.5q10 8 20 15t21 14q24 14 48 22t44 8q27 0 42.5 -14.5t15.5 -40.5v-6v-4q0 -1 -0.5 -1.5
t-0.5 -1.5l-29 -139q-1 -6 -2 -11.5t-1 -8.5q0 -12 7.5 -19t19.5 -7q21 0 34 14.5t21 46.5l17 72q0 1 0.5 2.5t0.5 2.5q2 6 2.5 12t0.5 10q0 10 -3.5 16t-12.5 12q-2 2 -5 3.5t-6 2.5q33 26 61 40t55 18q5 0 10 0.5t10 0.5q26 0 41.5 -14t15.5 -38v-4t-1 -4q0 -2 -0.5 -4
t-0.5 -4v0zM215 542q25 0 42.5 -17.5t17.5 -42.5t-17.5 -42.5t-42.5 -17.5t-42.5 17.5t-17.5 42.5t17.5 42.5t42.5 17.5v0zM383 542q25 0 42.5 -17.5t17.5 -42.5t-17.5 -42.5t-42.5 -17.5t-42.5 17.5t-17.5 42.5t17.5 42.5t42.5 17.5v0z" />
    <glyph glyph-name="dagger" unicode="&#x2020;" 
d="M395 469h144q23 0 31 -5t8 -19v-7l-7 -31q-4 -19 -14 -27t-30 -8h-153l-94 -440q-2 -10 -8 -15.5t-14 -5.5l-70 -1q-7 1 -10 4.5t-4 11.5v6l94 440h-153q-16 0 -23.5 6t-7.5 17q0 2 0.5 5t1.5 7l6 31q4 17 15.5 24t36.5 7h145l33 159q2 11 8.5 16.5t14.5 5.5h70
q7 0 10.5 -3.5t3.5 -11.5v-3.5t-1 -3.5l-33 -159v0z" />
    <glyph glyph-name="cent" unicode="&#xa2;" 
d="M375 475l-9 -49q44 -8 67 -30.5t23 -57.5q0 -31 -21 -52t-52 -21q-27 0 -44 16.5t-17 44.5q0 5 0.5 9.5t1.5 8.5q2 5 4.5 10t6.5 11q-33 -12 -49.5 -35t-16.5 -57q0 -37 21.5 -59t59.5 -22h1.5h1.5h8.5t6.5 1q7 1 18 5t37 15q6 3 12.5 4.5t13.5 1.5q11 0 16.5 -5t5.5 -16
q0 -15 -15 -34.5t-44 -42.5q-26 -21 -55.5 -33.5t-64.5 -17.5l-9 -44q-3 -16 -10 -23t-20 -7l-31 -1q-14 1 -19.5 5t-5.5 14v2.5t1 3.5v0.5v1.5v2v2l12 54q-46 14 -73.5 52.5t-27.5 88.5q0 10 1.5 20.5t3.5 21.5q9 35 30.5 68t50.5 55q8 6 17 11.5t20 10.5q10 4 21 8.5
t26 9.5l10 49q3 14 11 22t21 8h29q12 0 19 -5t7 -13v-2v-3q-1 -1 -1 -3v-4v0z" />
    <glyph glyph-name="sterling" unicode="&#xa3;" 
d="M375 318h74q13 0 20.5 -6.5t6.5 -17.5q0 -2 -0.5 -4.5t-1.5 -4.5l-8 -31q0 -1 -0.5 -1.5t-0.5 -1.5q-5 -18 -12.5 -23.5t-29.5 -5.5h-79q-5 -11 -9.5 -20t-9.5 -17q-6 -12 -13 -21.5t-16 -18.5q-6 -5 -12 -10.5t-13 -11.5q8 -1 15.5 -1.5t14.5 -1.5q15 -3 30.5 -5.5
t35.5 -7.5q10 -2 17 -3t14 -1q12 0 26 8t29 24q12 12 19.5 18.5t14.5 8.5q2 0 4.5 0.5t4.5 0.5q13 0 19 -7t6 -22q0 -13 -8 -35t-20 -45q-2 -3 -3 -5.5t-3 -5.5q-18 -32 -48 -48.5t-70 -16.5h-2.5h-2.5h-9.5h-8.5q-11 2 -29.5 8.5t-68.5 24.5q-2 1 -4.5 2t-5.5 1
q-12 5 -27.5 9.5t-41.5 11.5q-38 -22 -71 -32.5t-63 -10.5q-27 0 -45.5 18.5t-18.5 46.5q0 37 32 57t92 20h4h3q9 0 19.5 -0.5t27.5 -1.5q15 20 25 37t17 34q1 5 3 9.5t3 9.5h-65q-15 0 -24.5 7t-9.5 18q0 2 0.5 6t1.5 9l5 23q4 17 13.5 25t27.5 8h77q8 50 19.5 84.5
t29.5 59.5q27 39 77.5 64.5t104.5 28.5q4 1 8 1h8q55 0 92 -28.5t37 -69.5q0 -37 -25.5 -63.5t-60.5 -26.5q-26 0 -43.5 15t-17.5 39q0 5 0.5 8.5t1.5 7.5q1 3 3 7t5 8q-3 1 -5 1h-4q-22 0 -39 -19t-25 -54l-3 -16l-4 -15l-4 -16l-1 -5l-1 -6l-1 -5v0z" />
    <glyph glyph-name="section" unicode="&#xa7;" 
d="M414 174q5 -6 9 -11.5t7 -10.5q7 -13 10.5 -26t3.5 -28q0 -66 -59 -106.5t-154 -40.5q-73 0 -124.5 29t-51.5 69q0 27 19 47t44 20q6 0 10.5 -0.5t9.5 -2.5q8 -3 17 -11.5t24 -23.5l5.5 -5.5l4.5 -4.5q16 -14 31 -22t27 -8t22 9t10 20q0 4 -1 8t-3 8q-5 10 -17 20t-32 22
q-41 25 -66.5 44.5t-39.5 37.5q-12 16 -17 32.5t-5 37.5q0 50 27.5 93t73.5 67q-5 11 -8.5 20.5t-5.5 18.5q-1 8 -2 15.5t-1 16.5q0 67 56 110t143 43q68 0 116 -29.5t48 -70.5q0 -25 -16.5 -42.5t-39.5 -17.5q-4 0 -7 0.5t-6 1.5q-8 2 -17 9t-25 23q-2 2 -4.5 4t-4.5 4
q-16 14 -31 21.5t-27 7.5q-11 0 -20.5 -8.5t-9.5 -19.5q0 -3 0.5 -5.5t1.5 -5.5q4 -12 16 -23.5t34 -24.5q39 -24 64 -42.5t39 -36.5q13 -16 18 -33.5t5 -39.5q0 -49 -27 -92t-74 -67v0zM349 234q12 7 18 16.5t6 22.5q0 8 -2.5 15.5t-7.5 15.5q-6 8 -16.5 16.5t-25.5 18.5
q-2 1 -3.5 2t-2.5 2l-0.5 0.5l-0.5 0.5q-8 5 -18.5 12l-31.5 21q-12 -7 -18 -16.5t-6 -22.5q0 -7 2 -13.5t6 -13.5q6 -9 16.5 -18.5t27.5 -20.5q1 0 1.5 -0.5l0.5 -0.5q8 -5 18.5 -12.5t36.5 -24.5v0z" />
    <glyph glyph-name="paragraph" unicode="&#xb6;" horiz-adv-x="699" 
d="M663 563l-126 -592q-7 -32 -24.5 -48.5t-44.5 -16.5l-27 -1q-10 1 -18 -1t-15 -7q-3 -2 -6.5 -5t-6.5 -6q-1 -2 -4 -4.5t-6 -5.5l146 687h-84l-126 -592q-7 -32 -24.5 -48.5t-45.5 -16.5l-27 -1q-9 1 -16 -0.5t-14 -5.5q-4 -2 -7.5 -5.5t-8.5 -7.5q-1 -2 -3.5 -4.5
l-5.5 -5.5l98 461q-26 -34 -45.5 -53t-37.5 -26q-6 -2 -12.5 -3t-12.5 -1q-35 0 -56.5 35t-21.5 91q0 16 2 32.5t6 32.5q11 52 37.5 99t59.5 73q9 7 16.5 12.5t15.5 8.5q14 7 30 9.5t42 2.5h445q8 0 14 -4t6 -11v-0.5v-0.5q0 -2 -1 -4.5t-3 -14.5l-5 -25q-3 -15 -7.5 -21
t-12.5 -6h-63v0zM289 560q-25 2 -44.5 -24.5t-19.5 -61.5q0 -19 9 -31t25 -12q26 0 45 28t19 65q0 17 -8.5 26t-25.5 10v0z" />
    <glyph glyph-name="germandbls" unicode="&#xdf;" horiz-adv-x="544" 
d="M12 -25l95 435q21 98 89.5 156t162.5 58q74 0 120 -37t46 -96q0 -16 -3.5 -29t-10.5 -25q-5 -9 -12.5 -17.5t-17.5 -17.5q-26 -25 -37 -39t-13 -26v-2.5v-3.5v-4t1 -4q1 -10 10 -23t33 -41q14 -18 24 -34t15 -32q4 -10 5.5 -21t1.5 -22q0 -67 -53.5 -114t-128.5 -47
q-55 0 -91.5 25.5t-36.5 63.5q0 27 18 46t43 19h4.5t4.5 -1q9 -2 18 -7.5t16 -13.5q10 -11 16 -16t10 -7q2 -1 4 -1h5q14 0 23.5 9t9.5 22t-9.5 29t-32.5 42q-35 39 -50 60.5t-18 39.5q0 4 -0.5 7.5t-0.5 6.5q0 14 4.5 26.5t13.5 24.5q7 9 17 18.5t23 19.5q30 22 44.5 37.5
t17.5 29.5q1 4 1.5 7t0.5 6q0 18 -15 32t-35 14q-29 0 -45.5 -21t-27.5 -72l-83 -371q-7 -29 -25.5 -46.5t-43.5 -17.5h-44h-15t-11 -2q-6 -1 -12 -5t-16 -11q-1 -1 -3.5 -2.5t-5.5 -3.5v-1z" />
    <glyph glyph-name="registered" unicode="&#xae;" horiz-adv-x="800" 
d="M433 677q144 0 246 -100.5t102 -242.5t-102 -242.5t-246 -100.5t-246 100.5t-102 242.5t102 242.5t246 100.5v0zM431 620q-117 0 -199.5 -84t-82.5 -203q0 -118 82.5 -202t199.5 -84t199.5 84t82.5 202q0 119 -83 203t-199 84v0zM559 369l7 -1q14 -2 21 -14t7 -34v-15
q0 -7 2.5 -10.5t6.5 -3.5h4q2 1 3.5 1h2.5q4 0 6 -2t2 -6q0 -7 -3 -17t-8 -21l-4 -8l-4 -8q-12 -24 -28 -38.5t-33 -17.5q-2 -1 -4.5 -1h-4.5q-15 0 -25 13t-10 32q0 10 3 28t10 47q2 9 3 17t1 13q0 11 -5 17.5t-13 6.5v0v0h-1v0h-2h-4q-1 -2 -1.5 -3.5t-0.5 -2.5h-1v-1
q-1 -3 -3.5 -11t-12.5 -39q-21 -62 -65.5 -99.5t-98.5 -37.5q-38 0 -65 25.5t-27 61.5q0 41 32 71.5t72 30.5q13 0 20.5 -2t7.5 -7v-1.5v-0.5q0 -2 -1.5 -4.5t-6.5 -9.5q-1 -1 -2 -4t-1 -7q0 -10 7 -16.5t19 -6.5q14 0 26 7.5t24 23.5q8 12 17 29.5t18 41.5q3 8 6 15.5
t5 13.5q1 2 1.5 3.5t1.5 2.5q4 11 9 22t12 27q-28 -3 -48 -16t-20 -28q0 -2 0.5 -3.5t1.5 -2.5q0 -1 0.5 -1.5l1.5 -1.5q2 -1 3 -2.5t1 -3.5v-1.5v-1.5q-2 -8 -14 -15t-26 -9h-2.5h-2.5q-22 0 -35 10t-13 26q0 44 51.5 72.5t128.5 28.5q62 0 96 -20t34 -57q0 -31 -20.5 -50
t-58.5 -24v0zM501 390q34 2 50 14.5t16 34.5q0 15 -8.5 22t-29.5 8q-1 -3 -2.5 -6t-2.5 -6q-1 -1 -1.5 -2.5t-0.5 -2.5q-4 -9 -8.5 -22.5t-12.5 -39.5v0z" />
    <glyph glyph-name="copyright" unicode="&#xa9;" horiz-adv-x="800" 
d="M433 677q144 0 246 -100.5t102 -242.5t-102 -242.5t-246 -100.5t-246 100.5t-102 242.5t102 242.5t246 100.5v0zM431 620q-117 0 -199.5 -84t-82.5 -203q0 -118 82.5 -202t199.5 -84t199.5 84t82.5 202q0 119 -83 203t-199 84v0zM486 447q-47 -8 -81.5 -49.5t-34.5 -89.5
q0 -25 13 -40t35 -15q5 0 10.5 0.5t10.5 2.5q23 5 44.5 20.5t31.5 34.5q2 3 3.5 5.5t2.5 5.5q3 4 6.5 7t5.5 3h0.5h0.5h0.5h0.5q1 0 2 -0.5l3 -1.5q7 -4 13.5 -18.5t7.5 -30.5v-1.5v-1.5q0 -53 -50.5 -95.5t-114.5 -42.5q-61 0 -99.5 41t-38.5 105q0 89 77 158.5t175 69.5
q36 0 59.5 -20.5t23.5 -51.5q0 -25 -18.5 -41.5t-45.5 -16.5q-21 0 -35 13t-14 32v2.5v1.5q1 2 2 4.5t4 9.5v0z" />
    <glyph glyph-name="trademark" unicode="&#x2122;" horiz-adv-x="1092" 
d="M743 564l9 1h0.5h0.5h0.5h0.5q4 0 6 -2.5t2 -6.5t-3.5 -10t-9.5 -12q-3 -2 -7 -5l-8 -6q-11 -7 -23 -12t-24 -7q-7 -2 -14.5 -3t-14.5 -1q-28 0 -45.5 12.5t-27.5 39.5h-4h-4q-4 0 -6.5 0.5t-5.5 0.5q-9 1 -23.5 4t-52.5 11q-1 0 -4.5 1t-8.5 2q-3 -5 -5.5 -10t-5.5 -10
q-3 -7 -5.5 -14t-5.5 -15q-4 -11 -7.5 -24.5t-7.5 -33.5q-10 -44 -17.5 -72t-14.5 -46q-5 -14 -10.5 -24t-12.5 -19q-2 -3 -4.5 -5.5t-4.5 -5.5q-32 -37 -79.5 -58.5t-100.5 -21.5q-64 0 -103.5 33.5t-39.5 88.5q0 57 50 98.5t118 41.5q16 0 24.5 -4t8.5 -12v-3.5t-1 -2.5
q0 -2 -2 -4.5t-5 -6.5q-3 -3 -4.5 -6t-3.5 -5q-1 -3 -1.5 -6t-0.5 -6q0 -11 11.5 -20.5t25.5 -9.5q29 0 48.5 16.5t37.5 58.5q4 9 8 20t8 23q3 9 5.5 16t4.5 13q2 5 4 9t4 9q4 8 9.5 17.5t14.5 22.5q-23 6 -35 8.5t-21 3.5h-5.5h-5.5q-17 0 -29 -8t-12 -19q0 -9 4.5 -11.5
t17.5 -3.5q4 0 6.5 -2.5t2.5 -6.5q0 -6 -4.5 -13t-14.5 -15q-21 -18 -42.5 -26.5t-46.5 -8.5q-39 0 -65 24t-26 60q0 46 41 79.5t96 33.5q9 0 17 -0.5t16 -1.5q18 -2 37.5 -8.5t50.5 -18.5q13 -5 21 -8.5t15 -6.5l0.5 -0.5t1.5 -0.5l8 -4t9 -4q29 25 61.5 37.5t68.5 12.5
q8 0 15 -1t13 -2q5 -2 10.5 -3.5t10.5 -4.5l10 6t9 5q12 5 24.5 7.5t26.5 2.5q23 0 49 -6.5t60 -20.5q19 -8 31 -12t22 -5q3 -1 6.5 -1h7.5h8.5t7.5 1q5 1 9 1h8q8 0 12.5 -5.5t4.5 -13.5v-2v-2q0 -3 -2 -7.5t-6 -16.5q-2 -5 -3.5 -12t-2.5 -14q0 -5 -0.5 -9.5t-0.5 -8.5
q0 -6 0.5 -15.5t1.5 -20.5q0 -7 0.5 -12.5t0.5 -10.5q1 -4 1 -9v-11q9 16 17 30t16 26q13 18 26 33t28 29q1 2 3 3.5t4 3.5q4 3 7.5 6t7.5 6q27 23 52.5 35.5t44.5 12.5q8 0 14 -4.5t6 -12.5v-1.5v-1.5q-1 -4 -3.5 -9.5t-8.5 -16.5q-10 -17 -18.5 -35t-15.5 -37
q-11 -29 -17.5 -56.5t-6.5 -49.5q0 -21 7 -34.5t17 -13.5q2 0 4.5 0.5t4.5 1.5q5 2 8 3t5 1q4 0 7 -4.5t3 -11.5v-5.5t-1 -4.5q-4 -35 -32.5 -64t-60.5 -35q-4 0 -7 -0.5t-6 -0.5q-27 0 -42.5 21.5t-15.5 58.5v5.5v5.5q2 41 16.5 83t44.5 93q-7 -5 -13.5 -11.5t-12.5 -14.5
q-11 -14 -23 -34t-27 -51q-31 -60 -49 -84t-32 -24q-9 0 -13.5 5t-4.5 14v2.5v2.5q0 3 0.5 7t2.5 14q0 3 0.5 9.5t1.5 15.5v12t1 10v8.5v5.5q0 7 -0.5 16t-1.5 20v2v1q-1 11 -1.5 20t-0.5 12v11v8t0.5 8t1.5 11q-1 -3 -2.5 -5.5t-2.5 -4.5t-1.5 -4t-1.5 -5q-3 -6 -6 -15
t-7 -23q-9 -31 -12 -42t-5 -18q-2 -6 -4 -14t-8 -28q-24 -79 -81 -123.5t-135 -44.5q-64 0 -104 35t-40 90q0 58 47.5 97.5t115.5 39.5q23 0 35.5 -5.5t12.5 -15.5q0 -2 -0.5 -3t-0.5 -2q-1 -2 -3.5 -3.5t-5.5 -4.5q-4 -3 -7.5 -7.5t-4.5 -9.5q-1 -1 -1 -2.5v-3.5
q0 -12 11.5 -20.5t27.5 -8.5q12 0 22 4t20 13q12 12 25.5 34t30.5 58q13 29 20 43.5t13 23.5l2 4t3 4q3 5 7 10.5t10 12.5q-20 5 -34.5 7.5t-22.5 2.5q-17 0 -27.5 -7.5t-10.5 -18.5q0 -6 4 -10t9 -4v0h1v0v0v0zM497 609q21 -6 36 -9t25 -3q15 0 24 6t10 16q1 9 -7 14t-22 5
q-7 0 -13 -1t-13 -3q-9 -3 -18.5 -9t-21.5 -16v0z" />
    <glyph glyph-name="acute" unicode="&#xb4;" horiz-adv-x="500" 
d="M273 483l99 64q6 4 8 5.5t4 2.5h2.5h3.5q6 0 11 -2.5t8 -5.5l18 -27q4 -6 5.5 -8.5t2.5 -3.5v-2v-2q0 -6 -3.5 -11t-11.5 -10l-103 -61q-4 -2 -7.5 -3.5t-6.5 -1.5q-2 0 -4.5 0.5t-5.5 2.5q-4 1 -7 4l-6 6l-14 20q-1 1 -2 2.5t-1 2.5q-2 3 -2.5 5.5t-0.5 4.5t0.5 3.5
t1.5 2.5q1 3 4 6.5t7 5.5v0z" />
    <glyph glyph-name="dieresis" unicode="&#xa8;" horiz-adv-x="500" 
d="M239 542q25 0 42.5 -17.5t17.5 -42.5t-17.5 -42.5t-42.5 -17.5t-42.5 17.5t-17.5 42.5t17.5 42.5t42.5 17.5v0zM407 542q25 0 42.5 -17.5t17.5 -42.5t-17.5 -42.5t-42.5 -17.5t-42.5 17.5t-17.5 42.5t17.5 42.5t42.5 17.5v0z" />
    <glyph glyph-name="AE" unicode="&#xc6;" horiz-adv-x="1264" 
d="M1002 510q-30 -19 -45.5 -42.5t-15.5 -51.5q0 -4 0.5 -8.5t1.5 -8.5q1 -8 5 -16.5t11 -20.5q12 6 22.5 10t20.5 7t21 4t25 1q43 0 68.5 -13t25.5 -36q0 -25 -30 -43.5t-72 -18.5q-7 0 -13.5 0.5t-12.5 0.5q-9 1 -19 3t-22 5q-60 -29 -86.5 -61.5t-26.5 -77.5
q0 -43 29 -73.5t70 -30.5q29 0 51 19t22 43q0 11 -3.5 15.5t-15.5 7.5q-3 1 -6 1.5t-7 1.5q-7 2 -10.5 6.5t-3.5 10.5q2 26 32 47t66 21q54 0 93.5 -40t39.5 -94q0 -84 -75.5 -144.5t-180.5 -60.5q-110 0 -182.5 62.5t-72.5 156.5q0 44 17.5 85.5t51.5 82.5q-8 2 -15 2.5
t-12 0.5q-3 0 -6.5 -0.5t-7.5 -0.5q-15 -3 -30 -10.5t-26 -19.5q-5 -5 -10 -11l-10 -12q-11 -16 -23.5 -39.5t-31.5 -64.5q-11 -24 -21.5 -43.5t-20.5 -35.5q-18 -27 -36.5 -47t-41.5 -37q-40 -30 -90 -48.5t-102 -23.5q-8 0 -15.5 -0.5t-14.5 -0.5q-95 0 -158 54t-63 135
q0 102 84 182t191 80q26 0 39 -7t13 -21v-2.5v-2.5q-1 -4 -4.5 -9l-10.5 -15q-8 -11 -13 -22t-5 -19q0 -18 15 -31.5t36 -13.5q19 0 43.5 9.5t50.5 26.5q16 10 32 22t30 26l6 6t6 7q19 19 39 42t48 60q18 23 33.5 43t27.5 36q9 12 15.5 20.5t12.5 14.5q2 3 5 5.5t6 5.5t7 6
t9 6q-26 8 -53.5 12.5t-56.5 4.5q-36 0 -61 -14.5t-25 -35.5q0 -9 6 -14.5t17 -8.5q2 0 3.5 -0.5t2.5 -1.5q10 -3 14 -7t4 -11q0 -5 -3 -11.5t-8 -13.5q-3 -4 -6.5 -7.5t-8.5 -7.5q-23 -20 -52.5 -34t-59.5 -20q-11 -2 -21 -3t-20 -1q-59 0 -103.5 40.5t-44.5 95.5
q0 77 62 134.5t147 57.5q41 0 90.5 -10t122.5 -35q38 -13 63.5 -20t49.5 -11q20 -3 43 -4.5t55 -1.5q29 15 52 23.5t46 12.5q12 3 24.5 4t25.5 1q60 0 104.5 -23.5t44.5 -55.5q0 -25 -31 -43.5t-75 -18.5q-15 0 -29 2t-28 6q-11 3 -22 7t-23 10v0zM851 340q-7 17 -10.5 28.5
t-5.5 21.5q0 5 -0.5 10.5t-0.5 11.5q0 18 2 31t7 25q2 6 5.5 12t7.5 13q-9 -6 -18 -12.5t-18 -15.5q-18 -17 -37.5 -43.5t-44.5 -67.5q-1 -3 -4 -8t-8 -12q28 7 43.5 9.5t29.5 3.5h2.5h3.5h5.5h4.5q7 -1 15.5 -2.5t20.5 -4.5v0z" />
    <glyph glyph-name="Oslash" unicode="&#xd8;" horiz-adv-x="735" 
d="M716 582l-55 -60q5 -7 9 -13.5t8 -12.5q20 -35 29 -72.5t9 -86.5q0 -179 -119 -308t-283 -129q-55 0 -97.5 14t-77.5 44l-52 -60q-4 -4 -9 -6.5t-11 -2.5h-2.5t-3.5 1q-3 1 -5.5 2.5t-6.5 5.5l-39 33l-4.5 6t-3.5 4q-1 3 -1.5 5t-0.5 5v0.5v1.5v3t1 2q0 2 3 5l9 9l60 65
q-13 23 -20 52.5t-7 66.5q0 56 19 102.5t56 79.5q9 8 18 15t19 12q15 9 29 14t25 5t18.5 -7t7.5 -16q0 -4 -2 -9.5t-5 -11.5q-6 -11 -9.5 -20.5t-5.5 -18.5q-1 -4 -1.5 -8.5t-0.5 -9.5q0 -44 35 -73t87 -29q73 0 127.5 58.5t54.5 136.5q0 50 -25 80t-66 30q-28 0 -46 -17.5
t-18 -43.5q0 -19 12 -31.5t30 -12.5h5.5t4.5 1q5 1 7.5 1h4.5q8 0 13 -5.5t5 -13.5q0 -19 -26 -34.5t-57 -17.5h-2.5h-2.5q-49 0 -86.5 40t-37.5 91q0 79 66 132t163 53q24 0 44 -3t39 -10q10 -4 20.5 -9t21.5 -11l55 60l5.5 5.5t4.5 3.5q2 2 4.5 2.5t5.5 0.5q4 0 7.5 -2
t7.5 -6l42 -39q2 -2 3.5 -4t2.5 -4t1.5 -4t0.5 -4t-1 -5t-3 -7q-1 -3 -3 -5.5t-4 -4.5v0z" />
    <glyph glyph-name="plusminus" unicode="&#xb1;" 
d="M127 114h334q12 0 17.5 -5t6.5 -16v-2.5v-2.5q0 -2 -0.5 -3t-0.5 -3l-7 -23q-4 -13 -12 -19t-23 -6h-339q-14 0 -20 5t-6 17v2v2l0.5 1t0.5 2l7 26q5 16 12.5 20.5t29.5 4.5v0zM236 372v108q0 15 6 22.5t19 11.5l23 7q2 0 3 0.5t3 0.5h2.5h2.5q12 -1 16.5 -6.5t4.5 -17.5
v-126h145q12 0 17.5 -5t6.5 -16v-2.5v-2.5q0 -2 -0.5 -3t-0.5 -3l-7 -23q-4 -13 -12 -19t-23 -6h-126v-101q0 -22 -4.5 -29.5t-20.5 -12.5l-26 -7h-2h-1q-1 -1 -2 -1h-2q-11 -1 -16.5 6t-5.5 20v125h-133q-14 0 -20.5 5.5t-5.5 16.5v2t1 2v1v2l7 26q5 16 12.5 20.5t29.5 4.5
h109v0z" />
    <glyph glyph-name="yen" unicode="&#xa5;" horiz-adv-x="651" 
d="M543 352h52q11 0 16.5 -5t6.5 -16v-2.5v-2.5q0 -2 -0.5 -3t-0.5 -3l-7 -23q-4 -13 -11.5 -19t-22.5 -6h-68l-26 -60q-21 -49 -25.5 -60t-5.5 -14q0 -1 -1 -2.5t-2 -4.5q-38 -82 -88.5 -118t-126.5 -36q-67 0 -106 26.5t-39 72.5q0 32 14 54t48 42l4 2l4 2q8 -37 23.5 -51
t46.5 -14h2h2q26 1 48.5 15t31.5 33l21 48q-11 -5 -21 -8.5t-19 -4.5q-5 -1 -10.5 -1.5t-11.5 -0.5q-38 0 -59 19t-30 61h-83q-14 0 -20 5t-6 17v4t1 3l7 26q5 16 12.5 20.5t29.5 4.5h43q-1 6 -1.5 11t-0.5 7q-2 14 -3.5 25.5t-2.5 20.5q-5 35 -12.5 44.5t-26.5 13.5
q-1 0 -1.5 0.5t-1.5 0.5q-7 2 -12.5 4t-9.5 4l-2 2t-1 2q0 2 5 8.5t13 14.5q14 15 32.5 28t38.5 20q13 5 25.5 8t23.5 3q38 0 55 -22t17 -74v-17v-14q0 -13 1 -30.5t2 -55.5q1 -36 6.5 -47t23.5 -11q19 0 34.5 15.5t28.5 47.5l45 110q3 8 6.5 15l6.5 13q14 26 32 33.5
t57 7.5h40h4.5h4.5q8 1 16.5 4t21.5 9l-88 -201v0z" />
    <glyph glyph-name="mu" unicode="&#xb5;" horiz-adv-x="517" 
d="M151 -9l5 -43q1 -8 2 -15t2 -13q2 -16 5 -22.5t11 -11.5q1 -1 2.5 -1.5t2.5 -1.5q-36 -29 -69 -43.5t-65 -14.5q-26 0 -41 13.5t-15 36.5q0 4 0.5 9t1.5 10l79 370q0 2 0.5 3.5t0.5 3.5q1 5 1.5 10t0.5 8q0 11 -4 18.5t-14 14.5l-3 1.5l-3 1.5q12 9 24 17.5t24 15.5
q23 12 44.5 19t40.5 7q28 0 43 -14.5t15 -41.5q0 -1 -0.5 -3.5t-0.5 -4.5q0 -1 -0.5 -2t-0.5 -2l-29 -139q-1 -3 -1.5 -5.5t-0.5 -4.5v-4.5v-5.5q0 -12 7.5 -19t18.5 -7q22 0 35 14.5t20 46.5l18 72q0 2 0.5 3.5t0.5 3.5q1 5 1.5 10t0.5 9q0 10 -3.5 17t-13.5 13
q-2 1 -4.5 2.5t-5.5 2.5q39 31 72 45t64 14q26 0 41.5 -14t15.5 -38v-7v-5q0 -1 -0.5 -2t-0.5 -2l-35 -157q-1 -10 -2.5 -18t-1.5 -13q0 -13 8 -21.5t20 -8.5q5 0 10 1.5t11 3.5q7 3 13 4.5t10 1.5q7 0 11.5 -5t4.5 -12t-4 -15.5t-12 -17.5q-6 -8 -14.5 -15t-18.5 -14
q-15 -10 -31.5 -18t-33.5 -13q-15 -4 -29.5 -6.5t-28.5 -2.5q-35 0 -57 18t-24 49q-18 -15 -37 -28t-38 -22q-12 -5 -23.5 -8.5t-22.5 -6.5v-1z" />
    <glyph glyph-name="ordfeminine" unicode="&#xaa;" horiz-adv-x="373" 
d="M118 300h189q14 0 22.5 -3t8.5 -8v-1v0v-2t-1 -3l-3 -12q-1 -6 -11 -9.5t-27 -3.5h-192q-17 0 -24.5 2.5t-8.5 9.5v3l3 14q2 7 12 10t32 3v0zM344 521l-21 -93q-1 -6 -2 -11t-1 -8q0 -6 4.5 -10.5t11.5 -4.5q3 0 6 0.5t6 1.5q5 2 8.5 3t4.5 1q4 0 7 -3t3 -8
q-1 -5 -5.5 -11.5t-12.5 -13.5q-10 -8 -21.5 -14.5t-23.5 -10.5q-8 -3 -16.5 -4.5t-16.5 -1.5q-21 0 -34.5 13t-13.5 32v5.5t1 7.5q-18 -22 -32 -35t-28 -18q-6 -3 -13 -4.5t-14 -1.5q-24 0 -40.5 21t-16.5 52q0 56 39.5 102.5t87.5 46.5q17 0 31.5 -6t25.5 -19
q16 11 25 16.5t17 6.5q2 1 4.5 1h5.5q12 0 19 -6t7 -15q0 -2 -0.5 -5t-1.5 -6v0zM227 502q-16 0 -27 -13.5t-11 -32.5q0 -10 6.5 -16.5t16.5 -6.5q14 0 25.5 15t11.5 33q0 10 -5.5 15.5t-16.5 5.5v0z" />
    <glyph glyph-name="ordmasculine" unicode="&#xba;" horiz-adv-x="373" 
d="M116 300h189q14 0 22.5 -3t8.5 -8v-1v0v-2t-1 -3l-3 -12q-1 -6 -11 -9.5t-27 -3.5h-192q-17 0 -24.5 2.5t-8.5 9.5v3l3 14q2 7 12 10t32 3v0zM252 553q43 0 69 -24.5t26 -65.5q0 -54 -40.5 -92t-98.5 -38q-43 0 -69.5 25.5t-26.5 65.5q0 53 41 91t99 38v0zM244 504
q-15 0 -26.5 -14t-11.5 -31q0 -12 7 -19.5t17 -7.5q15 0 27 13.5t12 31.5q0 12 -7 19.5t-18 7.5v0z" />
    <glyph glyph-name="ae" unicode="&#xe6;" horiz-adv-x="640" 
d="M419 141h-17q1 -22 14 -35.5t35 -13.5q17 0 43.5 9t54.5 24q25 13 35 18t17 6h3.5h3.5q12 0 19 -7t7 -18q0 -13 -14.5 -30.5t-46.5 -42.5q-25 -19 -51 -32t-52 -20q-16 -4 -32 -6.5t-31 -2.5q-42 0 -70.5 15.5t-44.5 46.5q-35 -26 -64 -41t-56 -21q-10 -2 -20 -3t-21 -1
q-45 0 -77.5 33.5t-32.5 80.5q0 64 57.5 104t148.5 40h9h9q7 -1 15.5 -2t19.5 -2q2 5 2.5 9.5t0.5 6.5q0 17 -14.5 28.5t-35.5 11.5h-4.5h-4.5q-16 -2 -33 -8.5t-44 -21.5q-9 -5 -17.5 -8t-15.5 -3q-13 0 -22 10.5t-9 26.5q0 42 42 69t106 27q47 0 79 -14t54 -43
q32 26 66.5 38.5t72.5 12.5q51 0 84.5 -27.5t33.5 -69.5q0 -58 -59.5 -101t-142.5 -43v0zM269 169q-39 0 -59 -10.5t-20 -31.5q0 -11 8.5 -18.5t21.5 -7.5q19 0 30 15.5t19 52.5v0zM418 233q42 2 61 12.5t19 29.5q0 10 -5.5 15.5t-16.5 5.5q-18 0 -32.5 -16t-25.5 -47v0z
" />
    <glyph glyph-name="oslash" unicode="&#xf8;" horiz-adv-x="440" 
d="M457 335l-43 -39q5 -12 8 -22t4 -19q2 -8 2.5 -16t0.5 -17q0 -94 -70 -162.5t-165 -68.5q-16 0 -29.5 1.5t-25.5 5.5q-8 2 -16.5 5t-17.5 8l-33 -32q-3 -3 -8 -5.5t-10 -3.5q-2 -1 -4 -1h-4t-4.5 0.5t-5.5 2.5q-3 1 -5.5 3t-4.5 5l-26 26q-2 3 -3.5 6.5t-2.5 7.5
q-1 1 -1 3v4t0.5 3.5t0.5 3.5q2 3 4 6.5t6 7.5l39 35q-4 11 -7 19t-5 17q-2 8 -2.5 16.5t-0.5 18.5q0 94 70.5 163t166.5 69q13 0 24 -1t21 -4q9 -2 18 -6t20 -9l40 39q2 2 6 4t9 3q2 0 4.5 0.5t4.5 0.5t4 -0.5t4 -1.5q4 -1 7.5 -2.5t4.5 -3.5l25 -29q5 -5 7 -8t3 -5t1 -3.5
v-3.5t-0.5 -3.5t-0.5 -3.5q-2 -4 -4 -7.5t-6 -6.5v0zM253 288q-21 2 -38 -19.5t-17 -49.5q0 -17 10 -28.5t26 -11.5q20 0 35.5 21t15.5 49q0 18 -8 28t-24 11v0z" />
    <glyph glyph-name="questiondown" unicode="&#xbf;" horiz-adv-x="457" 
d="M250 196h44q24 0 33.5 -7t9.5 -25q0 -33 -22 -61.5t-68 -53.5q-32 -18 -47 -36t-15 -40q0 -24 15.5 -39.5t40.5 -15.5q9 0 16 2t14 6q5 3 9.5 7t9.5 10q-16 6 -24.5 17.5t-8.5 30.5q0 28 26.5 51.5t58.5 23.5t54.5 -21.5t22.5 -52.5q0 -68 -70 -117t-168 -49
q-68 0 -112.5 39t-44.5 98q0 52 34 91t105 68q5 2 8.5 3.5t7.5 3.5q9 5 14.5 11t10.5 16q0 2 0.5 3l1.5 3q2 4 3.5 7.5t3.5 6.5q7 12 15 16t22 4v0zM306 383q34 0 55.5 -22t21.5 -56q0 -37 -28 -65t-66 -28q-32 0 -54.5 21t-22.5 51q0 41 28 70t66 29v0z" />
    <glyph glyph-name="exclamdown" unicode="&#xa1;" horiz-adv-x="287" 
d="M232 144l-3 -127q-2 -94 -32.5 -142.5t-89.5 -48.5q-37 0 -61.5 24t-24.5 60v8.5t1 7.5q1 9 5.5 22.5t15.5 43.5l64 163q1 3 2 5.5t3 5.5q6 14 14.5 19t25.5 5h51q14 0 21.5 -7t7.5 -21v-18v0zM210 380q34 0 55.5 -22t21.5 -56q0 -37 -28 -65t-66 -28q-32 0 -54.5 21
t-22.5 51q0 41 28 70t66 29v0z" />
    <glyph glyph-name="logicalnot" unicode="&#xac;" horiz-adv-x="500" 
d="M373 0v192h-353v75h433v-267h-80v0z" />
    <glyph glyph-name="florin" unicode="&#x192;" 
d="M340 220l-32 -157q-25 -117 -102 -189.5t-178 -72.5q-56 0 -92.5 27t-36.5 70q0 30 16.5 52t51.5 41q3 -29 20 -45.5t44 -16.5q46 0 82.5 40t49.5 105l31 146h-71q-10 0 -16.5 7.5t-6.5 20.5v3.5t1 2.5l5 26q4 17 14 27t24 10h49q2 0 4.5 1t5.5 3t5 4l4 4q1 1 1.5 2
t1.5 1q1 1 1.5 2.5t1.5 2.5q2 4 5 13t9 28q26 83 91 136t141 53q50 0 79 -25t29 -68q0 -34 -22.5 -60t-53.5 -26q-26 0 -43 17t-17 43q0 3 0.5 6t0.5 6q1 6 3.5 12.5t6.5 14.5q-31 -7 -46 -26.5t-24 -65.5l-16 -78h72q14 0 20.5 -6t7.5 -18v-3v-3q0 -2 -0.5 -3.5t-0.5 -3.5
l-5 -26q-4 -16 -14 -25t-24 -9h-77v0z" />
    <glyph glyph-name="guillemotleft" unicode="&#xab;" horiz-adv-x="342" 
d="M144 219l15 -118l1 -6q1 -10 -6.5 -16t-18.5 -6h-34q-13 0 -21.5 8t-10.5 21l-9 83v2v2q-1 6 -1.5 11t-0.5 8q0 9 3 18t8 18l62 106q1 2 2.5 4.5t2.5 3.5q8 12 16.5 16t22.5 4h26q11 0 16.5 -4t5.5 -11q0 -4 -2 -9.5t-5 -10.5l-72 -124v0zM268 219l15 -118l1 -6
q1 -10 -6.5 -16t-18.5 -6h-34q-13 0 -21.5 8t-10.5 21l-9 83q0 2 -0.5 3.5t-0.5 2.5q0 5 -0.5 9.5t-0.5 6.5q0 4 0.5 7.5t1.5 7.5q1 6 3.5 11.5t5.5 10.5l62 106q1 2 2.5 4.5t2.5 3.5q8 12 16.5 16t22.5 4h26q11 0 16.5 -4t5.5 -11q0 -4 -2 -9t-5 -11l-72 -124v0z" />
    <glyph glyph-name="guillemotright" unicode="&#xbb;" horiz-adv-x="341" 
d="M114 232l-15 117q-1 2 -1 4v3q-1 10 6.5 16t18.5 6h33q14 0 23 -7.5t10 -21.5l9 -83v-2v-1q1 -6 1.5 -11.5t0.5 -7.5q0 -4 -0.5 -9t-2.5 -9q-1 -5 -3 -9.5t-5 -9.5l-62 -106q-1 -2 -2.5 -4t-2.5 -4q-7 -12 -16 -16t-24 -4h-25q-10 0 -16 4t-6 11q0 3 1 7t3 8q1 1 1.5 2.5
t1.5 2.5l72 124v0zM238 232l-15 117q-1 2 -1 4v3q-1 10 6.5 16t18.5 6h33q14 0 23 -7.5t10 -21.5l9 -83v-2.5t1 -3.5q0 -5 0.5 -10t0.5 -7q0 -9 -3 -18t-8 -18l-62 -106q-1 -2 -2.5 -4t-2.5 -4q-7 -12 -16 -16t-24 -4h-25q-10 0 -16 4t-6 11q0 3 1 7t3 8q1 1 1.5 2.5
t1.5 2.5l72 124v0z" />
    <glyph glyph-name="ellipsis" unicode="&#x2026;" horiz-adv-x="810" 
d="M151 148q32 0 53 -19.5t21 -49.5q0 -37 -26.5 -61.5t-65.5 -24.5q-32 0 -51.5 17.5t-19.5 48.5q0 36 26.5 62.5t62.5 26.5v0zM421 148q32 0 53 -19.5t21 -49.5q0 -37 -26.5 -61.5t-65.5 -24.5q-32 0 -51.5 17.5t-19.5 48.5q0 36 26.5 62.5t62.5 26.5v0zM691 148
q32 0 53 -19.5t21 -49.5q0 -37 -26.5 -61.5t-65.5 -24.5q-32 0 -51.5 17.5t-19.5 48.5q0 36 26.5 62.5t62.5 26.5v0z" />
    <glyph glyph-name="Agrave" unicode="&#xc0;" horiz-adv-x="968" 
d="M707 522q-11 2 -19.5 3.5t-16.5 2.5q-5 1 -10 1h-11q-41 0 -66 -13t-26 -35q-1 -10 7 -16t25 -8q9 -1 14 -5t5 -11v-0.5v-0.5v-0.5v-0.5q0 -3 -0.5 -5.5t-1.5 -4.5q-3 -8 -9 -16t-16 -17q-34 -28 -70 -43t-73 -15q-65 0 -107.5 39.5t-42.5 99.5q0 76 65 133t151 57
q38 0 83.5 -10t105.5 -33q46 -16 69 -23t42 -8q3 -1 6.5 -1h7.5h10.5t9.5 1q5 0 9.5 0.5t10.5 1.5q13 2 23.5 3.5t15.5 1.5q20 0 34 -12.5t14 -30.5v-1.5v-1.5v-3.5v-3.5q-1 -7 -7 -17.5t-24 -43.5q-14 -24 -26 -59.5t-22 -72.5q-7 -31 -11.5 -61t-4.5 -53q0 -34 13.5 -57.5
t32.5 -23.5q4 0 8 1t9 2q5 2 9 3t7 1q8 0 14 -7.5t6 -17.5q0 -57 -45 -104t-99 -49h-1.5h-1.5q-49 0 -75.5 32.5t-26.5 91.5q0 12 2 29.5t5 36.5q0 1 0.5 3t0.5 4q0 3 0.5 5t0.5 4v2.5v2.5q0 11 -8.5 18.5t-20.5 7.5q-14 0 -24 -6.5t-19 -23.5q-5 -7 -9 -17t-9 -23
q-4 -10 -12.5 -29t-19.5 -39q-1 -3 -2.5 -6l-2.5 -5l-2 -4l-2 -4q-47 -94 -129 -146.5t-183 -52.5q-99 0 -163 54.5t-64 137.5q0 68 42 129.5t111 96.5q11 6 23 10.5t25 8.5q20 7 39.5 10.5t35.5 3.5q19 0 31 -7.5t12 -18.5v-0.5v-0.5v-3v-3q-1 -3 -5 -8.5t-15 -20.5
q-4 -5 -6 -11.5t-2 -14.5q0 -21 18.5 -36t44.5 -15q10 0 20 1.5t19 5.5q37 14 77 60.5t100 142.5q20 31 32.5 50t23.5 34q2 3 4.5 5.5t4.5 5.5q7 8 14.5 16.5t17.5 19.5v0zM677 310q8 3 13 4t9 1h1.5h1.5h3.5h3.5q6 -1 11.5 -2.5t13.5 -4.5q5 18 11.5 37.5t14.5 39.5
q12 32 25.5 63.5t27.5 58.5q-31 -29 -58.5 -65t-48.5 -73q-9 -15 -16 -30t-13 -29v0zM892 715l-15 -20q-3 -5 -7.5 -8t-9.5 -4q-1 -1 -2.5 -1h-2.5q-3 0 -6 1t-8 4l-103 61q-7 4 -11 9.5t-4 11.5v2v2q1 1 2 3.5t5 8.5l19 27q2 3 7.5 5.5t11.5 2.5h0.5h0.5h2h1q2 0 5 -1.5
t9 -6.5l99 -64q7 -4 10 -8.5t3 -9.5q0 -2 -0.5 -4.5t-2.5 -5.5q0 -1 -1 -2.5t-2 -2.5v0z" />
    <glyph glyph-name="Atilde" unicode="&#xc3;" horiz-adv-x="968" 
d="M707 522q-11 2 -19.5 3.5t-16.5 2.5q-5 1 -10 1h-11q-41 0 -66 -13t-26 -35q-1 -10 7 -16t25 -8q9 -1 14 -5t5 -11v-0.5v-0.5v-0.5v-0.5q0 -3 -0.5 -5.5t-1.5 -4.5q-3 -8 -9 -16t-16 -17q-34 -28 -70 -43t-73 -15q-65 0 -107.5 39.5t-42.5 99.5q0 76 65 133t151 57
q38 0 83.5 -10t105.5 -33q46 -16 69 -23t42 -8q3 -1 6.5 -1h7.5h10.5t9.5 1q5 0 9.5 0.5t10.5 1.5q13 2 23.5 3.5t15.5 1.5q20 0 34 -12.5t14 -30.5v-1.5v-1.5v-3.5v-3.5q-1 -7 -7 -17.5t-24 -43.5q-14 -24 -26 -59.5t-22 -72.5q-7 -31 -11.5 -61t-4.5 -53q0 -34 13.5 -57.5
t32.5 -23.5q4 0 8 1t9 2q5 2 9 3t7 1q8 0 14 -7.5t6 -17.5q0 -57 -45 -104t-99 -49h-1.5h-1.5q-49 0 -75.5 32.5t-26.5 91.5q0 12 2 29.5t5 36.5q0 1 0.5 3t0.5 4q0 3 0.5 5t0.5 4v2.5v2.5q0 11 -8.5 18.5t-20.5 7.5q-14 0 -24 -6.5t-19 -23.5q-5 -7 -9 -17t-9 -23
q-4 -10 -12.5 -29t-19.5 -39q-1 -3 -2.5 -6l-2.5 -5l-2 -4l-2 -4q-47 -94 -129 -146.5t-183 -52.5q-99 0 -163 54.5t-64 137.5q0 68 42 129.5t111 96.5q11 6 23 10.5t25 8.5q20 7 39.5 10.5t35.5 3.5q19 0 31 -7.5t12 -18.5v-0.5v-0.5v-3v-3q-1 -3 -5 -8.5t-15 -20.5
q-4 -5 -6 -11.5t-2 -14.5q0 -21 18.5 -36t44.5 -15q10 0 20 1.5t19 5.5q37 14 77 60.5t100 142.5q20 31 32.5 50t23.5 34q2 3 4.5 5.5t4.5 5.5q7 8 14.5 16.5t17.5 19.5v0zM677 310q8 3 13 4t9 1h1.5h1.5h3.5h3.5q6 -1 11.5 -2.5t13.5 -4.5q5 18 11.5 37.5t14.5 39.5
q12 32 25.5 63.5t27.5 58.5q-31 -29 -58.5 -65t-48.5 -73q-9 -15 -16 -30t-13 -29v0zM739 702h-32q-10 0 -16 6.5t-6 16.5q0 32 28 57.5t63 25.5h9.5t8.5 -1q11 -2 25 -8.5t44 -21.5q3 -1 5.5 -2.5t5.5 -1.5q3 -1 5.5 -1.5t5.5 -0.5q4 0 6.5 0.5t4.5 1.5q3 2 6 6.5t8 13.5
q3 5 8.5 6.5t16.5 1.5h26q13 0 20.5 -6t6.5 -16q-2 -31 -29 -56.5t-58 -28.5h-3.5h-2.5q-5 0 -9.5 0.5t-8.5 0.5q-12 2 -26 8.5t-40 20.5l-4 2l-4 2q-5 2 -10.5 3.5t-10.5 1.5q-4 0 -7.5 -1.5t-6.5 -4.5q-2 -2 -3.5 -4t-3.5 -5q-1 -2 -2.5 -4t-2.5 -4q-4 -4 -8 -6t-9 -2v0z
" />
    <glyph glyph-name="Otilde" unicode="&#xd5;" horiz-adv-x="726" 
d="M394 380l31 3q2 0 4.5 -1.5t4.5 -3.5q3 -3 4.5 -6.5t1.5 -7.5v-1.5v-1.5q-2 -19 -28.5 -34.5t-57.5 -15.5q-51 0 -88.5 40t-37.5 95q0 74 67 128t158 54q115 0 186 -81t71 -212q0 -181 -117.5 -308t-286.5 -127q-119 0 -192.5 71t-73.5 186q0 48 15 90t44 75
q12 13 24.5 24t24.5 19q15 8 29 13t27 5t21 -6t8 -14q0 -4 -2 -9t-5 -10q-6 -10 -10 -18t-6 -15q-1 -4 -1.5 -9t-0.5 -11q0 -49 34 -80t88 -31q71 0 127.5 60t56.5 135q0 50 -25 81.5t-64 31.5q-28 0 -48.5 -18.5t-20.5 -44.5q0 -12 6.5 -22.5t16.5 -17.5q1 -1 2.5 -1.5
t2.5 -1.5q3 -1 6 -1.5t4 -0.5v0zM385 702h-32q-10 0 -16 6.5t-6 16.5q0 32 28 57.5t63 25.5h9.5t8.5 -1q11 -2 25 -8.5t44 -21.5q3 -1 5.5 -2.5t5.5 -1.5q3 -1 5.5 -1.5t5.5 -0.5q4 0 6.5 0.5t4.5 1.5q3 2 6 6.5t8 13.5q3 5 8.5 6.5t16.5 1.5h26q13 0 20.5 -6t6.5 -16
q-2 -31 -29 -56.5t-58 -28.5h-3.5h-2.5q-5 0 -9.5 0.5t-8.5 0.5q-12 2 -26 8.5t-40 20.5l-4 2l-4 2q-5 2 -10.5 3.5t-10.5 1.5q-4 0 -7.5 -1.5t-6.5 -4.5q-2 -2 -3.5 -4t-3.5 -5q-1 -2 -2.5 -4t-2.5 -4q-4 -4 -8 -6t-9 -2v0z" />
    <glyph glyph-name="OE" unicode="&#x152;" horiz-adv-x="1049" 
d="M424 462l24 3h0.5h0.5h0.5h0.5q5 0 8 -4.5t3 -9.5q0 -22 -38.5 -40t-85.5 -18q-73 0 -119 40.5t-46 104.5q0 67 50.5 114t122.5 47q10 0 20 -0.5t20 -1.5q45 -5 94 -22t119 -53q29 -15 45.5 -23t30.5 -14q1 0 2.5 -1t3.5 -1q4 -2 7.5 -3t7.5 -3q43 25 77.5 39t67.5 20
q12 2 24.5 3t25.5 1q71 0 120 -34t49 -83q0 -43 -37.5 -70.5t-96.5 -27.5q-43 0 -90 11.5t-100 34.5q-7 -16 -11 -26t-5 -19v-4v-4v-3.5v-2.5q1 -7 3 -14t6 -17q37 8 57.5 11t37.5 4h4h4q44 0 77 -16t33 -37q0 -24 -29.5 -38t-80.5 -14q-16 0 -33.5 2.5t-44.5 6.5
q-62 -37 -95 -71.5t-40 -67.5q-1 -5 -1.5 -9.5t-0.5 -9.5q0 -29 20.5 -47.5t53.5 -18.5q32 0 54.5 17t22.5 40q0 12 -8 21.5t-19 9.5q-2 0 -6 -0.5t-9 -1.5q-3 -1 -6 -1.5t-7 -0.5q-7 0 -12 5t-5 13q0 4 1.5 8.5t3.5 8.5q12 20 43 37t67 23q7 2 14 2.5t14 0.5q68 0 114 -47
t46 -116q0 -99 -86 -165t-217 -66q-81 0 -136 23.5t-91 73.5q-24 -11 -44 -18.5t-39 -12.5q-17 -4 -35 -5.5t-39 -1.5q-121 0 -196 68t-75 179q0 89 52.5 160t116.5 71q10 0 15.5 -4t5.5 -12q0 -3 -1.5 -7t-3.5 -9q-10 -21 -14.5 -34t-5.5 -25v-2.5v-2.5q0 -40 39 -73.5
t88 -33.5q90 0 157.5 73t67.5 170q0 47 -27 78.5t-67 31.5q-27 0 -44.5 -15.5t-17.5 -40.5q0 -7 1.5 -11.5t5.5 -9.5q1 -2 3 -3.5t3 -3.5q3 -2 6 -3.5t4 -1.5v0zM801 531q4 -3 8.5 -5t8.5 -4q17 -9 33.5 -13.5t29.5 -4.5q12 0 21.5 6.5t9.5 14.5q0 11 -13.5 18.5t-32.5 7.5
q-11 0 -20 -1.5t-18 -4.5q-6 -2 -13 -5.5t-14 -8.5v0z" />
    <glyph glyph-name="oe" unicode="&#x153;" horiz-adv-x="668" 
d="M390 336q28 25 61.5 38t71.5 13q55 0 90 -29t35 -75q0 -37 -26 -66.5t-77 -52.5q-7 -3 -13.5 -5.5t-12.5 -4.5q-19 -6 -40 -8.5t-49 -3.5q-1 -4 -1.5 -7t-0.5 -6q-1 -15 13 -24t39 -9q10 0 19.5 1t17.5 3q19 4 40 14.5t54 30.5q3 2 6 3.5l5 2.5q5 1 9 2t8 1q11 0 17 -5.5
t6 -15.5q0 -13 -9 -28.5t-26 -32.5q-5 -4 -9.5 -8t-9.5 -8q-17 -14 -35.5 -25t-36.5 -20q-25 -11 -50 -17t-49 -6q-34 0 -60.5 9.5t-51.5 31.5q-29 -20 -62 -29.5t-70 -9.5q-73 0 -119 46.5t-46 119.5q0 93 70.5 160t168.5 67q38 0 67 -11t56 -36v0zM252 285
q-21 0 -37 -19.5t-16 -45.5q0 -19 10 -31t26 -12q20 0 36 20.5t16 47.5q0 18 -9.5 29t-25.5 11v0zM444 232q38 4 58.5 16t20.5 30q0 9 -6 15t-15 6q-18 0 -34 -18.5t-24 -48.5v0z" />
    <glyph glyph-name="emdash" unicode="&#x2014;" horiz-adv-x="632" 
d="M62 252h558q12 0 18 -5t6 -16v-3.5v-3.5q0 -1 -0.5 -2t-0.5 -2l-7 -23q-4 -13 -12 -19t-23 -6h-563q-14 0 -20 5t-6 17v4t1 3l7 26q5 16 12.5 20.5t29.5 4.5v0z" />
    <glyph glyph-name="quotedblleft" unicode="&#x201c;" horiz-adv-x="459" 
d="M250 524q19 -9 27.5 -22.5t8.5 -34.5q0 -33 -22 -54t-57 -21q-33 0 -53.5 21t-20.5 55q0 29 14 53t45 46q7 5 14 9.5t14 7.5q14 8 28 12t25 4q13 0 22.5 -12.5t9.5 -29.5q0 -4 -1 -6.5t-4 -4.5t-9.5 -4.5t-17.5 -6.5q-3 -1 -5 -1.5t-3 -1.5q-1 0 -1.5 -0.5t-1.5 -0.5
q-2 -1 -4.5 -3t-7.5 -5v0zM434 524q19 -9 27.5 -22.5t8.5 -34.5q0 -33 -22 -54t-57 -21q-33 0 -53.5 21t-20.5 55q0 29 14 53t45 46q7 5 14 9.5t14 7.5q14 8 28 12t25 4q13 0 22.5 -12.5t9.5 -29.5q0 -4 -1 -6.5t-4 -4.5t-9.5 -4.5t-17.5 -6.5q-3 -1 -5 -1.5t-3 -1.5
q-1 0 -1.5 -0.5t-1.5 -0.5q-2 -1 -4.5 -3t-7.5 -5v0z" />
    <glyph glyph-name="quotedblright" unicode="&#x201d;" horiz-adv-x="472" 
d="M191 468q-19 9 -27 22.5t-8 34.5q0 33 22 54t57 21q33 0 53.5 -20.5t20.5 -55.5q0 -29 -14 -53t-45 -46q-7 -5 -14 -9.5t-14 -7.5q-14 -8 -28 -12t-25 -4q-13 0 -22.5 13t-9.5 29q0 4 0.5 6t3.5 5q3 2 9.5 5t18.5 7q3 1 5 1.5t4 1.5l0.5 0.5t1.5 0.5q2 1 4.5 2.5t6.5 4.5
v0zM375 468q-19 9 -27 22.5t-8 34.5q0 33 22 54t57 21q33 0 53.5 -20.5t20.5 -55.5q0 -29 -14 -53t-45 -46q-7 -5 -14 -9.5t-14 -7.5q-14 -8 -28 -12t-25 -4q-13 0 -22.5 13t-9.5 29q0 4 0.5 6t3.5 5q3 2 9.5 5t18.5 7q3 1 5 1.5t4 1.5l0.5 0.5t1.5 0.5q2 1 4.5 2.5t6.5 4.5
v0z" />
    <glyph glyph-name="quoteleft" unicode="&#x2018;" horiz-adv-x="275" 
d="M250 524q19 -9 27.5 -22.5t8.5 -34.5q0 -33 -22 -54t-57 -21q-33 0 -53.5 21t-20.5 55q0 29 14 53t45 46q7 5 14 9.5t14 7.5q14 8 28 12t25 4q13 0 22.5 -12.5t9.5 -29.5q0 -4 -1 -6.5t-4 -4.5t-9.5 -4.5t-17.5 -6.5q-3 -1 -5 -1.5t-3 -1.5q-1 0 -1.5 -0.5t-1.5 -0.5
q-2 -1 -4.5 -3t-7.5 -5v0z" />
    <glyph glyph-name="quoteright" unicode="&#x2019;" horiz-adv-x="258" 
d="M161 468q-19 9 -27 22.5t-8 34.5q0 33 22 54t57 21q33 0 53.5 -20.5t20.5 -55.5q0 -29 -14 -53t-45 -46q-7 -5 -14 -9.5t-14 -7.5q-14 -8 -28 -12t-25 -4q-13 0 -22.5 13t-9.5 29q0 4 0.5 6t3.5 5q3 2 9.5 5t18.5 7q3 1 5 1.5t4 1.5l0.5 0.5t1.5 0.5q2 1 4.5 2.5t6.5 4.5
v0z" />
    <glyph glyph-name="divide" unicode="&#xf7;" 
d="M296 201q28 0 44.5 -16.5t16.5 -44.5q0 -30 -21.5 -51t-53.5 -21q-26 0 -42 15.5t-16 41.5q0 31 21.5 53.5t50.5 22.5v0zM139 312h334q12 0 18 -5t6 -16v-3.5v-3.5q0 -1 -0.5 -2t-0.5 -2l-7 -23q-4 -13 -12 -19t-23 -6h-339q-14 0 -20 5t-6 17v4t1 3l7 26q5 16 12.5 20.5
t29.5 4.5v0zM302 478q28 0 44.5 -16.5t16.5 -44.5q0 -30 -21.5 -51t-53.5 -21q-26 0 -42 15.5t-16 41.5q0 31 21.5 53.5t50.5 22.5v0z" />
    <glyph glyph-name="ydieresis" unicode="&#xff;" horiz-adv-x="488" 
d="M477 316l-58 -271q-24 -114 -100.5 -181.5t-182.5 -67.5q-62 0 -99 28.5t-37 75.5q0 27 9.5 46t34.5 36q5 4 10.5 7t11.5 7q7 -30 26.5 -45.5t49.5 -15.5q40 0 71 29.5t46 80.5q-32 -21 -56.5 -32.5t-47.5 -14.5q-7 -1 -13 -1.5t-12 -0.5q-42 0 -67 23t-25 63
q0 5 0.5 12.5t2.5 15.5q0 3 0.5 6t1.5 6l32 146q1 2 1 4t1 4q0 4 0.5 8.5t0.5 7.5q0 6 -1 10.5t-3 9.5q-2 4 -6.5 8.5t-12.5 10.5q33 25 59 38t50 18q7 1 14 1.5t14 0.5q24 0 40 -14t16 -36q0 -4 -0.5 -9.5t-2.5 -13.5l-28 -130q-2 -7 -3 -12.5t-1 -9.5q-1 -11 7.5 -19.5
t19.5 -8.5q20 0 33 14t20 45l17 73q1 2 1 4.5t1 4.5q1 5 1.5 10t0.5 8q0 10 -2.5 16t-8.5 12q-2 2 -4.5 4t-5.5 4q34 28 66 42t61 14q26 0 42 -12.5t17 -34.5v-12t-2 -12v0zM226 542q25 0 42.5 -17.5t17.5 -42.5t-17.5 -42.5t-42.5 -17.5t-42.5 17.5t-17.5 42.5t17.5 42.5
t42.5 17.5v0zM394 542q25 0 42.5 -17.5t17.5 -42.5t-17.5 -42.5t-42.5 -17.5t-42.5 17.5t-17.5 42.5t17.5 42.5t42.5 17.5v0z" />
    <glyph glyph-name="Ydieresis" unicode="&#x178;" horiz-adv-x="837" 
d="M572 397l-16 -34q-12 -25 -17.5 -43t-5.5 -31q0 -16 10 -25t26 -9q44 0 77 54.5t58 167.5q2 10 4.5 19t4.5 17q15 56 36.5 71.5t75.5 16.5q15 0 24.5 1t17.5 1l12 2t13 2q-18 -51 -28.5 -83t-18.5 -59q-2 -7 -3.5 -13t-3.5 -13q-8 -31 -18 -73.5t-26 -115.5
q-22 -100 -48.5 -169.5t-62.5 -124.5q-52 -82 -137 -127.5t-185 -45.5q-103 0 -170.5 53.5t-67.5 136.5q0 64 49 110t117 46q32 0 50 -9t18 -24q0 -4 -2 -10t-6 -12q-9 -14 -13 -20t-4 -11q-1 -2 -1 -4.5v-5.5q0 -27 25 -47t59 -20q67 0 125.5 53.5t104.5 159.5
q-53 -44 -93.5 -66t-78.5 -26q-4 -1 -8.5 -1h-9.5q-45 0 -75 27t-30 68v7.5t1 6.5q1 16 5.5 32.5t13.5 36.5q2 4 4 7.5t4 7.5l9 19l9 18l10 19q1 1 1.5 2t0.5 3q23 46 38 87t15 59q0 21 -14.5 35.5t-36.5 14.5q-3 0 -6 -0.5t-6 -0.5q-26 -5 -48.5 -28t-28.5 -49
q-1 -3 -1.5 -6.5t-0.5 -7.5q0 -15 10.5 -26t23.5 -11q4 0 8 1l8 2q7 3 12 4.5t8 1.5q8 1 13 -6t5 -17q0 -13 -9 -30t-24 -35q-4 -5 -9 -10l-10 -10q-29 -27 -59 -40t-63 -13q-59 0 -100.5 42t-41.5 103q0 121 101 216.5t228 95.5q84 0 138 -44.5t54 -112.5q0 -25 -6 -55
t-18 -64q-1 -3 -1.5 -5t-1.5 -3v0v0q-1 -3 -3 -8t-10 -23v0zM621 807q25 0 42.5 -17.5t17.5 -42.5t-17.5 -42.5t-42.5 -17.5t-42.5 17.5t-17.5 42.5t17.5 42.5t42.5 17.5v0zM789 807q25 0 42.5 -17.5t17.5 -42.5t-17.5 -42.5t-42.5 -17.5t-42.5 17.5t-17.5 42.5t17.5 42.5
t42.5 17.5v0z" />
    <glyph glyph-name="currency" unicode="&#xa4;" horiz-adv-x="667" 
d="M108 120l71 72q-25 33 -37 68t-12 73q0 22 3.5 42t11.5 39q6 15 14.5 29.5t20.5 30.5l-74 73q-7 7 -10 10.5t-4 5.5t-1 3.5v3.5v2.5t1 2.5q1 4 3.5 7.5t9.5 10.5t10.5 9.5t7.5 3.5q1 1 2.5 1h2.5h3t2 -1q3 0 7 -3.5t11 -10.5l73 -73q17 12 32.5 21t30.5 15q19 8 39 11.5
t43 3.5t44 -4t41 -13q14 -6 28 -14t28 -19l72 71q8 8 12 11t7 4q1 1 2.5 1h2.5h3t3 -1q3 -1 6.5 -4t9.5 -9q7 -7 9.5 -10.5t3.5 -7.5q1 -1 1 -2.5v-2.5v-2.5t-1 -2.5q-1 -3 -4 -7t-10 -11l-72 -72q12 -18 21.5 -34.5t15.5 -32.5q7 -18 10 -36.5t3 -38.5q0 -23 -4 -44
t-13 -41q-5 -14 -13 -28t-19 -28l72 -72q8 -7 11 -10.5t4 -6.5q1 -2 1 -3.5v-3.5v-3t-1 -3q-1 -3 -4 -6.5t-9 -9.5t-9.5 -9t-6.5 -4q-2 -1 -3 -1h-3h-3.5t-3.5 1q-3 1 -7 4.5t-10 9.5l-72 72q-34 -25 -69.5 -37.5t-74.5 -12.5q-16 0 -31 2t-30 7q-20 6 -40 16t-42 25
l-72 -72q-6 -6 -10 -9.5t-7 -4.5q-2 -1 -3.5 -1h-3.5h-3t-3 1q-3 1 -6.5 4t-9.5 9t-9 9.5t-4 6.5q-1 2 -1 3v3v3.5t1 2.5q1 3 4 7t10 11v0zM368 498q-68 0 -116 -48.5t-48 -116.5q0 -67 48.5 -115.5t115.5 -48.5q68 0 115.5 48.5t47.5 115.5q0 68 -47.5 116.5t-115.5 48.5v0
z" />
    <glyph glyph-name="guilsinglleft" unicode="&#x2039;" horiz-adv-x="218" 
d="M144 219l15 -118l1 -6q1 -10 -6.5 -16t-18.5 -6h-34q-13 0 -21.5 8t-10.5 21l-9 83v2v2q-1 6 -1.5 11t-0.5 8q0 9 3 18t8 18l62 106q1 2 2.5 4.5t2.5 3.5q8 12 16.5 16t22.5 4h26q11 0 16.5 -4t5.5 -11q0 -4 -2 -9.5t-5 -10.5l-72 -124v0z" />
    <glyph glyph-name="guilsinglright" unicode="&#x203a;" horiz-adv-x="217" 
d="M114 232l-15 117q-1 3 -1 4.5v2.5q-1 10 6.5 16t18.5 6h33q14 0 23 -7.5t10 -21.5l9 -83v-2v-2q1 -6 1.5 -11t0.5 -8q0 -9 -3 -18t-8 -18l-62 -106q-1 -3 -2.5 -5.5t-3.5 -4.5q-7 -10 -15.5 -14t-23.5 -4h-25q-10 0 -16 4t-6 11q0 3 1 7t3 8q1 1 1.5 2.5t1.5 2.5l72 124
v0z" />
    <glyph glyph-name="daggerdbl" unicode="&#x2021;" 
d="M395 469h145q23 0 31 -5t8 -19v-3.5t-1 -3.5l-6 -31q-4 -19 -14 -27t-31 -8h-152l-39 -184h147q16 0 23.5 -6t7.5 -18v-2.5v-2.5q-1 -2 -1 -3v-3l-7 -31q-4 -17 -15 -24t-37 -7h-139l-34 -159q-2 -10 -8 -15.5t-15 -5.5l-69 -1q-7 1 -11 4.5t-4 9.5v0.5v0.5v0.5v0.5v1.5
t1 1.5v2v2l34 158h-140q-23 0 -31.5 5.5t-7.5 18.5v3.5t1 3.5l7 31q4 19 14.5 27t29.5 8h148l39 184h-153q-16 0 -23.5 5.5t-7.5 16.5q0 3 0.5 6t1.5 7l6 31q4 17 15.5 24t36.5 7h144l34 159q2 11 8 16.5t15 5.5h70q7 0 10.5 -3.5t3.5 -11.5v-2v-1q0 -1 -0.5 -2t-0.5 -2
l-34 -159v0z" />
    <glyph glyph-name="quotesinglbase" unicode="&#x201a;" horiz-adv-x="282" 
d="M108 8q-19 9 -27 22.5t-8 34.5q0 33 22 54t57 21q33 0 53.5 -20.5t20.5 -55.5q0 -29 -14 -52.5t-45 -45.5q-7 -5 -14 -9.5t-14 -7.5q-14 -8 -28 -12t-25 -4q-13 0 -22.5 12.5t-9.5 29.5q0 4 1 6.5t4 4.5q3 3 9.5 5.5t17.5 6.5q3 1 5 1.5t4 0.5l0.5 0.5t1.5 0.5
q2 1 4.5 2.5t6.5 4.5v0z" />
    <glyph glyph-name="quotedblbase" unicode="&#x201e;" horiz-adv-x="466" 
d="M108 8q-19 9 -27 22.5t-8 34.5q0 33 22 54t57 21q33 0 53.5 -20.5t20.5 -55.5q0 -29 -14 -52.5t-45 -45.5q-7 -5 -14 -9.5t-14 -7.5q-14 -8 -28 -12t-25 -4q-13 0 -22.5 12.5t-9.5 29.5q0 4 1 6.5t4 4.5q3 3 9.5 5.5t17.5 6.5q3 1 5 1.5t4 0.5l0.5 0.5t1.5 0.5
q2 1 4.5 2.5t6.5 4.5v0zM292 8q-19 9 -27 22.5t-8 34.5q0 33 22 54t57 21q33 0 53.5 -20.5t20.5 -55.5q0 -29 -14 -52.5t-45 -45.5q-7 -5 -14 -9.5t-14 -7.5q-14 -8 -28 -12t-25 -4q-13 0 -22.5 12.5t-9.5 29.5q0 4 1 6.5t4 4.5q3 3 9.5 5.5t17.5 6.5q3 1 5 1.5t4 0.5
l0.5 0.5t1.5 0.5q2 1 4.5 2.5t6.5 4.5v0z" />
    <glyph glyph-name="perthousand" unicode="&#x2030;" horiz-adv-x="865" 
d="M474 277q47 0 74 -29t27 -81q0 -73 -44 -123.5t-107 -50.5q-47 0 -76 28.5t-29 75.5q0 74 46 127t109 53v0zM463 207q-17 0 -30 -18.5t-13 -43.5q0 -13 7 -20.5t19 -7.5q17 0 29.5 17.5t12.5 41.5q0 15 -6.5 23t-18.5 8v0zM754 277q47 0 74 -29t27 -81q0 -73 -44 -123.5
t-107 -50.5q-47 0 -76 28.5t-29 75.5q0 74 46 127t109 53v0zM743 207q-17 0 -30 -18.5t-13 -43.5q0 -13 7 -20.5t19 -7.5q17 0 29.5 17.5t12.5 41.5q0 15 -6.5 23t-18.5 8v0zM419 549h54q4 0 6.5 -2t2.5 -5v-2t-1 -2q0 -1 -0.5 -2t-0.5 -2l-262 -512q-6 -12 -14 -17t-22 -5
h-45q-4 0 -7.5 3.5t-4.5 7.5v4l264 511l5 10t4 7q3 4 7.5 5t13.5 1v0zM183 554q47 0 74 -29t27 -81q0 -73 -44 -124t-107 -51q-47 0 -76 29t-29 76q0 74 46 127t109 53v0zM172 484q-17 0 -30 -18.5t-13 -43.5q0 -13 7 -20.5t19 -7.5q17 0 29.5 17.5t12.5 41.5q0 15 -6.5 23
t-18.5 8v0z" />
    <glyph glyph-name="Acircumflex" unicode="&#xc2;" horiz-adv-x="968" 
d="M707 522q-11 2 -19.5 3.5t-16.5 2.5q-5 1 -10 1h-11q-41 0 -66 -13t-26 -35q-1 -10 7 -16t25 -8q9 -1 14 -5t5 -11v-0.5v-0.5v-0.5v-0.5q0 -3 -0.5 -5.5t-1.5 -4.5q-3 -8 -9 -16t-16 -17q-34 -28 -70 -43t-73 -15q-65 0 -107.5 39.5t-42.5 99.5q0 76 65 133t151 57
q38 0 83.5 -10t105.5 -33q46 -16 69 -23t42 -8q3 -1 6.5 -1h7.5h10.5t9.5 1q5 0 9.5 0.5t10.5 1.5q13 2 23.5 3.5t15.5 1.5q20 0 34 -12.5t14 -30.5v-1.5v-1.5v-3.5v-3.5q-1 -7 -7 -17.5t-24 -43.5q-14 -24 -26 -59.5t-22 -72.5q-7 -31 -11.5 -61t-4.5 -53q0 -34 13.5 -57.5
t32.5 -23.5q4 0 8 1t9 2q5 2 9 3t7 1q8 0 14 -7.5t6 -17.5q0 -57 -45 -104t-99 -49h-1.5h-1.5q-49 0 -75.5 32.5t-26.5 91.5q0 12 2 29.5t5 36.5q0 1 0.5 3t0.5 4q0 3 0.5 5t0.5 4v2.5v2.5q0 11 -8.5 18.5t-20.5 7.5q-14 0 -24 -6.5t-19 -23.5q-5 -7 -9 -17t-9 -23
q-4 -10 -12.5 -29t-19.5 -39q-1 -3 -2.5 -6l-2.5 -5l-2 -4l-2 -4q-47 -94 -129 -146.5t-183 -52.5q-99 0 -163 54.5t-64 137.5q0 68 42 129.5t111 96.5q11 6 23 10.5t25 8.5q20 7 39.5 10.5t35.5 3.5q19 0 31 -7.5t12 -18.5v-0.5v-0.5v-3v-3q-1 -3 -5 -8.5t-15 -20.5
q-4 -5 -6 -11.5t-2 -14.5q0 -21 18.5 -36t44.5 -15q10 0 20 1.5t19 5.5q37 14 77 60.5t100 142.5q20 31 32.5 50t23.5 34q2 3 4.5 5.5t4.5 5.5q7 8 14.5 16.5t17.5 19.5v0zM677 310q8 3 13 4t9 1h1.5h1.5h3.5h3.5q6 -1 11.5 -2.5t13.5 -4.5q5 18 11.5 37.5t14.5 39.5
q12 32 25.5 63.5t27.5 58.5q-31 -29 -58.5 -65t-48.5 -73q-9 -15 -16 -30t-13 -29v0zM851 734l-83 -42q-1 -1 -3 -1.5t-3 -1.5q-3 -1 -6 -1.5t-6 -0.5q-7 0 -12.5 4.5t-10.5 13.5q-7 13 -10.5 20t-3.5 11v2t1 2q1 5 5 9t9 6l123 55q6 3 10.5 4.5t6.5 1.5t6.5 -1.5t8.5 -4.5
l88 -55q8 -5 12.5 -10t4.5 -10q0 -2 -0.5 -4t-1.5 -4q-1 -3 -2.5 -5.5t-3.5 -4.5l-24 -20l-1.5 -1.5t-1.5 -0.5q-3 -2 -6 -3.5t-7 -2.5l-6 -2t-6 -1h-3.5t-4.5 1q-5 2 -8 3t-5 2l-56 42v0z" />
    <glyph glyph-name="Ecircumflex" unicode="&#xca;" horiz-adv-x="893" 
d="M422 422l21 1q8 1 13 -3.5t5 -12.5q0 -2 -0.5 -4t-0.5 -4q-8 -25 -53.5 -46.5t-99.5 -25.5q-5 -1 -10 -1h-10q-76 0 -121.5 42.5t-45.5 112.5q0 83 68 140t166 57q21 0 43.5 -3.5t45.5 -10.5q21 -6 41.5 -15t39.5 -20q3 -2 6 -3.5t6 -3.5v0h1q12 -8 26.5 -17t42.5 -27
q29 16 57 27t56 18q18 4 36.5 6t37.5 2q71 0 119.5 -33.5t48.5 -82.5q0 -46 -37.5 -74t-100.5 -28q-12 0 -23.5 0.5t-22.5 2.5q-29 3 -61.5 13.5t-81.5 31.5q-5 -8 -8.5 -15t-5.5 -14q0 -3 -0.5 -6t-0.5 -7v-2.5v-2.5q1 -6 3 -13t6 -17q22 4 37 6t29 3q9 0 18 0.5t20 0.5
q48 0 73 -13t25 -39t-25.5 -41t-70.5 -15h-10.5h-9.5q-12 1 -28 3.5t-49 9.5q-18 -9 -31.5 -16t-23.5 -13q-8 -5 -14.5 -9.5t-12.5 -10.5q-2 -1 -3.5 -2.5l-3.5 -3.5q-13 -13 -23 -28.5t-16 -31.5q-4 -10 -6 -20t-2 -19q0 -28 20.5 -48t51.5 -20q29 0 48 16t19 39
q0 11 -7.5 20t-16.5 11h-1.5h-1.5h-0.5h-0.5h-0.5h-0.5l-29 -4q-1 0 -3.5 1.5t-4.5 4.5q-3 3 -4.5 6.5t-1.5 7.5q0 5 1.5 9.5t5.5 9.5q13 19 46.5 36t71.5 23q8 2 16 2.5t16 0.5q64 0 100.5 -37t36.5 -102q0 -103 -97.5 -172t-240.5 -69q-127 0 -204.5 58.5t-77.5 153.5
q0 68 38 129t102 95q7 4 13.5 7t12.5 7q13 6 26 11t28 10q11 4 24.5 8t28.5 8q-8 23 -11.5 37.5t-4.5 26.5v3v4q0 6 1 12t2 11q3 9 9 19t15 22q-13 4 -22.5 6.5t-18.5 2.5q-4 1 -7.5 1h-7.5q-34 0 -57.5 -16t-23.5 -40q0 -15 10 -25t23 -9v0zM704 519q28 -13 42.5 -18.5
t26.5 -6.5q3 -1 5.5 -1h5.5q14 0 22 5.5t8 15.5q0 11 -10.5 17.5t-28.5 6.5q-14 0 -24.5 -1.5t-19.5 -4.5q-7 -2 -13.5 -5.5t-13.5 -7.5v0zM767 734l-83 -42q-1 -1 -3 -1.5t-3 -1.5q-3 -1 -6 -1.5t-6 -0.5q-7 0 -12.5 4.5t-10.5 13.5q-7 13 -10.5 20t-3.5 11v2t1 2q1 5 5 9
t9 6l123 55q6 3 10.5 4.5t6.5 1.5t6.5 -1.5t8.5 -4.5l88 -55q8 -5 12.5 -10t4.5 -10q0 -2 -0.5 -4t-1.5 -4q-1 -3 -2.5 -5.5t-3.5 -4.5l-24 -20l-1.5 -1.5t-1.5 -0.5q-3 -2 -6 -3.5t-7 -2.5l-6 -2t-6 -1h-3.5t-4.5 1q-5 2 -8 3t-5 2l-56 42v0z" />
    <glyph glyph-name="Aacute" unicode="&#xc1;" horiz-adv-x="968" 
d="M707 522q-11 2 -19.5 3.5t-16.5 2.5q-5 1 -10 1h-11q-41 0 -66 -13t-26 -35q-1 -10 7 -16t25 -8q9 -1 14 -5t5 -11v-0.5v-0.5v-0.5v-0.5q0 -3 -0.5 -5.5t-1.5 -4.5q-3 -8 -9 -16t-16 -17q-34 -28 -70 -43t-73 -15q-65 0 -107.5 39.5t-42.5 99.5q0 76 65 133t151 57
q38 0 83.5 -10t105.5 -33q46 -16 69 -23t42 -8q3 -1 6.5 -1h7.5h10.5t9.5 1q5 0 9.5 0.5t10.5 1.5q13 2 23.5 3.5t15.5 1.5q20 0 34 -12.5t14 -30.5v-1.5v-1.5v-3.5v-3.5q-1 -7 -7 -17.5t-24 -43.5q-14 -24 -26 -59.5t-22 -72.5q-7 -31 -11.5 -61t-4.5 -53q0 -34 13.5 -57.5
t32.5 -23.5q4 0 8 1t9 2q5 2 9 3t7 1q8 0 14 -7.5t6 -17.5q0 -57 -45 -104t-99 -49h-1.5h-1.5q-49 0 -75.5 32.5t-26.5 91.5q0 12 2 29.5t5 36.5q0 1 0.5 3t0.5 4q0 3 0.5 5t0.5 4v2.5v2.5q0 11 -8.5 18.5t-20.5 7.5q-14 0 -24 -6.5t-19 -23.5q-5 -7 -9 -17t-9 -23
q-4 -10 -12.5 -29t-19.5 -39q-1 -3 -2.5 -6l-2.5 -5l-2 -4l-2 -4q-47 -94 -129 -146.5t-183 -52.5q-99 0 -163 54.5t-64 137.5q0 68 42 129.5t111 96.5q11 6 23 10.5t25 8.5q20 7 39.5 10.5t35.5 3.5q19 0 31 -7.5t12 -18.5v-0.5v-0.5v-3v-3q-1 -3 -5 -8.5t-15 -20.5
q-4 -5 -6 -11.5t-2 -14.5q0 -21 18.5 -36t44.5 -15q10 0 20 1.5t19 5.5q37 14 77 60.5t100 142.5q20 31 32.5 50t23.5 34q2 3 4.5 5.5t4.5 5.5q7 8 14.5 16.5t17.5 19.5v0zM677 310q8 3 13 4t9 1h1.5h1.5h3.5h3.5q6 -1 11.5 -2.5t13.5 -4.5q5 18 11.5 37.5t14.5 39.5
q12 32 25.5 63.5t27.5 58.5q-31 -29 -58.5 -65t-48.5 -73q-9 -15 -16 -30t-13 -29v0zM802 748l99 64q6 4 9 5.5t4 2.5h3h3h2h2q5 -1 9 -3.5t6 -4.5l18 -27l4.5 -7.5t2.5 -4.5v-2v-2q0 -6 -3.5 -11.5t-10.5 -9.5l-103 -61q-4 -3 -7.5 -4t-6.5 -1h-3t-3 1q-5 1 -9.5 4.5
t-7.5 7.5l-15 20q-1 1 -1.5 2.5t-1.5 2.5q-1 3 -1.5 5.5t-0.5 4.5t0.5 3.5t1.5 2.5q1 3 4 6.5t6 5.5v0z" />
    <glyph glyph-name="Edieresis" unicode="&#xcb;" horiz-adv-x="893" 
d="M422 422l21 1q8 1 13 -3.5t5 -12.5q0 -2 -0.5 -4t-0.5 -4q-8 -25 -53.5 -46.5t-99.5 -25.5q-5 -1 -10 -1h-10q-76 0 -121.5 42.5t-45.5 112.5q0 83 68 140t166 57q21 0 43.5 -3.5t45.5 -10.5q21 -6 41.5 -15t39.5 -20q3 -2 6 -3.5t6 -3.5v0h1q12 -8 26.5 -17t42.5 -27
q29 16 57 27t56 18q18 4 36.5 6t37.5 2q71 0 119.5 -33.5t48.5 -82.5q0 -46 -37.5 -74t-100.5 -28q-12 0 -23.5 0.5t-22.5 2.5q-29 3 -61.5 13.5t-81.5 31.5q-5 -8 -8.5 -15t-5.5 -14q0 -3 -0.5 -6t-0.5 -7v-2.5v-2.5q1 -6 3 -13t6 -17q22 4 37 6t29 3q9 0 18 0.5t20 0.5
q48 0 73 -13t25 -39t-25.5 -41t-70.5 -15h-10.5h-9.5q-12 1 -28 3.5t-49 9.5q-18 -9 -31.5 -16t-23.5 -13q-8 -5 -14.5 -9.5t-12.5 -10.5q-2 -1 -3.5 -2.5l-3.5 -3.5q-13 -13 -23 -28.5t-16 -31.5q-4 -10 -6 -20t-2 -19q0 -28 20.5 -48t51.5 -20q29 0 48 16t19 39
q0 11 -7.5 20t-16.5 11h-1.5h-1.5h-0.5h-0.5h-0.5h-0.5l-29 -4q-1 0 -3.5 1.5t-4.5 4.5q-3 3 -4.5 6.5t-1.5 7.5q0 5 1.5 9.5t5.5 9.5q13 19 46.5 36t71.5 23q8 2 16 2.5t16 0.5q64 0 100.5 -37t36.5 -102q0 -103 -97.5 -172t-240.5 -69q-127 0 -204.5 58.5t-77.5 153.5
q0 68 38 129t102 95q7 4 13.5 7t12.5 7q13 6 26 11t28 10q11 4 24.5 8t28.5 8q-8 23 -11.5 37.5t-4.5 26.5v3v4q0 6 1 12t2 11q3 9 9 19t15 22q-13 4 -22.5 6.5t-18.5 2.5q-4 1 -7.5 1h-7.5q-34 0 -57.5 -16t-23.5 -40q0 -15 10 -25t23 -9v0zM704 519q28 -13 42.5 -18.5
t26.5 -6.5q3 -1 5.5 -1h5.5q14 0 22 5.5t8 15.5q0 11 -10.5 17.5t-28.5 6.5q-14 0 -24.5 -1.5t-19.5 -4.5q-7 -2 -13.5 -5.5t-13.5 -7.5v0zM669 807q25 0 42.5 -17.5t17.5 -42.5t-17.5 -42.5t-42.5 -17.5t-42.5 17.5t-17.5 42.5t17.5 42.5t42.5 17.5v0zM837 807
q25 0 42.5 -17.5t17.5 -42.5t-17.5 -42.5t-42.5 -17.5t-42.5 17.5t-17.5 42.5t17.5 42.5t42.5 17.5v0z" />
    <glyph glyph-name="Egrave" unicode="&#xc8;" horiz-adv-x="893" 
d="M422 422l21 1q8 1 13 -3.5t5 -12.5q0 -2 -0.5 -4t-0.5 -4q-8 -25 -53.5 -46.5t-99.5 -25.5q-5 -1 -10 -1h-10q-76 0 -121.5 42.5t-45.5 112.5q0 83 68 140t166 57q21 0 43.5 -3.5t45.5 -10.5q21 -6 41.5 -15t39.5 -20q3 -2 6 -3.5t6 -3.5v0h1q12 -8 26.5 -17t42.5 -27
q29 16 57 27t56 18q18 4 36.5 6t37.5 2q71 0 119.5 -33.5t48.5 -82.5q0 -46 -37.5 -74t-100.5 -28q-12 0 -23.5 0.5t-22.5 2.5q-29 3 -61.5 13.5t-81.5 31.5q-5 -8 -8.5 -15t-5.5 -14q0 -3 -0.5 -6t-0.5 -7v-2.5v-2.5q1 -6 3 -13t6 -17q22 4 37 6t29 3q9 0 18 0.5t20 0.5
q48 0 73 -13t25 -39t-25.5 -41t-70.5 -15h-10.5h-9.5q-12 1 -28 3.5t-49 9.5q-18 -9 -31.5 -16t-23.5 -13q-8 -5 -14.5 -9.5t-12.5 -10.5q-2 -1 -3.5 -2.5l-3.5 -3.5q-13 -13 -23 -28.5t-16 -31.5q-4 -10 -6 -20t-2 -19q0 -28 20.5 -48t51.5 -20q29 0 48 16t19 39
q0 11 -7.5 20t-16.5 11h-1.5h-1.5h-0.5h-0.5h-0.5h-0.5l-29 -4q-1 0 -3.5 1.5t-4.5 4.5q-3 3 -4.5 6.5t-1.5 7.5q0 5 1.5 9.5t5.5 9.5q13 19 46.5 36t71.5 23q8 2 16 2.5t16 0.5q64 0 100.5 -37t36.5 -102q0 -103 -97.5 -172t-240.5 -69q-127 0 -204.5 58.5t-77.5 153.5
q0 68 38 129t102 95q7 4 13.5 7t12.5 7q13 6 26 11t28 10q11 4 24.5 8t28.5 8q-8 23 -11.5 37.5t-4.5 26.5v3v4q0 6 1 12t2 11q3 9 9 19t15 22q-13 4 -22.5 6.5t-18.5 2.5q-4 1 -7.5 1h-7.5q-34 0 -57.5 -16t-23.5 -40q0 -15 10 -25t23 -9v0zM704 519q28 -13 42.5 -18.5
t26.5 -6.5q3 -1 5.5 -1h5.5q14 0 22 5.5t8 15.5q0 11 -10.5 17.5t-28.5 6.5q-14 0 -24.5 -1.5t-19.5 -4.5q-7 -2 -13.5 -5.5t-13.5 -7.5v0zM834 715l-15 -20q-3 -5 -7.5 -8t-9.5 -4q-1 -1 -2.5 -1h-2.5q-3 0 -6 1t-8 4l-103 61q-7 4 -11 9.5t-4 11.5v2v2q1 1 2 3.5t5 8.5
l19 27q2 3 7.5 5.5t11.5 2.5h0.5h0.5h2h1q2 0 5 -1.5t9 -6.5l99 -64q7 -4 10 -8.5t3 -9.5q0 -2 -0.5 -4.5t-2.5 -5.5q0 -1 -1 -2.5t-2 -2.5v0z" />
    <glyph glyph-name="Iacute" unicode="&#xcd;" horiz-adv-x="681" 
d="M640 256l-7 -34q-13 -76 -36.5 -132.5t-56.5 -95.5q-46 -56 -115 -87.5t-144 -31.5q-103 0 -172 59t-69 147q0 97 77.5 163t191.5 66q25 0 38.5 -8t13.5 -22v-5t-1 -3q-1 -4 -4 -7.5t-9 -9.5q-4 -4 -7 -9t-5 -9q-2 -5 -3 -9.5t-1 -9.5q0 -22 16 -36.5t41 -14.5
q27 0 52.5 15t43.5 40q4 5 7 10l6 10q3 4 5.5 9l5.5 11q11 21 24 56t38 107q6 17 10.5 29.5t9.5 22.5q2 6 4 10.5t4 9.5q4 8 8 15.5t9 16.5h-12.5t-9.5 1q-25 2 -41.5 2.5t-18.5 0.5q-24 0 -41.5 -13t-17.5 -31q0 -13 9 -18.5t29 -4.5q9 0 14 -4t5 -11q0 -8 -6.5 -19
t-16.5 -22q-5 -6 -10.5 -11.5t-12.5 -10.5q-17 -13 -37.5 -23.5t-42.5 -16.5q-14 -4 -28 -6.5t-27 -2.5q-59 0 -101.5 43t-42.5 103q0 80 63 134t156 54q12 0 21 -0.5t18 -1.5q19 -2 43.5 -9t75.5 -25l16.5 -5.5t14.5 -4.5q4 -1 8 -2.5t8 -2.5q7 -2 15 -4t17 -4
q18 20 41 30.5t48 10.5q29 0 47.5 -15.5t18.5 -39.5q0 -29 -26.5 -48.5t-73.5 -23.5q-8 -18 -14 -33t-12 -29q-2 -6 -4 -12.5t-5 -13.5q-1 -5 -2.5 -10t-3.5 -10q-8 -28 -14 -51.5t-9 -43.5l-7 -34l-6 -35v0zM572 748l99 64q6 4 9 5.5t4 2.5h3h3h2h2q5 -1 9 -3.5t6 -4.5
l18 -27l4.5 -7.5t2.5 -4.5v-2v-2q0 -6 -3.5 -11.5t-10.5 -9.5l-103 -61q-4 -3 -7.5 -4t-6.5 -1h-3t-3 1q-5 1 -9.5 4.5t-7.5 7.5l-15 20q-1 1 -1.5 2.5t-1.5 2.5q-1 3 -1.5 5.5t-0.5 4.5t0.5 3.5t1.5 2.5q1 3 4 6.5t6 5.5v0z" />
    <glyph glyph-name="Icircumflex" unicode="&#xce;" horiz-adv-x="681" 
d="M640 256l-7 -34q-13 -76 -36.5 -132.5t-56.5 -95.5q-46 -56 -115 -87.5t-144 -31.5q-103 0 -172 59t-69 147q0 97 77.5 163t191.5 66q25 0 38.5 -8t13.5 -22v-5t-1 -3q-1 -4 -4 -7.5t-9 -9.5q-4 -4 -7 -9t-5 -9q-2 -5 -3 -9.5t-1 -9.5q0 -22 16 -36.5t41 -14.5
q27 0 52.5 15t43.5 40q4 5 7 10l6 10q3 4 5.5 9l5.5 11q11 21 24 56t38 107q6 17 10.5 29.5t9.5 22.5q2 6 4 10.5t4 9.5q4 8 8 15.5t9 16.5h-12.5t-9.5 1q-25 2 -41.5 2.5t-18.5 0.5q-24 0 -41.5 -13t-17.5 -31q0 -13 9 -18.5t29 -4.5q9 0 14 -4t5 -11q0 -8 -6.5 -19
t-16.5 -22q-5 -6 -10.5 -11.5t-12.5 -10.5q-17 -13 -37.5 -23.5t-42.5 -16.5q-14 -4 -28 -6.5t-27 -2.5q-59 0 -101.5 43t-42.5 103q0 80 63 134t156 54q12 0 21 -0.5t18 -1.5q19 -2 43.5 -9t75.5 -25l16.5 -5.5t14.5 -4.5q4 -1 8 -2.5t8 -2.5q7 -2 15 -4t17 -4
q18 20 41 30.5t48 10.5q29 0 47.5 -15.5t18.5 -39.5q0 -29 -26.5 -48.5t-73.5 -23.5q-8 -18 -14 -33t-12 -29q-2 -6 -4 -12.5t-5 -13.5q-1 -5 -2.5 -10t-3.5 -10q-8 -28 -14 -51.5t-9 -43.5l-7 -34l-6 -35v0zM628 734l-83 -42q-1 -1 -3 -1.5t-3 -1.5q-3 -1 -6 -1.5t-6 -0.5
q-7 0 -12.5 4.5t-10.5 13.5q-7 13 -10.5 20t-3.5 11v2t1 2q1 5 5 9t9 6l123 55q6 3 10.5 4.5t6.5 1.5t6.5 -1.5t8.5 -4.5l88 -55q8 -5 12.5 -10t4.5 -10q0 -2 -0.5 -4t-1.5 -4q-1 -3 -2.5 -5.5t-3.5 -4.5l-24 -20l-1.5 -1.5t-1.5 -0.5q-3 -2 -6 -3.5t-7 -2.5l-6 -2t-6 -1
h-3.5t-4.5 1q-5 2 -8 3t-5 2l-56 42v0z" />
    <glyph glyph-name="Idieresis" unicode="&#xcf;" horiz-adv-x="681" 
d="M640 256l-7 -34q-13 -76 -36.5 -132.5t-56.5 -95.5q-46 -56 -115 -87.5t-144 -31.5q-103 0 -172 59t-69 147q0 97 77.5 163t191.5 66q25 0 38.5 -8t13.5 -22v-5t-1 -3q-1 -4 -4 -7.5t-9 -9.5q-4 -4 -7 -9t-5 -9q-2 -5 -3 -9.5t-1 -9.5q0 -22 16 -36.5t41 -14.5
q27 0 52.5 15t43.5 40q4 5 7 10l6 10q3 4 5.5 9l5.5 11q11 21 24 56t38 107q6 17 10.5 29.5t9.5 22.5q2 6 4 10.5t4 9.5q4 8 8 15.5t9 16.5h-12.5t-9.5 1q-25 2 -41.5 2.5t-18.5 0.5q-24 0 -41.5 -13t-17.5 -31q0 -13 9 -18.5t29 -4.5q9 0 14 -4t5 -11q0 -8 -6.5 -19
t-16.5 -22q-5 -6 -10.5 -11.5t-12.5 -10.5q-17 -13 -37.5 -23.5t-42.5 -16.5q-14 -4 -28 -6.5t-27 -2.5q-59 0 -101.5 43t-42.5 103q0 80 63 134t156 54q12 0 21 -0.5t18 -1.5q19 -2 43.5 -9t75.5 -25l16.5 -5.5t14.5 -4.5q4 -1 8 -2.5t8 -2.5q7 -2 15 -4t17 -4
q18 20 41 30.5t48 10.5q29 0 47.5 -15.5t18.5 -39.5q0 -29 -26.5 -48.5t-73.5 -23.5q-8 -18 -14 -33t-12 -29q-2 -6 -4 -12.5t-5 -13.5q-1 -5 -2.5 -10t-3.5 -10q-8 -28 -14 -51.5t-9 -43.5l-7 -34l-6 -35v0zM532 807q25 0 42.5 -17.5t17.5 -42.5t-17.5 -42.5t-42.5 -17.5
t-42.5 17.5t-17.5 42.5t17.5 42.5t42.5 17.5v0zM685 807q25 0 42.5 -17.5t17.5 -42.5t-17.5 -42.5t-42.5 -17.5t-42.5 17.5t-17.5 42.5t17.5 42.5t42.5 17.5v0z" />
    <glyph glyph-name="Igrave" unicode="&#xcc;" horiz-adv-x="681" 
d="M640 256l-7 -34q-13 -76 -36.5 -132.5t-56.5 -95.5q-46 -56 -115 -87.5t-144 -31.5q-103 0 -172 59t-69 147q0 97 77.5 163t191.5 66q25 0 38.5 -8t13.5 -22v-5t-1 -3q-1 -4 -4 -7.5t-9 -9.5q-4 -4 -7 -9t-5 -9q-2 -5 -3 -9.5t-1 -9.5q0 -22 16 -36.5t41 -14.5
q27 0 52.5 15t43.5 40q4 5 7 10l6 10q3 4 5.5 9l5.5 11q11 21 24 56t38 107q6 17 10.5 29.5t9.5 22.5q2 6 4 10.5t4 9.5q4 8 8 15.5t9 16.5h-12.5t-9.5 1q-25 2 -41.5 2.5t-18.5 0.5q-24 0 -41.5 -13t-17.5 -31q0 -13 9 -18.5t29 -4.5q9 0 14 -4t5 -11q0 -8 -6.5 -19
t-16.5 -22q-5 -6 -10.5 -11.5t-12.5 -10.5q-17 -13 -37.5 -23.5t-42.5 -16.5q-14 -4 -28 -6.5t-27 -2.5q-59 0 -101.5 43t-42.5 103q0 80 63 134t156 54q12 0 21 -0.5t18 -1.5q19 -2 43.5 -9t75.5 -25l16.5 -5.5t14.5 -4.5q4 -1 8 -2.5t8 -2.5q7 -2 15 -4t17 -4
q18 20 41 30.5t48 10.5q29 0 47.5 -15.5t18.5 -39.5q0 -29 -26.5 -48.5t-73.5 -23.5q-8 -18 -14 -33t-12 -29q-2 -6 -4 -12.5t-5 -13.5q-1 -5 -2.5 -10t-3.5 -10q-8 -28 -14 -51.5t-9 -43.5l-7 -34l-6 -35v0zM675 715l-15 -20q-3 -5 -7.5 -8t-9.5 -4q-1 -1 -2.5 -1h-2.5
q-3 0 -6 1t-8 4l-103 61q-7 4 -11 9.5t-4 11.5v2v2q1 1 2 3.5t5 8.5l19 27q2 3 7.5 5.5t11.5 2.5h0.5h0.5h2h1q2 0 5 -1.5t9 -6.5l99 -64q7 -4 10 -8.5t3 -9.5q0 -2 -0.5 -4.5t-2.5 -5.5q0 -1 -1 -2.5t-2 -2.5v0z" />
    <glyph glyph-name="Oacute" unicode="&#xd3;" horiz-adv-x="726" 
d="M394 380l31 3q2 0 4.5 -1.5t4.5 -3.5q3 -3 4.5 -6.5t1.5 -7.5v-1.5v-1.5q-2 -19 -28.5 -34.5t-57.5 -15.5q-51 0 -88.5 40t-37.5 95q0 74 67 128t158 54q115 0 186 -81t71 -212q0 -181 -117.5 -308t-286.5 -127q-119 0 -192.5 71t-73.5 186q0 48 15 90t44 75
q12 13 24.5 24t24.5 19q15 8 29 13t27 5t21 -6t8 -14q0 -4 -2 -9t-5 -10q-6 -10 -10 -18t-6 -15q-1 -4 -1.5 -9t-0.5 -11q0 -49 34 -80t88 -31q71 0 127.5 60t56.5 135q0 50 -25 81.5t-64 31.5q-28 0 -48.5 -18.5t-20.5 -44.5q0 -12 6.5 -22.5t16.5 -17.5q1 -1 2.5 -1.5
t2.5 -1.5q3 -1 6 -1.5t4 -0.5v0zM441 748l99 64q6 4 9 5.5t4 2.5h3h3h2h2q5 -1 9 -3.5t6 -4.5l18 -27l4.5 -7.5t2.5 -4.5v-2v-2q0 -6 -3.5 -11.5t-10.5 -9.5l-103 -61q-4 -3 -7.5 -4t-6.5 -1h-3t-3 1q-5 1 -9.5 4.5t-7.5 7.5l-15 20q-1 1 -1.5 2.5t-1.5 2.5q-1 3 -1.5 5.5
t-0.5 4.5t0.5 3.5t1.5 2.5q1 3 4 6.5t6 5.5v0z" />
    <glyph glyph-name="Ocircumflex" unicode="&#xd4;" horiz-adv-x="726" 
d="M394 380l31 3q2 0 4.5 -1.5t4.5 -3.5q3 -3 4.5 -6.5t1.5 -7.5v-1.5v-1.5q-2 -19 -28.5 -34.5t-57.5 -15.5q-51 0 -88.5 40t-37.5 95q0 74 67 128t158 54q115 0 186 -81t71 -212q0 -181 -117.5 -308t-286.5 -127q-119 0 -192.5 71t-73.5 186q0 48 15 90t44 75
q12 13 24.5 24t24.5 19q15 8 29 13t27 5t21 -6t8 -14q0 -4 -2 -9t-5 -10q-6 -10 -10 -18t-6 -15q-1 -4 -1.5 -9t-0.5 -11q0 -49 34 -80t88 -31q71 0 127.5 60t56.5 135q0 50 -25 81.5t-64 31.5q-28 0 -48.5 -18.5t-20.5 -44.5q0 -12 6.5 -22.5t16.5 -17.5q1 -1 2.5 -1.5
t2.5 -1.5q3 -1 6 -1.5t4 -0.5v0zM483 734l-83 -42q-1 -1 -3 -1.5t-3 -1.5q-3 -1 -6 -1.5t-6 -0.5q-7 0 -12.5 4.5t-10.5 13.5q-7 13 -10.5 20t-3.5 11v2t1 2q1 5 5 9t9 6l123 55q6 3 10.5 4.5t6.5 1.5t6.5 -1.5t8.5 -4.5l88 -55q8 -5 12.5 -10t4.5 -10q0 -2 -0.5 -4t-1.5 -4
q-1 -3 -2.5 -5.5t-3.5 -4.5l-24 -20l-1.5 -1.5t-1.5 -0.5q-3 -2 -6 -3.5t-7 -2.5l-6 -2t-6 -1h-3.5t-4.5 1q-5 2 -8 3t-5 2l-56 42v0z" />
    <glyph glyph-name="Ograve" unicode="&#xd2;" horiz-adv-x="250" 
 />
    <glyph glyph-name="Uacute" unicode="&#xda;" horiz-adv-x="916" 
d="M803 598l74 -3q5 0 12 1t27 5q-1 -3 -2.5 -6.5t-2.5 -6.5q-3 -7 -5.5 -14t-5.5 -15q-9 -25 -19 -57.5t-24 -80.5q-22 -74 -30.5 -115.5t-8.5 -69.5q0 -25 9.5 -38.5t25.5 -13.5h3.5t3.5 1q3 0 6.5 1.5t7.5 2.5q6 3 11.5 4.5t8.5 1.5q8 0 12.5 -5.5t4.5 -14.5
q0 -11 -8 -30.5t-21 -40.5q-6 -10 -12.5 -19.5t-13.5 -18.5q-20 -25 -43.5 -42.5t-48.5 -24.5q-9 -4 -19 -5.5t-19 -1.5q-37 0 -60.5 26t-23.5 68v2v3q0 10 2 23t7 35q-18 -25 -29.5 -40.5t-21.5 -28.5l-4 -4l-4 -4q-3 -4 -6 -7t-6 -7q-20 -22 -44 -38t-48 -25
q-15 -6 -29.5 -9t-28.5 -3q-45 0 -75 29.5t-30 75.5v9t1 9q2 26 17 62t57 121q20 40 35.5 73.5t25.5 58.5t14.5 40t4.5 29v1.5v1.5q0 23 -13 35.5t-36 12.5q-38 0 -68.5 -33.5t-30.5 -74.5q0 -16 10 -27.5t23 -11.5q4 0 8 1l8 2l10.5 3.5t7.5 1.5q7 0 12.5 -6t5.5 -14
q0 -10 -9 -26t-25 -34q-31 -34 -65 -51t-70 -17q-61 0 -102 41t-41 101q0 122 101 216.5t231 94.5q85 0 138.5 -45t53.5 -116q0 -23 -6 -51.5t-17 -58.5q-2 -6 -4.5 -11.5t-4.5 -10.5l-9 -21l-9 -20l-9 -21q-11 -27 -18 -49.5t-7 -36.5q0 -16 10.5 -26t26.5 -10
q44 0 82.5 70t66.5 198q3 12 5 21t4 16q4 12 8 20t9 15q6 8 13.5 14.5t14.5 9.5q5 2 9.5 3t8.5 1v0zM690 748l99 64q6 4 9 5.5t4 2.5h3h3h2h2q5 -1 9 -3.5t6 -4.5l18 -27l4.5 -7.5t2.5 -4.5v-2v-2q0 -6 -3.5 -11.5t-10.5 -9.5l-103 -61q-4 -3 -7.5 -4t-6.5 -1h-3t-3 1
q-5 1 -9.5 4.5t-7.5 7.5l-15 20q-1 1 -1.5 2.5t-1.5 2.5q-1 3 -1.5 5.5t-0.5 4.5t0.5 3.5t1.5 2.5q1 3 4 6.5t6 5.5v0z" />
    <glyph glyph-name="Ucircumflex" unicode="&#xdb;" horiz-adv-x="916" 
d="M803 598l74 -3q5 0 12 1t27 5q-1 -3 -2.5 -6.5t-2.5 -6.5q-3 -7 -5.5 -14t-5.5 -15q-9 -25 -19 -57.5t-24 -80.5q-22 -74 -30.5 -115.5t-8.5 -69.5q0 -25 9.5 -38.5t25.5 -13.5h3.5t3.5 1q3 0 6.5 1.5t7.5 2.5q6 3 11.5 4.5t8.5 1.5q8 0 12.5 -5.5t4.5 -14.5
q0 -11 -8 -30.5t-21 -40.5q-6 -10 -12.5 -19.5t-13.5 -18.5q-20 -25 -43.5 -42.5t-48.5 -24.5q-9 -4 -19 -5.5t-19 -1.5q-37 0 -60.5 26t-23.5 68v2v3q0 10 2 23t7 35q-18 -25 -29.5 -40.5t-21.5 -28.5l-4 -4l-4 -4q-3 -4 -6 -7t-6 -7q-20 -22 -44 -38t-48 -25
q-15 -6 -29.5 -9t-28.5 -3q-45 0 -75 29.5t-30 75.5v9t1 9q2 26 17 62t57 121q20 40 35.5 73.5t25.5 58.5t14.5 40t4.5 29v1.5v1.5q0 23 -13 35.5t-36 12.5q-38 0 -68.5 -33.5t-30.5 -74.5q0 -16 10 -27.5t23 -11.5q4 0 8 1l8 2l10.5 3.5t7.5 1.5q7 0 12.5 -6t5.5 -14
q0 -10 -9 -26t-25 -34q-31 -34 -65 -51t-70 -17q-61 0 -102 41t-41 101q0 122 101 216.5t231 94.5q85 0 138.5 -45t53.5 -116q0 -23 -6 -51.5t-17 -58.5q-2 -6 -4.5 -11.5t-4.5 -10.5l-9 -21l-9 -20l-9 -21q-11 -27 -18 -49.5t-7 -36.5q0 -16 10.5 -26t26.5 -10
q44 0 82.5 70t66.5 198q3 12 5 21t4 16q4 12 8 20t9 15q6 8 13.5 14.5t14.5 9.5q5 2 9.5 3t8.5 1v0zM746 734l-83 -42q-1 -1 -3 -1.5t-3 -1.5q-3 -1 -6 -1.5t-6 -0.5q-7 0 -12.5 4.5t-10.5 13.5q-7 13 -10.5 20t-3.5 11v2t1 2q1 5 5 9t9 6l123 55q6 3 10.5 4.5t6.5 1.5
t6.5 -1.5t8.5 -4.5l88 -55q8 -5 12.5 -10t4.5 -10q0 -2 -0.5 -4t-1.5 -4q-1 -3 -2.5 -5.5t-3.5 -4.5l-24 -20l-1.5 -1.5t-1.5 -0.5q-3 -2 -6 -3.5t-7 -2.5l-6 -2t-6 -1h-3.5t-4.5 1q-5 2 -8 3t-5 2l-56 42v0z" />
    <glyph glyph-name="Ugrave" unicode="&#xd9;" horiz-adv-x="916" 
d="M803 598l74 -3q5 0 12 1t27 5q-1 -3 -2.5 -6.5t-2.5 -6.5q-3 -7 -5.5 -14t-5.5 -15q-9 -25 -19 -57.5t-24 -80.5q-22 -74 -30.5 -115.5t-8.5 -69.5q0 -25 9.5 -38.5t25.5 -13.5h3.5t3.5 1q3 0 6.5 1.5t7.5 2.5q6 3 11.5 4.5t8.5 1.5q8 0 12.5 -5.5t4.5 -14.5
q0 -11 -8 -30.5t-21 -40.5q-6 -10 -12.5 -19.5t-13.5 -18.5q-20 -25 -43.5 -42.5t-48.5 -24.5q-9 -4 -19 -5.5t-19 -1.5q-37 0 -60.5 26t-23.5 68v2v3q0 10 2 23t7 35q-18 -25 -29.5 -40.5t-21.5 -28.5l-4 -4l-4 -4q-3 -4 -6 -7t-6 -7q-20 -22 -44 -38t-48 -25
q-15 -6 -29.5 -9t-28.5 -3q-45 0 -75 29.5t-30 75.5v9t1 9q2 26 17 62t57 121q20 40 35.5 73.5t25.5 58.5t14.5 40t4.5 29v1.5v1.5q0 23 -13 35.5t-36 12.5q-38 0 -68.5 -33.5t-30.5 -74.5q0 -16 10 -27.5t23 -11.5q4 0 8 1l8 2l10.5 3.5t7.5 1.5q7 0 12.5 -6t5.5 -14
q0 -10 -9 -26t-25 -34q-31 -34 -65 -51t-70 -17q-61 0 -102 41t-41 101q0 122 101 216.5t231 94.5q85 0 138.5 -45t53.5 -116q0 -23 -6 -51.5t-17 -58.5q-2 -6 -4.5 -11.5t-4.5 -10.5l-9 -21l-9 -20l-9 -21q-11 -27 -18 -49.5t-7 -36.5q0 -16 10.5 -26t26.5 -10
q44 0 82.5 70t66.5 198q3 12 5 21t4 16q4 12 8 20t9 15q6 8 13.5 14.5t14.5 9.5q5 2 9.5 3t8.5 1v0zM793 715l-15 -20q-3 -5 -7.5 -8t-9.5 -4q-1 -1 -2.5 -1h-2.5q-3 0 -6 1t-8 4l-103 61q-7 4 -11 9.5t-4 11.5v2v2q1 1 2 3.5t5 8.5l19 27q2 3 7.5 5.5t11.5 2.5h0.5h0.5h2h1
q2 0 5 -1.5t9 -6.5l99 -64q7 -4 10 -8.5t3 -9.5q0 -2 -0.5 -4.5t-2.5 -5.5q0 -1 -1 -2.5t-2 -2.5v0z" />
    <glyph glyph-name="circumflex" unicode="&#x2dc;" horiz-adv-x="500" 
d="M320 467l-82 -40q-2 -1 -4 -1.5t-4 -1.5q-3 0 -5 -0.5t-4 -0.5q-7 0 -12.5 4t-10.5 13q-7 12 -10.5 19t-3.5 10q0 2 0.5 3.5t1.5 3.5q2 3 5.5 6.5t7.5 4.5l121 53q5 2 9.5 3.5t6.5 1.5q3 0 7 -1.5t8 -3.5l86 -53q4 -2 7 -4.5t5 -4.5q2 -3 3 -5.5t1 -4.5q0 -1 -0.5 -3
t-1.5 -4q0 -2 -1 -4l-2 -4q-1 0 -1.5 -1l-0.5 -1l-24 -19l-1.5 -1.5t-1.5 -0.5q-2 -2 -5 -3t-5 -2q-4 -2 -8 -3t-6 -1t-4.5 0.5t-5.5 1.5q-1 0 -2.5 0.5t-2.5 1.5q-2 0 -3.5 1t-2.5 1l-54 40v0z" />
    <glyph glyph-name="tilde" unicode="&#x2c6;" horiz-adv-x="500" 
d="M239 440h-28q-9 0 -14 5.5t-5 15.5q0 29 24 52t55 23h8.5t7.5 -1q9 -2 21 -7.5t38 -20.5q5 -2 10 -3.5t9 -1.5q3 0 5.5 0.5t4.5 1.5q2 2 5 6.5t8 12.5q2 4 6.5 5.5t14.5 1.5h22q11 0 18 -5.5t6 -14.5q-1 -28 -25 -52t-53 -26h-1.5h-1.5h-7.5t-7.5 1q-10 2 -22.5 8
t-35.5 19q-2 2 -5 3t-5 2l-8 2t-7 1t-6 -1.5t-6 -4.5q-2 -1 -3 -3t-3 -5q-4 -7 -9 -10.5t-10 -3.5v0z" />
    <glyph glyph-name="cedilla" unicode="&#xb8;" horiz-adv-x="500" 
d="M121 -121q0 1 0.5 1h0.5h0.5h0.5q1 0 3.5 -1.5t11.5 -5.5q2 -1 3.5 -2t3.5 -1q1 -1 3 -1h3q11 0 19 8t8 18t-7.5 15.5t-21.5 4.5q-5 0 -8 2t-3 5v2v1q1 3 6.5 7.5t20.5 15.5q5 4 10 7t10 5t11 3t13 1q35 0 58 -20t23 -51q0 -34 -26 -56t-67 -22h-4h-4q-27 3 -51 17.5
t-27 31.5q-1 1 -1 2.5v2.5q0 4 3.5 7.5t7.5 3.5v-1z" />
    <glyph glyph-name="Scaron" unicode="&#x160;" horiz-adv-x="917" 
d="M572 584q46 32 98 48t106 16q86 0 142 -38t56 -96q0 -52 -45.5 -84t-119.5 -32q-11 0 -21 0.5t-20 1.5q-24 3 -52 13.5t-80 32.5q-1 -5 -1.5 -8.5t-0.5 -6.5q0 -14 10.5 -28.5t31.5 -30.5q2 -1 2.5 -1.5t0.5 -1.5v0v0q1 -1 13.5 -8t78.5 -47q57 -35 83.5 -75.5
t26.5 -92.5q0 -118 -100 -190t-265 -72q-140 0 -225.5 59.5t-85.5 157.5q0 79 63.5 134.5t154.5 55.5h5.5h5.5q51 -3 94.5 -24.5t46.5 -47.5v-1.5v-1.5q0 -4 -0.5 -7t-2.5 -5q-2 -4 -8.5 -8t-19.5 -11q-10 -5 -16 -15t-6 -22q0 -22 20 -38.5t48 -16.5q33 0 55 18t22 46
q0 8 -1.5 15.5t-5.5 14.5q-8 15 -26 31t-51 39q-28 19 -48 36.5t-34 34.5q-17 21 -24.5 42t-7.5 44q0 8 0.5 15t1.5 13q3 14 9 29t17 36q-25 10 -40.5 14t-29.5 4q-23 0 -40 -14.5t-17 -34.5q0 -21 13.5 -34t36.5 -15q14 -1 19 -5.5t6 -13.5q1 -23 -39.5 -40.5t-93.5 -17.5
q-87 0 -139.5 43.5t-52.5 115.5q0 70 56 118t136 48h10t10 -1q29 -2 63 -13t90 -35q19 -8 32 -14t23 -11l4 -2t5 -2q5 -3 10.5 -6t12.5 -7v0zM703 517q34 -13 56.5 -20t35.5 -7q12 0 20.5 6.5t8.5 16.5q0 12 -15 20.5t-38 8.5q-9 0 -16.5 -1t-15.5 -4t-17 -7.5t-19 -12.5v0z
M690 768l83 42q5 2 9.5 3.5t8.5 1.5q7 1 13 -4t11 -14q8 -13 11 -20t3 -12q0 -1 -0.5 -3t-1.5 -4q-2 -3 -5.5 -6t-8.5 -5l-123 -56q-5 -2 -9.5 -3.5t-6.5 -1.5q-3 0 -6.5 1.5t-8.5 3.5l-88 56q-4 2 -7 4.5t-6 5.5q-2 3 -3 5.5t-1 4.5t0.5 3.5t1.5 3.5q1 3 2.5 6t3.5 4l24 21
l1.5 1.5t1.5 0.5q2 2 5 3.5t6 2.5q4 1 7.5 2t5.5 1h4t5 -1q5 -1 8.5 -2.5t4.5 -2.5l55 -42v0z" />
    <glyph glyph-name="scaron" unicode="&#x161;" horiz-adv-x="385" 
d="M230 386q65 0 109 -24t44 -60q0 -19 -14.5 -34t-34.5 -15q-3 0 -6.5 0.5t-6.5 1.5q-10 2 -20 9.5t-25 20.5q-13 13 -22 18.5t-17 5.5t-14 -4.5t-6 -11.5t5.5 -14.5t15.5 -15.5q1 0 1 -0.5v-0.5q1 0 6.5 -3t37.5 -21q38 -21 57.5 -47t19.5 -58q0 -64 -55 -104t-142 -40
q-70 0 -115 27.5t-45 71.5q0 28 17.5 46.5t43.5 18.5q9 0 16 -1t14 -4q11 -5 23 -16.5t31 -31.5q3 -4 6.5 -7t7.5 -6q9 -7 17.5 -10.5t15.5 -3.5q8 0 15 6.5t7 14.5v5.5t-1 4.5q-3 6 -14.5 14.5t-42.5 28.5q-28 18 -45.5 32t-27.5 27q-9 13 -13 26.5t-4 30.5q0 51 47.5 87
t113.5 36v0zM267 499l81 40q5 2 9 3.5t8 1.5q7 0 13 -4t11 -13q7 -12 10 -19t3 -11q0 -1 -0.5 -3t-1.5 -3q-2 -4 -5.5 -7t-7.5 -5l-120 -52q-5 -2 -9 -3.5t-7 -1.5q-4 0 -7.5 1t-7.5 4l-86 52q-8 5 -12.5 10t-4.5 9q0 2 0.5 3.5t1.5 3.5q1 3 2.5 6t3.5 4l23 20q1 1 2.5 1.5
t3.5 1.5l4 2l4 2q4 1 7.5 2t5.5 1h4t5 -1q5 -1 8 -2.5t4 -2.5l55 -40v0z" />
    <glyph glyph-name="Zcaron" unicode="&#x17d;" horiz-adv-x="689" 
d="M333 328l32 18q17 10 32 19.5t29 18.5q40 26 70.5 53.5t57.5 59.5q-7 -2 -12.5 -3t-9.5 -1q-4 -1 -8.5 -1h-9.5h-13.5t-10.5 1q-10 0 -23 3.5t-44 10.5q-10 2 -19.5 3.5t-18.5 1.5q-23 0 -39.5 -15t-16.5 -37q0 -12 6 -19.5t18 -11.5l10.5 -3.5l7.5 -2.5q6 -3 7.5 -6
t1.5 -9q0 -21 -29.5 -38t-64.5 -18h-1.5h-1.5q-53 0 -90 37.5t-37 91.5q0 80 57.5 135t139.5 55q9 0 17.5 -0.5t16.5 -1.5q25 -3 52 -11t64 -24q55 -24 74.5 -31.5t31.5 -8.5h6h6h9t7 1q6 2 14 8t27 21q4 3 8.5 5t8.5 2q14 0 22 -12t8 -35v-6v-6q-3 -30 -18.5 -61t-46.5 -67
q-15 -18 -30.5 -33.5t-34.5 -30.5q-25 -21 -58 -42.5t-77 -47.5q-55 -32 -90 -59t-55 -53q-5 -6 -9.5 -12.5t-7.5 -13.5q17 15 31 25t28 16q13 6 27 8.5t31 2.5t37.5 -3t44.5 -11q17 -4 31.5 -7t23.5 -3q8 0 14 1t12 5q8 5 17 15.5t22 29.5q3 5 8.5 7.5t12.5 2.5
q15 0 23.5 -12.5t8.5 -33.5q0 -20 -5 -45t-15 -50q-7 -20 -16.5 -39.5t-20.5 -36.5q-34 -53 -77.5 -82t-91.5 -29q-18 0 -44.5 6t-54.5 17q-4 2 -9 4l-10 4q-3 1 -4 1.5t-2 0.5v0v0q-2 1 -13 7.5t-66 40.5q-22 13 -40.5 20t-30.5 7h-7.5t-6.5 -1q-5 -2 -12.5 -8t-22.5 -19
q-5 -5 -12 -7.5t-15 -2.5q-14 0 -22 9.5t-8 27.5q0 19 5 40.5t15 44.5q12 29 31 57.5t42 50.5q11 11 26.5 23t34.5 25q12 8 25 16t27 16l32 18l31 17v0zM510 768l83 42q5 2 9.5 3.5t8.5 1.5q7 1 13 -4t11 -14q8 -13 11 -20t3 -12q0 -1 -0.5 -3t-1.5 -4q-2 -3 -5.5 -6
t-8.5 -5l-123 -56q-5 -2 -9.5 -3.5t-6.5 -1.5q-3 0 -6.5 1.5t-8.5 3.5l-88 56q-4 2 -7 4.5t-6 5.5q-2 3 -3 5.5t-1 4.5t0.5 3.5t1.5 3.5q1 3 2.5 6t3.5 4l24 21l1.5 1.5t1.5 0.5q2 2 5 3.5t6 2.5q4 1 7.5 2t5.5 1h4t5 -1q5 -1 8.5 -2.5t4.5 -2.5l55 -42v0z" />
    <glyph glyph-name="zcaron" unicode="&#x17e;" horiz-adv-x="374" 
d="M180 229l15 11l8 6t8 5q3 3 5.5 5t5.5 5q5 4 10.5 10t12.5 13q-5 -3 -9.5 -5t-9.5 -4q-9 -4 -18.5 -5.5t-19.5 -1.5q-6 0 -12 1t-13 2q-8 2 -15 3.5t-9 1.5q-6 0 -11 -1t-9 -4q-6 -4 -12.5 -11.5t-16.5 -21.5q-3 -4 -8 -6t-10 -2q-10 0 -17.5 8t-7.5 19v0.5v0.5q0 4 2 13
t8 41q9 44 29.5 62.5t60.5 18.5h8.5t8.5 -1q19 -1 42 -6.5t64 -17.5q9 -2 17 -3.5t14 -1.5h5t4 1q4 1 9.5 4.5t17.5 12.5q3 2 6.5 3.5t7.5 1.5q11 0 19 -10.5t8 -27.5q0 -10 -2.5 -21t-7.5 -22q-4 -9 -9.5 -18t-12.5 -18q-3 -3 -5 -6t-5 -6q-2 -3 -4.5 -5.5l-5.5 -5.5
q-9 -9 -22.5 -19.5t-39.5 -27.5q-13 -9 -24 -17.5t-20 -16.5q-10 -8 -18.5 -17t-16.5 -19q-5 -5 -9.5 -11.5t-9.5 -13.5q11 7 19 11t15 6q5 1 10 1.5t12 0.5h10t8 -1h4t4 -1q9 -1 16 -2t11 -1h6t5 1q4 2 9 8t16 19q4 5 9 7t12 2q9 0 16 -7t7 -17v-3v-2q0 -5 -2 -13t-7 -33
q-13 -53 -33.5 -76.5t-55.5 -23.5h-2.5h-2.5q-7 0 -18.5 2.5t-45.5 10.5q-8 2 -11 3t-5 1l-6 2t-12 2l-12 4l-12 4q-3 1 -6 1.5t-6 1.5q-10 3 -20 5t-17 2q-3 0 -6.5 -0.5t-6.5 -1.5q-5 -1 -11 -5t-14 -10q-7 -5 -13 -8t-11 -3q-10 0 -15.5 8.5t-5.5 23.5q0 25 8 47t27 44
q8 10 18.5 19.5t22.5 19.5q9 7 26 19.5t37 26.5q3 2 6.5 4.5t6.5 4.5l15 10l15 11v0zM249 499l81 40q5 2 9 3.5t8 1.5q7 0 13 -4t11 -13q7 -12 10 -19t3 -11q0 -1 -0.5 -3t-1.5 -3q-2 -4 -5.5 -7t-7.5 -5l-120 -52q-5 -2 -9 -3.5t-7 -1.5q-4 0 -7.5 1t-7.5 4l-86 52
q-8 5 -12.5 10t-4.5 9q0 2 0.5 3.5t1.5 3.5q1 3 2.5 6t3.5 4l23 20q1 1 2.5 1.5t3.5 1.5l4 2l4 2q4 1 7.5 2t5.5 1h4t5 -1q5 -1 8 -2.5t4 -2.5l55 -40v0z" />
    <glyph glyph-name="brokenbar" unicode="&#xa6;" horiz-adv-x="500" 
d="M217 153h80v-320h-80v320v0zM217 667h80v-335h-80v335v0z" />
    <glyph glyph-name="Eth" unicode="&#xd0;" horiz-adv-x="931" 
d="M471 252h-18q-6 0 -8 4.5t-3 17.5v6l3 24q2 14 5.5 19.5t11.5 5.5h39q16 43 24.5 64t15.5 35q1 2 1.5 3.5t1.5 3.5q3 6 6.5 12.5t7.5 14.5q-10 2 -18 3.5t-15 1.5q-4 1 -9 1h-11q-66 0 -115 -27.5t-49 -65.5q0 -17 13 -27.5t35 -11.5q15 -1 21.5 -5.5t6.5 -15.5
q0 -3 -0.5 -5.5t-0.5 -4.5q-6 -27 -37 -49.5t-67 -27.5q-4 0 -7.5 -0.5t-7.5 -0.5q-65 0 -110 47t-45 117q0 122 108.5 208.5t259.5 86.5q39 0 75.5 -6.5t72.5 -19.5q7 -2 14.5 -5t14.5 -6q24 24 47 43t46 32q32 19 64.5 28t67.5 9q41 0 68.5 -24.5t27.5 -59.5
q0 -30 -20.5 -52t-48.5 -22q-17 0 -21.5 5.5t-5.5 26.5q-1 7 -10.5 12.5t-22.5 5.5q-21 0 -46 -14t-55 -43q67 -55 97.5 -121t30.5 -154q0 -145 -84.5 -240.5t-211.5 -95.5q-11 0 -21 0.5t-20 1.5q-22 3 -46.5 10.5t-65.5 23.5q-4 2 -11.5 4.5t-17.5 6.5q-48 -41 -101.5 -61
t-116.5 -20q-81 0 -131 36.5t-50 95.5q0 52 41 87.5t102 35.5h12.5t12.5 -1q39 -2 86 -14.5t134 -42.5q8 12 14 21.5t11 18.5q3 5 5.5 10l5.5 11q4 9 8.5 19.5t9.5 23.5v0zM347 72q-8 4 -17.5 7t-18.5 7q-20 6 -38.5 10.5t-28.5 4.5q-14 0 -25 -9t-11 -22q0 -14 14 -24.5
t33 -10.5q7 0 13.5 0.5t12.5 2.5q14 3 29 11t37 23v0zM650 252h-67q-7 -16 -12.5 -30t-11.5 -26q-6 -13 -12 -24t-13 -22l-10 -16t-11 -16q16 -5 26 -7.5t19 -3.5h6h6q59 0 102.5 55t43.5 128q0 39 -15 71t-45 57q-6 -10 -10.5 -18t-8.5 -15q-1 -3 -2.5 -6.5t-3.5 -6.5
q-4 -9 -8 -19.5t-10 -24.5h44q5 -1 7.5 -5.5t2.5 -14.5v-10l-3 -23q-1 -13 -4 -18t-10 -5v0z" />
    <glyph glyph-name="eth" unicode="&#xf0;" horiz-adv-x="437" 
d="M235 384l-11 33l-85 -24q-1 -1 -2.5 -1h-3.5q-3 0 -5 1t-4 5q-1 2 -2 5t-3 7l-5 18q-1 5 -2 7.5t-1 3.5q0 4 2.5 6.5t8.5 3.5q2 1 4 1.5l6 1.5l74 21q-1 2 -1.5 4.5t-1.5 3.5q-3 10 -8 14.5t-16 6.5q-3 1 -6 1.5t-6 1.5q21 58 49 89.5t58 31.5q17 0 28.5 -11.5
t18.5 -35.5l21 -67l60 17q5 2 8.5 2.5t5.5 0.5q3 0 4.5 -1.5t3.5 -5.5q1 -3 2 -5.5t2 -6.5l6 -17q1 -2 1 -4.5v-5.5q0 -4 -2.5 -7t-10.5 -5l-63 -19l44 -144q11 -37 15.5 -56t5.5 -34v-5.5v-5.5q0 -91 -67.5 -155.5t-162.5 -64.5q-75 0 -123.5 48t-48.5 122q0 89 60 153
t153 71v0zM242 286q-20 0 -35.5 -19.5t-15.5 -45.5q0 -19 10 -31.5t26 -12.5q20 0 36 20t16 45q0 20 -10 32t-27 12v0z" />
    <glyph glyph-name="Yacute" unicode="&#xdd;" horiz-adv-x="250" 
 />
    <glyph glyph-name="yacute" unicode="&#xfd;" horiz-adv-x="250" 
 />
    <glyph glyph-name="Thorn" unicode="&#xde;" horiz-adv-x="909" 
d="M617 604h16q50 93 117 142t143 49q36 0 57.5 -15.5t21.5 -41.5q0 -27 -25 -49t-57 -22q-8 0 -11 1.5t-6 7.5q-1 3 -2 6.5t-2 8.5q0 1 -0.5 1.5l-0.5 0.5q-2 3 -7 5.5t-10 3.5h-2.5h-2.5q-8 0 -15.5 -1.5t-15.5 -5.5q-23 -10 -46 -35.5t-47 -68.5q104 -29 164 -99t60 -162
q0 -103 -59.5 -182t-138.5 -79q-52 0 -87.5 35t-35.5 87q0 34 15.5 61.5t34.5 27.5q6 0 9 -2t6 -9q1 -2 1.5 -4.5t1.5 -5.5q3 -10 10 -16t16 -6q25 0 45 38.5t20 85.5q0 49 -26.5 84.5t-74.5 53.5q-3 -6 -5 -11t-4 -11q-1 -3 -2.5 -7t-2.5 -8q-2 -5 -3.5 -10t-3.5 -11
q-7 -20 -13.5 -44.5t-13.5 -53.5l-20 -80l-9 -41q-41 -170 -135.5 -258.5t-233.5 -88.5q-95 0 -160 56t-65 138q0 95 79 166.5t185 71.5q25 0 40.5 -8.5t15.5 -22.5v-0.5v-0.5v-2v-2q-1 -3 -4.5 -8t-13.5 -18q-1 -2 -2.5 -4.5t-1.5 -4.5q-1 -3 -1.5 -5.5t-0.5 -4.5
q0 -19 16 -33t38 -14q9 0 17.5 2t18.5 5q18 7 35.5 19.5t30.5 29.5q6 8 12 17t11 19q9 15 17.5 36t19.5 50t17.5 46.5t12.5 31.5q0 1 1 3t1 3q6 13 12.5 27.5t17.5 37.5q-46 -8 -74.5 -27.5t-30.5 -43.5q0 -3 0.5 -5t1.5 -4q2 -2 7.5 -5t15.5 -8q5 -2 7 -5.5t2 -7.5
q0 -7 -5 -16.5t-15 -19.5l-6.5 -6.5t-7.5 -6.5q-4 -4 -8.5 -7t-8.5 -6q-20 -14 -40 -20t-44 -6q-53 0 -84.5 24.5t-31.5 65.5q0 85 102.5 143.5t250.5 58.5v0z" />
    <glyph glyph-name="thorn" unicode="&#xfe;" horiz-adv-x="487" 
d="M-36 -225l167 731q2 6 2.5 13.5t0.5 14.5q0 14 -4.5 21t-17.5 12q17 15 36 27t39 20q14 6 29 9t28 3q26 0 43 -14t17 -37v-6.5v-5.5q-1 -1 -1 -3t-1 -4l-44 -205q17 12 31.5 19.5t28.5 11.5q10 3 19.5 4t20.5 1q53 0 86.5 -37.5t33.5 -97.5q0 -106 -57.5 -184.5
t-134.5 -78.5q-28 0 -49.5 8.5t-40.5 28.5q-3 2 -5.5 5t-5.5 6l-36 -161q-8 -37 -26.5 -53.5t-50.5 -16.5l-43 -1q-9 1 -16 0t-13 -4q-8 -3 -16 -9t-19 -16zM280 285h-4h-3q-18 -4 -33.5 -24t-16.5 -44v-1.5v-1.5q0 -16 9.5 -26t24.5 -10q22 0 38.5 21.5t16.5 49.5
q0 16 -8.5 25.5t-23.5 10.5v0z" />
    <glyph glyph-name="multiply" unicode="&#xd7;" 
d="M291 328l85 86q3 2 6 4.5t7 3.5q3 2 6 3t6 1q2 0 4.5 -0.5t4.5 -1.5l4 -2l4 -2l22 -11q5 -2 8.5 -6t5.5 -8q1 -1 1.5 -3t0.5 -4t-1.5 -5.5t-3.5 -6.5q-1 -1 -2 -2.5t-3 -3.5l-99 -99l103 -103q2 -2 4 -4.5t3 -5.5q1 -2 1.5 -4t0.5 -4t-1 -4l-2 -4q-2 -4 -5 -7t-7 -5
l-22 -12q-6 -3 -10.5 -4.5t-7.5 -1.5t-7.5 1.5t-8.5 4.5q-2 2 -4 3.5t-4 3.5l-89 89l-81 -80q-7 -7 -12 -11t-9 -5q-2 -1 -4 -1.5t-5 -0.5q-4 0 -8 1.5t-10 4.5l-23 13q-5 4 -9 9.5t-4 11.5v3t1 2q1 3 3 6t6 7l98 97l-94 94q-4 4 -6 7t-3 5t-1 3.5v2.5q0 2 0.5 3.5t0.5 2.5
q2 4 5 8t7 6l23 14q6 3 9.5 4t6.5 2h0.5h1.5q3 0 5 -0.5t4 -0.5q4 -2 8.5 -5.5t12.5 -11.5l77 -77v0z" />
    <glyph glyph-name="onesuperior" unicode="&#xb9;" horiz-adv-x="353" 
d="M140 247l51 216q1 3 1 6v6q0 7 -5.5 10t-19.5 4q-12 1 -18 6t-6 14q0 8 4 13.5t12 9.5l103 58q3 2 5.5 3t4.5 2q5 2 10.5 3t9.5 1q14 0 22.5 -7.5t8.5 -19.5q0 -4 -1 -9.5t-3 -12.5q-1 -5 -4.5 -18.5t-7.5 -31.5l-4 -20t-8 -36q-10 -44 -16.5 -74t-8.5 -44q0 -2 -0.5 -4
t-0.5 -4q-5 -35 -14 -43t-39 -8h-33q-8 0 -13.5 -1t-10.5 -3q-4 -2 -8.5 -6t-10.5 -10v0z" />
    <glyph glyph-name="twosuperior" unicode="&#xb2;" horiz-adv-x="354" 
d="M201 441l13 7q23 11 33.5 24t10.5 29q0 15 -8 24.5t-21 9.5q-5 0 -11.5 -2.5t-17.5 -8.5q4 -7 5.5 -12.5t2.5 -10.5v-2v-2q0 -19 -14 -31.5t-34 -12.5t-34 13.5t-14 33.5q0 40 42 68.5t100 28.5q48 0 77.5 -25.5t29.5 -66.5q0 -40 -24.5 -66.5t-80.5 -46.5
q-11 -4 -19.5 -7.5t-14.5 -6.5l-8 -4t-7 -4l-8 -6l-8 -6q6 2 9.5 3.5t7.5 1.5q3 1 5.5 1h6.5q8 0 14.5 -0.5t13.5 -2.5q9 -1 16 -2.5t11 -1.5q3 0 6.5 1t6.5 2q3 2 6 5t6 7q3 3 5 5.5t5 3.5q2 2 4 2.5t5 0.5q9 0 13.5 -5t4.5 -16q0 -41 -32 -75.5t-70 -34.5q-5 0 -9 0.5
t-8 0.5q-12 2 -24.5 8t-33.5 17q-5 2 -10.5 3.5t-10.5 1.5q-4 0 -8 -1t-7 -3q-4 -2 -8 -5t-8 -7q-2 -2 -3.5 -4t-3.5 -3t-4.5 -1.5t-6.5 -0.5q-10 0 -16 7t-6 20q0 10 2.5 20.5t6.5 21.5q7 20 19.5 38t27.5 31q8 7 21 15t29 16l13 7l14 6v0z" />
    <glyph glyph-name="threesuperior" unicode="&#xb3;" horiz-adv-x="353" 
d="M296 439q32 -4 45.5 -18t13.5 -42q0 -53 -49.5 -89.5t-123.5 -36.5q-51 0 -85 24.5t-34 61.5v1.5v1.5q1 32 29 59.5t61 28.5h1.5h1.5q8 0 14 -4.5t6 -9.5v-1.5v-1.5q-1 -2 -3.5 -4t-7.5 -7q-5 -4 -8 -10.5t-3 -13.5q0 -14 10 -22t27 -8q23 0 37 10.5t14 27.5
q0 12 -7.5 20t-18.5 8q-10 1 -14 3.5t-4 7.5q0 3 0.5 6.5t1.5 7.5t2 7.5t2 6.5q0 1 0.5 2t1.5 1q1 3 3 4t9 2q3 0 7.5 0.5t10.5 1.5q12 1 22.5 12t11.5 24v1.5v1.5q0 15 -10.5 23.5t-28.5 8.5q-5 0 -9 -0.5t-8 -1.5q-5 -1 -10 -3.5l-11 -5.5q3 -3 5 -6l4 -6q1 -3 1.5 -6
t0.5 -6q0 -16 -13 -28t-31 -12t-30.5 13t-12.5 32q0 38 41.5 64.5t99.5 26.5q51 0 83 -23t32 -59q0 -28 -20.5 -48t-56.5 -27v0z" />
    <glyph glyph-name="onehalf" unicode="&#xbd;" horiz-adv-x="820" 
d="M607 173l14 7q23 11 33.5 24t10.5 29q0 15 -8 24.5t-21 9.5h-1.5h-1.5q-5 -1 -11 -3.5t-16 -8.5q4 -7 6 -12.5t3 -10.5v-2v-2q0 -19 -14 -31.5t-34 -12.5t-34 13.5t-14 34.5q0 40 42 68.5t100 28.5q48 0 77.5 -25.5t29.5 -67.5q0 -39 -24.5 -65.5t-80.5 -46.5
q-12 -5 -20.5 -8.5t-15.5 -6.5l-7 -3.5t-6 -4.5q-4 -2 -8 -5l-8 -6q6 2 10 3t8 1q2 1 4.5 1h5.5q8 0 15 -0.5t13 -2.5q10 -1 17 -2.5t11 -1.5q2 0 4 0.5t4 0.5q4 2 8 5.5t8 8.5q3 3 5 5.5t5 3.5q2 2 4 2.5t5 0.5q9 0 13.5 -5t4.5 -16q0 -41 -32 -75t-70 -34q-5 0 -9.5 0.5
t-8.5 0.5q-11 2 -23.5 8t-32.5 16q-5 2 -10.5 3.5t-10.5 1.5q-4 0 -8 -1t-7 -2q-4 -2 -8 -5t-8 -7q-2 -3 -4 -4.5t-4 -2.5t-4.5 -1.5t-5.5 -0.5q-10 0 -16 6.5t-6 19.5q0 10 2.5 20.5t6.5 21.5q7 20 19.5 38.5t27.5 30.5q8 8 21 16t29 16l13 6l13 7v0zM541 566h58
q4 0 6.5 -2t2.5 -5q0 -1 -0.5 -3.5t-2.5 -4.5l-297 -529q-1 -1 -1.5 -2t-1.5 -2q-6 -10 -14 -14t-21 -4h-49q-4 0 -8 3.5t-4 7.5v2t1 2l299 528q3 6 5.5 10.5t4.5 6.5q4 4 8.5 5t13.5 1v0zM130 247l51 216q1 3 1 6v6q0 7 -5.5 10t-19.5 4q-12 1 -18 6t-6 14q0 8 4 13.5
t12 9.5l103 58q3 2 5.5 3t4.5 2q5 2 10.5 3t9.5 1q14 0 22.5 -7.5t8.5 -19.5q0 -4 -1 -9.5t-3 -12.5q-1 -5 -4.5 -18.5t-7.5 -31.5l-4 -20t-8 -36q-10 -44 -16.5 -74t-8.5 -44q0 -2 -0.5 -4t-0.5 -4q-5 -35 -14 -43t-39 -8h-33q-8 0 -13.5 -1t-10.5 -3q-4 -2 -8.5 -6
t-10.5 -10v0z" />
    <glyph glyph-name="onequarter" unicode="&#xbc;" horiz-adv-x="820" 
d="M713 145h22q10 0 14 -3.5t4 -12.5q0 -28 -8.5 -40.5t-26.5 -12.5h-20l-7 -41q-4 -23 -13 -29.5t-37 -6.5l-12 -1q-17 1 -26 -1.5t-17 -9.5q-3 -2 -5 -5t-5 -6l23 100h-78q-28 0 -42 10.5t-14 30.5q0 4 1 8l2 8q3 5 7 10t10 11l151 146q7 7 12 11.5t10 6.5q5 3 12 4t17 1
h26h17h1.5t0.5 -1q4 -1 7.5 -5.5t4.5 -9.5q1 -2 1 -3v-2q0 -2 -1 -8.5t-3 -15.5l-28 -133v0zM615 145l18 75l-79 -75h61v0zM535 566h58q4 0 6.5 -2t2.5 -5q0 -1 -0.5 -3.5t-2.5 -4.5l-297 -529q-1 -1 -1.5 -2t-1.5 -2q-6 -10 -14 -14t-21 -4h-49q-4 0 -8 3.5t-4 7.5v2t1 2
l299 528q3 6 5.5 10.5t4.5 6.5q4 4 8.5 5t13.5 1v0zM124 247l51 216q1 3 1 6v6q0 7 -5.5 10t-19.5 4q-12 1 -18 6t-6 14q0 8 4 13.5t12 9.5l103 58q3 2 5.5 3t4.5 2q5 2 10.5 3t9.5 1q14 0 22.5 -7.5t8.5 -19.5q0 -4 -1 -9.5t-3 -12.5q-1 -5 -4.5 -18.5t-7.5 -31.5l-4 -20
t-8 -36q-10 -44 -16.5 -74t-8.5 -44q0 -2 -0.5 -4t-0.5 -4q-5 -35 -14 -43t-39 -8h-33q-8 0 -13.5 -1t-10.5 -3q-4 -2 -8.5 -6t-10.5 -10v0z" />
    <glyph glyph-name="threequarters" unicode="&#xbe;" horiz-adv-x="820" 
d="M750 145h22q10 0 14 -3.5t4 -12.5q0 -28 -8.5 -40.5t-26.5 -12.5h-21l-6 -41q-4 -23 -13.5 -29.5t-36.5 -6.5l-12 -1q-17 1 -26 -1.5t-17 -9.5q-3 -2 -5 -5t-5 -6l23 100h-78q-28 0 -42 10.5t-14 30.5q0 9 5 18t15 19l151 146q7 7 12 11.5t9 6.5q6 3 12.5 4t17.5 1h26h17
h1.5t0.5 -1q5 -1 8.5 -6t4.5 -10v-1.5v-1.5v0v0v-1v0q0 -2 -1 -8.5t-3 -15.5l-28 -133v0zM651 145l19 75l-79 -75h60v0zM572 566h58q4 0 6.5 -2t2.5 -5q0 -1 -0.5 -3.5t-2.5 -4.5l-297 -529q-1 -1 -1.5 -2t-0.5 -2q-7 -10 -15 -14t-22 -4h-48q-4 0 -8 3.5t-4 7.5v0.5v1.5
t0.5 1.5l0.5 0.5l299 528q3 6 5.5 10.5t4.5 6.5q4 4 8.5 5t13.5 1v0zM293 439q32 -4 45.5 -18t13.5 -42q0 -53 -49.5 -89.5t-123.5 -36.5q-51 0 -85 24.5t-34 61.5v1.5v1.5q1 32 29 59.5t61 28.5h1.5h1.5q8 0 14 -4.5t6 -9.5v-1.5v-1.5q-1 -2 -3.5 -4t-7.5 -7
q-5 -4 -8 -10.5t-3 -13.5q0 -14 10 -22t27 -8q23 0 37 10.5t14 27.5q0 12 -7.5 20t-18.5 8q-10 1 -14 3.5t-4 7.5q0 3 0.5 6.5t1.5 7.5t2 7.5t2 6.5q0 1 0.5 2t1.5 1q1 3 3 4t9 2q3 0 7.5 0.5t10.5 1.5q12 1 22.5 12t11.5 24v1.5v1.5q0 15 -10.5 23.5t-28.5 8.5
q-5 0 -9 -0.5t-8 -1.5q-5 -1 -10 -3.5l-11 -5.5q3 -3 5 -6l4 -6q1 -3 1.5 -6t0.5 -6q0 -16 -13 -28t-31 -12t-30.5 13t-12.5 32q0 38 41.5 64.5t99.5 26.5q51 0 83 -23t32 -59q0 -28 -20.5 -48t-56.5 -27v0z" />
    <glyph glyph-name="endash" unicode="&#x2013;" horiz-adv-x="526" 
d="M108 252h334q12 0 18 -5t6 -16v-3.5v-3.5q0 -1 -0.5 -2t-0.5 -2l-7 -23q-4 -13 -12 -19t-23 -6h-339q-14 0 -20 5t-6 17v4t1 3l7 26q5 16 12.5 20.5t29.5 4.5v0z" />
    <glyph glyph-name="sfthyphen" unicode="&#xad;" horiz-adv-x="500" 
 />
    <glyph glyph-name="filledbox" unicode="&#x25a0;" horiz-adv-x="500" 
 />
    <glyph glyph-name="bullet" unicode="&#x2022;" horiz-adv-x="667" 
d="M363 477q56 0 96.5 -40.5t40.5 -97.5q0 -58 -40.5 -98.5t-96.5 -40.5q-58 0 -99 40.5t-41 98.5q0 57 41 97.5t99 40.5v0z" />
    <glyph glyph-name="overstore" unicode="&#xaf;" horiz-adv-x="250" 
 />
    <glyph glyph-name="degree" unicode="&#xb0;" horiz-adv-x="331" 
d="M209 553q59 0 100 -41t41 -100q0 -58 -41.5 -100t-99.5 -42t-100 42t-42 100q0 59 41.5 100t100.5 41v0zM209 480q-29 0 -49 -19.5t-20 -48.5q0 -28 20.5 -48.5t48.5 -20.5t48 20.5t20 48.5t-20 48t-48 20v0z" />
    <glyph glyph-name="middot" unicode="&#xb7;" horiz-adv-x="250" 
 />
    <glyph glyph-name="invcircle" unicode="&#x25d9;" horiz-adv-x="250" 
 />
    <glyph glyph-name="Rcaron" unicode="&#x158;" horiz-adv-x="250" 
 />
    <glyph glyph-name="Ncaron" unicode="&#x147;" horiz-adv-x="250" 
 />
    <glyph glyph-name="2510" unicode="&#x2510;" horiz-adv-x="250" 
 />
  </font>
</defs>
</svg>
